<?xml version="1.0" encoding="utf-8"?>
<!-- Generator: Adobe Illustrator 16.0.0, SVG Export Plug-In . SVG Version: 6.00 Build 0)  -->
<!DOCTYPE svg PUBLIC "-//W3C//DTD SVG 1.1//EN" "http://www.w3.org/Graphics/SVG/1.1/DTD/svg11.dtd">
<svg version="1.1" xmlns="http://www.w3.org/2000/svg" xmlns:xlink="http://www.w3.org/1999/xlink" x="0px" y="0px"
	 width="841.89px" height="595.28px" viewBox="0 0 841.89 595.28" enable-background="new 0 0 841.89 595.28" xml:space="preserve">
<g id="Ebene_1">
	<rect stroke="#000000" stroke-miterlimit="10" width="846" height="595.28"/>
</g>
<g id="Ebene_2">
	<g>
		<defs>
			<rect id="SVGID_1_" x="248.157" y="31.194" width="349.687" height="545.791"/>
		</defs>
		<clipPath id="SVGID_2_">
			<use xlink:href="#SVGID_1_"  overflow="visible"/>
		</clipPath>
		<path clip-path="url(#SVGID_2_)" fill="#009A93" d="M298.245,200.542c-0.094,0.067-0.261,0.124-0.274,0.202
			c-0.067,0.366-0.054,0.754-0.389,1.013c-0.532,0.409-0.4,0.995-0.413,1.545c-0.011,0.436,0.348,0.631,0.545,0.935
			c0.494,0.761,1.353,0.806,2.08,1.083c0.615,0.233,1.096-0.326,0.925-1.067c-0.049-0.216-0.022-0.334,0.094-0.472
			c0.117-0.144,0.29-0.265,0.351-0.429c0.052-0.141,0.013-0.341-0.052-0.489c-0.029-0.063-0.274-0.122-0.326-0.077
			c-0.382,0.346-0.669,0.187-0.907-0.155c-0.283-0.402-0.535-0.827-0.797-1.238c-0.164-0.256-0.317-0.519-0.501-0.754
			C298.521,200.566,298.361,200.573,298.245,200.542 M306.151,199.726c0,0.409-0.027,0.663,0.004,0.908
			c0.099,0.853-0.18,1.581-0.701,2.237c-0.077,0.097-0.18,0.175-0.243,0.283c-0.301,0.489-0.254,1.107,0.115,1.543
			c0.159,0.191,0.343,0.357,0.523,0.535c0.234,0.235,0.319,0.521,0.314,0.844c-0.004,0.251-0.013,0.501,0.009,0.748
			c0.058,0.667-0.13,1.222-0.678,1.635c-0.234,0.177-0.474,0.35-0.714,0.525c-0.321-0.389-1.038-0.027-1.231-0.656
			c-1.909-2.249-1.446-1.835-4.081-1.849c-0.24,0-0.505,0.045-0.712,0.155c-0.773,0.414-1.593,0.2-2.381,0.169
			c-0.231-0.014-0.503-0.351-0.643-0.602c-0.112-0.193-0.072-0.485-0.058-0.732c0.045-0.777-0.133-1.516-0.681-2.051
			c-0.604-0.586-0.582-1.325-0.348-1.898c0.301-0.743,0.27-1.46,0.256-2.188c-0.022-1.089,0.256-2.111,0.8-2.992
			c0.539-0.863,0.943-1.898,2.04-2.316c0.27-0.103,0.485-0.384,0.694-0.611c0.274-0.296,0.595-0.411,0.995-0.427
			c0.236-0.007,0.48-0.081,0.705-0.173c1.157-0.469,2.17-0.018,3.145,0.512c0.939,0.507,1.494,1.424,2.111,2.253
			c0.18,0.24,0.364,0.562,0.355,0.837C305.702,197.602,306.456,198.684,306.151,199.726"/>
		<path clip-path="url(#SVGID_2_)" fill="#009A93" d="M562.221,72.868c-1.356-0.712-1.785-2.215-2.76-3.252
			c-0.138-0.146-0.295-0.353-0.299-0.53c-0.019-1.756-0.009-3.513-0.009-5.267c0.961-1.667,0.866-3.813,2.385-5.222
			c0.404-1.159,1.292-1.813,2.377-2.269c0.278-0.119,0.574-0.25,0.804-0.44c2.601-2.129,5.401-1.328,8.157-0.499
			c0.634,0.188,1.101,0.898,1.662,1.343c1.604,1.262,2.48,2.949,2.968,4.894c0.325,1.292,0.35,4.211-0.061,5.471
			c-0.254,0.769-0.656,1.505-0.82,2.289c-0.373,1.788-1.368,2.902-3.143,3.367c-0.375,0.099-0.779,0.33-1.028,0.622
			c-1.438,1.68-2.578,3.574-2.106,5.854c0.256,1.255,0.94,2.498,1.709,3.546c0.613,0.838,0.694,1.646,0.771,2.576
			c0.104,1.19-0.44,1.965-1.334,2.597c-0.162,0.112-0.369,0.213-0.558,0.218c-1.172,0.031-2.529-1.15-2.497-2.25
			c0.026-0.91-0.09-1.813,0.32-2.731c0.604-1.352,0.311-2.843,0.228-4.27c-0.019-0.337-0.382-0.773-0.705-0.946
			c-0.71-0.379-1.357-0.975-2.246-0.914c-0.651,0.045-1.166-0.301-1.743-0.508c-1.029-0.364-1.505-0.973-1.479-2.057
			c0.01-0.402-0.121-0.809-0.186-1.213c0.289,0.011,0.584,0.052,0.866,0.011c0.133-0.021,0.245-0.202,0.366-0.31
			c-0.166-0.083-0.332-0.236-0.498-0.233C562.98,72.747,562.599,72.823,562.221,72.868"/>
		<path clip-path="url(#SVGID_2_)" fill="#009A93" d="M279.652,63.226c0.817-0.072,1.226-0.085,1.626-0.16
			c0.101-0.018,0.215-0.238,0.225-0.373c0.009-0.133-0.087-0.382-0.171-0.397c-0.84-0.142-1.527-0.377-1.844-1.336
			c-0.155-0.477-0.966-0.402-1.498,0.04c-0.467,0.387-0.467,0.782-0.072,1.258C278.484,62.934,279.148,63.329,279.652,63.226
			 M276.561,61.249c0-0.505-0.027-1.008,0.004-1.512c0.112-1.804,1.204-2.891,2.952-3.138c0.575-0.083,1.168-0.018,1.751-0.067
			c0.418-0.034,0.917-0.768,0.75-1.147c-0.699-1.624-0.431-3.183,0.022-4.836c0.721-2.624,2.592-4.029,4.905-4.89
			c1.231-0.458,2.691-0.396,3.859,0.406c1.168,0.797,2.19,1.784,2.938,3.03c0.995,1.657,1.361,3.347,0.633,5.227
			c-0.198,0.514-0.157,1.154-0.121,1.729c0.049,0.788-0.117,1.516-0.557,2.131c-0.728,1.018-1.438,2.013-1.673,3.288
			c-0.095,0.499-0.685,0.719-1.197,0.488c-0.397-0.178-0.802-0.414-1.19-0.245c-1.916,0.833-3.729,0.391-5.539-0.341
			c-0.646-0.267-1.143-0.119-1.393,0.546c-0.489,1.292-1.293,2.315-2.304,3.216c-0.885,0.791-1.768,0.782-2.644-0.049
			c-0.245-0.229-0.476-0.474-0.717-0.708c-0.314-0.306-0.494-0.661-0.48-1.114C276.575,62.592,276.561,61.92,276.561,61.249"/>
		<path clip-path="url(#SVGID_2_)" fill="#009A93" d="M507.825,100.167c-0.247-0.319-0.631-0.898-0.683-0.871
			c-0.952,0.528-1.913,1.184-2.089,2.309c-0.069,0.447,0.497,1.047,0.867,1.499c0.292,0.361,1.218-0.025,1.406-0.629
			C507.554,101.75,507.655,100.989,507.825,100.167 M530.448,106.532c-0.266,1.035-0.44,1.932-0.724,2.798
			c-0.887,2.747-1.604,5.462-3.737,7.745c-1.954,2.098-3.212,4.845-4.784,7.295c-0.42,0.661-0.93,0.694-1.491,0.092
			c-0.53-0.564-1.37-1.121-1.46-1.763c-0.323-2.349-1.887-2.951-3.85-3.176c-0.311-0.034-0.629-0.002-0.93-0.065
			c-1.235-0.267-1.948-1.042-2.004-2.206c-0.031-0.622-0.036-1.251,0.029-1.869c0.211-2.096-0.676-3.228-2.801-3.461
			c-0.337-0.039-0.791-0.505-0.89-0.858c-0.157-0.582-0.133-1.24-0.076-1.853c0.094-1.029-0.297-1.799-1.042-2.46
			c-0.468-0.411-0.829-0.97-1.341-1.298c-1.66-1.051-1.104-3.158-2.197-4.468c-0.078-0.092-0.085-0.388-0.011-0.449
			c1.545-1.255,1.505-3.813,3.737-4.517c1.17-0.366,2.358-0.732,3.45-1.271c0.728-0.359,1.132-0.142,1.54,0.357
			c0.879,1.067,1.968,1.911,2.633,3.223c0.804,1.579,2.331,1.929,3.993,1.273c0.858-0.346,1.662-0.822,2.496-1.233
			c1.192-0.591,2.355-0.445,3.582-0.002c1.855,0.658,3.297,1.918,4.25,3.481C529.671,103.244,529.94,104.989,530.448,106.532"/>
		<path clip-path="url(#SVGID_2_)" fill="#009A93" d="M470.114,266.85c-0.052,1.139-0.081,1.932-0.355,2.756
			c-0.273,0.831-0.107,1.808-0.125,2.725c-0.014,0.674-0.055,0.734-0.805,1c-0.62,0.22-0.831,0.543-0.691,1.046
			c0.045,0.157,0.148,0.299,0.197,0.454c0.373,1.159,0.278,1.465-0.734,2.004c-0.563,0.298-1.076,0.725-1.804,0.128
			c-0.719-0.593-1.657-0.728-2.599-0.625c-1.116,0.125-1.669-0.602-2.087-1.449c-0.249-0.505-0.484-1.081-0.508-1.633
			c-0.035-0.921-0.242-1.779-0.516-2.644c-0.1-0.312,0.031-0.658,0.436-0.762c0.078-0.022,0.166-0.031,0.249-0.036
			c0.669-0.022,1.095-0.384,1.249-1.009c0.169-0.669-0.236-1.083-0.738-1.446c-0.87-0.631-0.917-0.744-0.492-1.534
			c0.662-1.237,1.358-2.464,2.403-3.425c1.574-1.449,3.355-1.567,5.149-0.144c1.19,0.943,1.604,2.239,1.766,3.659
			C470.154,266.327,470.114,266.749,470.114,266.85"/>
		<path clip-path="url(#SVGID_2_)" fill="#009A93" d="M437.86,53.21c-0.278-2.289,0.56-4.324,2.278-6.107
			c0.835-0.87,1.41-1.993,2.131-2.979c0.389-0.532,1.013-0.917,1.595-0.611c0.777,0.411,1.273,0.424,1.997-0.168
			c1.354-1.112,1.393-1.029,2.336,0.155c0.574,0.726,1.208,1.402,1.828,2.089c1.064,1.179,1.729,2.536,1.889,4.124
			c0.029,0.308-0.052,0.651,0.052,0.925c0.48,1.292,1.329,2.617,0.759,3.971c-0.579,1.393-1.448,2.718-2.432,3.868
			c-1.193,1.397-2.379,2.868-4.145,3.666c-0.408,0.184-0.8,0.476-1.111,0.799c-0.457,0.481-0.838,1.036-1.249,1.559
			c-0.362-0.672-0.979-1.325-1.036-2.024c-0.204-2.5-2.025-3.746-3.755-4.991c-0.706-0.505-1.161-0.896-1.142-1.763
			C437.879,54.949,437.86,54.172,437.86,53.21"/>
		<path clip-path="url(#SVGID_2_)" fill="#009A93" d="M308.585,177.041c1.381,0.584,1.469,2.232,2.597,3.095
			c0.952,0.732,1.716,1.714,2.338,2.857c0.649,1.195,1.916,2.04,2.765,3.154c0.436,0.575,0.696,1.377,0.782,2.106
			c0.274,2.24,1.383,4.124,2.637,5.854c1.276,1.766,2.98,3.236,5.285,3.551c1.035,0.142,1.914,0.596,2.307,1.391
			c0.88,1.772,2.641,2.522,3.928,3.807c0.216,0.215,0.494,0.49,0.512,0.754c0.042,0.604-0.497,0.56-0.91,0.625
			c-2.044,0.333-3.657,1.628-5.462,2.484c-0.667,0.319-1.177,0.274-1.577-0.335c-0.342-0.514-0.53-1.166-0.957-1.574
			c-0.874-0.84-1.078-1.831-1.071-2.969c0.004-1.227-0.124-2.381-0.586-3.614c-0.777-2.078-2.439-2.733-4.191-3.268
			c-0.604-0.186-1.438,0.339-2.154,0.578c-0.68,0.225-1.309,0.157-1.417-0.611c-0.139-0.95-0.454-1.72-1.02-2.527
			c-1.712-2.425-2.848-5.098-2.772-8.167c0.014-0.62,0.144-1.395-0.159-1.839c-1.175-1.718-0.766-3.596-0.771-5.442L308.585,177.041
			z"/>
		<path clip-path="url(#SVGID_2_)" fill="#009A93" d="M457.77,210.902c-0.754-2.85,0.975-4.919,3.154-6.864
			c1.347-1.204,3.11-1.193,4.631-1.864c0.332-0.144,0.921,0.07,1.298,0.288c3.153,1.842,3.006,1.857,3.163,5.346
			c0.139,3.102-1.223,5.172-3.594,6.94c-1.361,1.015-2.534,2.264-4.124,2.965c-1.19,0.525-1.94,0.433-2.956-0.483
			c-0.947-0.851-1.74-1.75-1.59-3.183C457.851,213.124,457.77,212.181,457.77,210.902"/>
		<path clip-path="url(#SVGID_2_)" fill="#009A93" d="M373.169,291.197c-0.103,1.426-0.476,3.666-2.911,4.912
			c-0.369,0.187-0.699,0.602-0.863,0.988c-0.871,2.049-2.282,3.652-3.863,5.173c-1.101,1.061-1.421,2.747-2.783,3.663
			c-0.645,0.434-1.456,0.351-2.037-0.353c-0.885-1.073-0.997-2.825-0.193-3.861c0.382-0.491,0.845-0.927,1.307-1.343
			c0.744-0.664,1.051-1.449,1.074-2.464c0.039-1.776,0.782-3.313,2.111-4.487c1.339-1.18,2.003-2.707,2.507-4.342
			c0.175-0.56-0.301-1.426-0.822-1.453c-0.779-0.043-1.559-0.009-2.336-0.057c-1.177-0.072-1.431-0.523-1.502-1.848
			c-0.065-1.238,0.49-2.093,1.336-2.83c0.667-0.58,1.134-1.79,2.114-1.525c1.233,0.337,1.309,1.583,1.255,2.724
			c-0.022,0.465,0,0.935,0.013,1.404c0.018,0.771,0.517,1.056,1.195,1.121c0.31,0.027,0.624,0.009,0.934,0.022
			C372.662,286.782,373.183,287.323,373.169,291.197"/>
		<path clip-path="url(#SVGID_2_)" fill="#009A93" d="M432.883,150.304c0.113,0,0.311-0.05,0.354,0.007
			c0.707,1.008,1.414,2.015,2.068,3.052c0.148,0.238,0.128,0.608,0.109,0.914c-0.061,0.975-0.999,1.79-0.127,2.985
			c0.467,0.638,0.367,1.763,0.861,2.599c0.214,0.369,0.158,0.901,0.189,1.366c0.022,0.312,0.009,0.629-0.036,0.939
			c-0.054,0.346-3.409,4.586-3.697,4.573c-1.438-0.081-2.488,1.489-3.989,0.941c-1.594-0.582-1.482-2.204-1.987-3.455
			c-0.288-0.716-0.613-1.428-1.031-2.071c-0.512-0.784-0.325-1.413,0.122-2.136c0.484-0.788,0.811-1.671,1.262-2.479
			c0.297-0.532,0.582-1.28,1.059-1.471c2.394-0.948,3.609-2.745,4.146-5.157C432.238,150.669,432.637,150.508,432.883,150.304"/>
		<path clip-path="url(#SVGID_2_)" fill="#009A93" d="M375.047,273.752c0-0.73-0.021-1.354,0.004-1.979
			c0.067-2.001,0.876-3.54,2.771-4.396c0.283-0.126,0.537-0.389,0.822-0.416c0.728-0.067,1.231-1.049,2.109-0.485
			c0.649,0.411,1.494,0.638,1.957,1.193c0.988,1.188,1.648,2.522,1.786,4.18c0.15,1.831-0.91,3.25-1.305,4.874
			c-0.22,0.892-1.37,1.676-2.262,2.244c-0.743,0.472-1.759,0.819-2.599,0.728c-0.638-0.07-1.164-0.961-1.786-1.419
			C374.926,277.087,374.901,275.396,375.047,273.752"/>
		<path clip-path="url(#SVGID_2_)" fill="#009A93" d="M383.288,159.777c-0.117-0.988,0.364-1.851,1.132-2.72
			c1.372-1.557,3.12-2.426,4.943-3.282c0.854-0.4,1.779-0.546,2.554-0.934c0.721-0.362,1.094-1.381,1.669-2.071
			c0.424-0.51,1.042-0.709,1.671-0.53c0.4,0.112,0.959,0.373,1.062,0.696c0.505,1.554-0.002,3.003-1.147,3.667
			c-3.095,1.797-3.208,1.932-4.416,5.088c-0.108,0.285-0.281,0.545-0.389,0.831c-0.467,1.244-1.107,2.192-2.69,1.954
			c-0.416-0.062-0.883,0.162-1.321,0.283c-2.103,0.591-2.954,0.072-3.066-1.878C383.272,160.573,383.288,160.263,383.288,159.777"/>
		<path clip-path="url(#SVGID_2_)" fill="#009A93" d="M557.475,248.401c-0.168,0.417-0.222,0.957-0.522,1.222
			c-1.829,1.61-4.338,1.227-6.429,2.096c-0.791-0.454-1.702-0.791-2.32-1.415c-0.299-0.296-0.164-1.172-0.009-1.729
			c0.19-0.694,0.75-1.175,0.399-2.109c-0.645-1.725-0.517-1.761,0.798-2.161c0.579-0.177,1.137-0.462,1.725-0.582
			c0.416-0.085,0.919-0.087,1.296,0.072c1.273,0.548,2.545,1.107,3.74,1.797C557.167,246.179,557.652,247.141,557.475,248.401"/>
		<path clip-path="url(#SVGID_2_)" fill="#009A93" d="M349.808,217.767c0.321,1.682-0.613,3.021-1.22,4.404
			c-0.225,0.501-0.791,0.955-1.307,1.173c-0.211,0.092-0.692-0.526-1.083-0.771c-0.643-0.409-1.316-0.768-1.965-1.166
			c-1.997-1.222-2.468-3.093-1.997-5.213c0.193-0.862,0.728-1.685,1.251-2.419c0.202-0.279,0.91-0.474,1.233-0.339
			c1.545,0.645,3.113,1.305,4.503,2.217C349.684,215.956,349.628,217.037,349.808,217.767"/>
		<path clip-path="url(#SVGID_2_)" fill="#009A93" d="M333.692,193.035c-0.371,2.075-1.332,3.337-3.064,4.007
			c-0.759,0.296-1.585,0.105-1.988-0.591c-0.748-1.31-0.766-2.992-2.078-4.032c-0.184-0.148-0.31-0.698-0.198-0.831
			c1.105-1.289,0.458-3.025,1.19-4.402c0.582-1.099,2.015-1.321,2.678-0.306c1.001,1.534,1.945,3.111,2.87,4.696
			C333.402,192.092,333.558,192.691,333.692,193.035"/>
		<path clip-path="url(#SVGID_2_)" fill="#009A93" d="M373.239,155.977c-0.362,2.156-1.233,3.913-2.922,5.191
			c-0.18,0.132-0.597,0.139-0.797,0.022c-0.393-0.234-0.757-0.56-1.051-0.91c-1.224-1.478-2.684-2.527-4.611-2.882
			c-0.238-0.045-0.49-0.416-0.58-0.685c-0.049-0.155,0.168-0.492,0.355-0.611c0.382-0.251,0.809-0.458,1.244-0.611
			c1.258-0.452,2.812-0.425,3.252-2.125c1.871-1.361,3.481-1.069,4.596,0.912C373.017,154.798,373.084,155.44,373.239,155.977"/>
		<path clip-path="url(#SVGID_2_)" fill="#009A93" d="M506.604,177.813c0-0.615,0.07-1.247-0.014-1.849
			c-0.237-1.626,0.409-2.999,1.178-4.331c0.776-1.332,2.066-1.545,3.007-0.399c1.059,1.28,1.966,2.688,2.9,4.07
			c0.062,0.09-0.176,0.559-0.324,0.584c-0.889,0.152-1.623,0.182-2.201,1.237c-0.862,1.579-2.16,2.925-3.292,4.351
			c-0.057,0.074-0.317,0.056-0.442-0.004c-0.254-0.119-0.665-0.274-0.69-0.449c-0.116-1.062-0.146-2.14-0.202-3.205
			C506.548,177.813,506.574,177.813,506.604,177.813"/>
		<path clip-path="url(#SVGID_2_)" fill="#009A93" d="M350.85,182.472c0.388,0.207,0.937,0.463,1.444,0.779
			c2.208,1.366,2.727,4.438,1.044,6.247c-0.626,0.671-1.316,1.289-1.997,1.911c-0.411,0.373-1.242,0.238-1.648-0.208
			c-1.415-1.552-1.968-3.385-1.869-5.465c0.077-1.622,1.334-2.316,2.39-3.171C350.313,182.483,350.506,182.517,350.85,182.472"/>
		<path clip-path="url(#SVGID_2_)" fill="#009A93" d="M391.978,225.65c0-0.463,0.009-0.923-0.002-1.388
			c-0.025-1.04,0.555-1.738,1.372-2.239c0.647-0.4,1.343-0.737,2.049-1.011c0.227-0.083,0.694,0.018,0.826,0.198
			c1.907,2.628,1.992,5.795-0.209,7.392c-0.829,0.602-1.644,0.932-2.54,0.568c-0.876-0.357-1.485-1.081-1.498-2.134
			c-0.005-0.458-0.002-0.923-0.002-1.386H391.978z"/>
		<path clip-path="url(#SVGID_2_)" fill="#009A93" d="M502.828,272.202c-0.038,0.112-0.099,0.795-0.46,1.215
			c-0.803,0.928-1.717,1.774-2.674,2.545c-0.256,0.211-0.97,0.204-1.23-0.002c-0.71-0.57-1.422-1.224-1.887-1.988
			c-0.817-1.354-0.256-3.297,1.052-4.045c0.66-0.38,1.352-0.723,2.065-0.995c1.344-0.517,2.916,0.427,3.127,1.851
			C502.866,271.082,502.828,271.396,502.828,272.202"/>
		<path clip-path="url(#SVGID_2_)" fill="#009A93" d="M560.15,45.677c-0.845-0.366-1.64-0.842-2.484-1.208
			c-0.411-0.171-0.89-0.185-1.177-0.238c-0.323,0.047-0.479,0.047-0.62,0.099c-1.15,0.387-2.39-0.09-3.122-1.17
			c-0.346-0.505-0.8-0.948-1.123-1.469c-0.326-0.515,0.04-1.725,0.579-2.035c0.535-0.303,1.074-0.663,1.658-0.8
			c0.359-0.083,1.062,0.083,1.175,0.328c0.465,1.031,1.078,1.786,2.141,2.295c1.554,0.75,2.663,2.058,3.6,3.488"/>
		<path clip-path="url(#SVGID_2_)" fill="#009A93" d="M521.639,215.857c0,1.521,0.032,2.141-0.007,2.758
			c-0.078,1.285-1.165,2.242-2.459,2.208c-1.09-0.029-2.106-0.907-2.163-1.987c-0.065-1.233-0.185-2.5,0.047-3.688
			c0.122-0.624,0.85-1.417,1.46-1.599c0.8-0.238,1.764,0.021,2.64,0.157c0.175,0.029,0.368,0.479,0.397,0.75
			C521.644,215.22,521.647,215.99,521.639,215.857"/>
		<path clip-path="url(#SVGID_2_)" fill="#009A93" d="M494.727,254.321c0.022-0.124-0.005-0.31,0.072-0.366
			c2.549-2.015,5.235-3.793,8.333-4.867c0.862-0.299,1.733-0.584,2.609-0.854c0.11-0.029,0.297,0.072,0.399,0.164
			c0.077,0.07,0.145,0.256,0.106,0.33c-0.151,0.272-0.29,0.595-0.528,0.759c-2.626,1.829-4.907,4.304-8.479,4.362
			c-0.722,0.009-1.429,0.51-2.154,0.75C495.005,254.627,494.848,254.42,494.727,254.321"/>
		<path clip-path="url(#SVGID_2_)" fill="#009A93" d="M394.781,296.729c0,2.367-1.125,3.326-3.562,2.96
			c-0.369-0.051-0.876-0.442-0.975-0.777c-0.472-1.624,0.148-3.09,1.11-4.319c0.638-0.813,1.743-0.528,2.632-0.311
			c0.692,0.173,0.777,0.874,0.795,1.512C394.79,296.105,394.781,296.419,394.781,296.729"/>
		<path clip-path="url(#SVGID_2_)" fill="#009A93" d="M396.483,211.006c-0.162-0.723,0.865-1.671,1.896-2.628
			c0.476-0.445,1.067-0.829,1.608-0.391c0.552,0.447,1.21,1.109,1.285,1.743c0.229,1.912-1.698,4.108-3.688,4.416
			c-0.211,0.031-0.625-0.238-0.683-0.442C396.73,213.126,396.699,212.508,396.483,211.006"/>
		<path clip-path="url(#SVGID_2_)" fill="#009A93" d="M376.893,177.259c0.126,1.63-0.348,2.398-1.213,2.888
			c-0.88,0.494-1.801,0.449-2.551-0.263c-0.274-0.265-0.562-0.782-0.485-1.098c0.256-1.02,0.611-2.031,1.051-2.987
			c0.512-1.116,1.958-1.173,2.628-0.085C376.705,176.331,376.839,177.102,376.893,177.259"/>
		<path clip-path="url(#SVGID_2_)" fill="#009A93" d="M546.13,124.125c-0.299-0.173-0.979-0.472-1.531-0.928
			c-0.487-0.397-0.651-0.993-0.312-1.624c0.285-0.537,0.515-1.107,0.833-1.62c0.33-0.542,1.505-0.784,2.075-0.442
			c0.387,0.231,0.815,0.48,1.074,0.833c0.397,0.544,1.339,0.811,0.918,1.831C548.524,123.777,548.035,124.186,546.13,124.125"/>
		<path clip-path="url(#SVGID_2_)" fill="#009A93" d="M431.012,295.101c0.146,0.099,0.838,0.337,1.014,0.775
			c0.193,0.487,0.094,1.289-0.211,1.725c-0.515,0.748-1.218,1.433-1.986,1.911c-0.434,0.27-1.312,0.286-1.709,0.017
			c-0.377-0.257-0.563-1.067-0.506-1.602c0.059-0.568,0.594-1.071,0.76-1.651C428.71,295.088,429.608,295.049,431.012,295.101"/>
		<path clip-path="url(#SVGID_2_)" fill="#009A93" d="M547.035,38.602c-0.384-0.018-0.864,0.02-1.318-0.077
			c-0.813-0.173-1.604-1.177-1.698-2.012c-0.121-1.076,0.407-1.831,1.265-2.3c0.316-0.177,0.941-0.125,1.26,0.083
			c1.247,0.807,1.555,2.224,1.993,3.518c0.051,0.16-0.268,0.55-0.497,0.674C547.783,38.622,547.429,38.568,547.035,38.602"/>
		<path clip-path="url(#SVGID_2_)" fill="#009A93" d="M396.18,249.183c0.29,0.427,0.862,0.943,0.986,1.552
			c0.104,0.51-0.35,1.114-0.505,1.696c-0.271,1.018-0.716,1.388-1.498,1.314c-0.867-0.083-1.945-0.835-2.098-1.502
			c-0.034-0.142-0.054-0.312-0.014-0.449c0.373-1.249,1.325-1.975,2.381-2.597C395.544,249.128,395.733,249.183,396.18,249.183"/>
		<path clip-path="url(#SVGID_2_)" fill="#009A93" d="M536.699,235.497c-0.231,0.391-0.591,1.21-1.142,1.882
			c-0.456,0.557-1.143,0.388-1.64-0.054c-0.429-0.384-0.94-0.795-0.479-1.522c0.404-0.641,0.661-1.388,1.114-1.983
			c0.236-0.31,0.746-0.476,1.159-0.573c0.525-0.124,0.957,0.485,0.983,1.296C536.703,234.695,536.699,234.853,536.699,235.497"/>
		<path clip-path="url(#SVGID_2_)" fill="#009A93" d="M428.49,330.067c-0.072,0.209-0.178,0.809-0.473,1.297
			c-0.287,0.489-1.36,0.489-2.077,0.114c-0.759-0.402-1.013-1.031-0.708-1.768c0.057-0.142,0.167-0.259,0.228-0.394
			c0.591-1.293,0.933-1.531,1.909-1.329C428.133,328.149,428.443,328.621,428.49,330.067"/>
		<path clip-path="url(#SVGID_2_)" fill="#009A93" d="M279.843,170.39c-0.618-0.409-1.152-0.072-1.696,0.225
			c-0.135,0.074-0.31,0.198-0.422,0.164c-0.112-0.041-0.207-0.238-0.247-0.382c-0.454-1.68,0.002-2.983,1.049-3.028
			c1.373-0.065,2.215,0.66,2.518,2.154C281.204,170.312,280.829,170.588,279.843,170.39"/>
		<path clip-path="url(#SVGID_2_)" fill="#009A93" d="M477.45,35.792c0.408,0.043,0.754-0.004,1.01,0.133
			c0.234,0.121,0.571,0.523,0.513,0.651c-0.409,0.945-0.894,1.855-1.388,2.762c-0.041,0.07-0.302,0.054-0.447,0.022
			c-1.184-0.215-2.096-1.803-1.606-2.839c0.122-0.251,0.385-0.525,0.639-0.597C476.605,35.799,477.084,35.821,477.45,35.792"/>
		<path clip-path="url(#SVGID_2_)" fill="#009A93" d="M466.968,154.52c-0.169,0.386-0.402,1.107-0.78,1.738
			c-0.229,0.384-0.705,0.577-1.143,0.16c-1.368-1.31-1.197-2.806,0.434-3.843c0.517-0.33,1.332,0.047,1.399,0.656
			C466.909,153.536,466.92,153.848,466.968,154.52"/>
		<path clip-path="url(#SVGID_2_)" fill="#009A93" d="M373.798,124.937c-0.155-0.216-0.638-0.606-0.575-0.849
			c0.368-1.359,1.244-2.327,2.648-2.684c0.193-0.049,0.618,0.205,0.699,0.409C377.239,123.523,375.932,125.096,373.798,124.937"/>
		<path clip-path="url(#SVGID_2_)" fill="#009A93" d="M362.821,220.511c0.079-0.263,0.164-0.887,0.456-1.393
			c0.198-0.35,0.647-0.651,1.042-0.772c0.42-0.126,1.373,1.296,1.19,1.765c-0.276,0.708-0.588,1.408-0.959,2.071
			c-0.119,0.207-0.472,0.339-0.743,0.398c-0.611,0.125-0.779-0.344-0.883-0.795C362.857,221.486,362.869,221.167,362.821,220.511"/>
		<path clip-path="url(#SVGID_2_)" fill="#009A93" d="M447.265,34.806c0.011-0.077,0.052-0.696,0.231-1.271
			c0.057-0.187,0.472-0.373,0.717-0.366c0.249,0.011,0.695,0.247,0.703,0.4c0.045,0.907,0.074,1.835-0.072,2.725
			c-0.09,0.582-0.477,1.121-0.75,1.664c-0.067,0.128-0.227,0.209-0.344,0.31c-0.16-0.2-0.447-0.391-0.463-0.602
			C447.23,36.895,447.265,36.115,447.265,34.806"/>
		<path clip-path="url(#SVGID_2_)" fill="#009A93" d="M377.773,163.465c0.202,0.225,0.62,0.472,0.71,0.815
			c0.319,1.186-0.261,2.055-1.258,2.615c-0.364,0.204-0.917,0.24-1.148-0.294C375.471,165.19,376.17,163.791,377.773,163.465"/>
		<path clip-path="url(#SVGID_2_)" fill="#009A93" d="M352.496,307.269c0.045-0.221,0.11-0.815,0.314-1.361
			c0.07-0.189,0.485-0.357,0.73-0.342c0.245,0.012,0.618,0.218,0.688,0.422c0.321,0.917,0.193,1.784-0.575,2.46
			c-0.218,0.19-0.505,0.308-0.761,0.454c-0.119-0.268-0.256-0.53-0.351-0.805C352.492,307.958,352.519,307.794,352.496,307.269"/>
		<path clip-path="url(#SVGID_2_)" fill="#009A93" d="M306.259,32.863c0.056-0.31,0.067-0.775,0.238-1.175
			c0.085-0.218,0.427-0.371,0.685-0.452c0.591-0.191,0.847,0.292,0.946,0.69c0.251,0.963-0.088,1.779-0.88,2.387
			c-0.117,0.088-0.344,0.213-0.4,0.173c-0.198-0.16-0.416-0.359-0.497-0.589C306.254,33.625,306.29,33.301,306.259,32.863"/>
		<path clip-path="url(#SVGID_2_)" fill="#009A93" d="M551.539,50.848c-0.359,0.517-0.571,0.927-0.883,1.237
			c-0.169,0.168-0.606,0.314-0.748,0.22c-0.364-0.254-0.784-0.6-0.903-0.995c-0.139-0.472,0.981-1.375,1.608-1.26
			C550.945,50.115,551.208,50.546,551.539,50.848"/>
		<path clip-path="url(#SVGID_2_)" fill="#009A93" d="M512.151,247.084c-0.166-0.18-0.51-0.442-0.472-0.523
			c0.321-0.689,0.674-1.368,1.109-1.983c0.097-0.137,0.566-0.043,0.854,0.006c0.131,0.021,0.302,0.18,0.333,0.306
			C514.195,245.856,513.248,246.983,512.151,247.084"/>
		<path clip-path="url(#SVGID_2_)" fill="#009A93" d="M280.42,178.552c-0.279-0.11-0.562-0.218-0.84-0.326
			c0.115-0.256,0.185-0.548,0.355-0.761c0.193-0.234,0.476-0.555,0.719-0.55c0.397,0.004,0.795,0.238,1.19,0.377
			c-0.162,0.4-0.251,0.862-0.519,1.172C281.179,178.631,280.732,178.532,280.42,178.552"/>
		<path clip-path="url(#SVGID_2_)" fill="#009A93" d="M566.145,229.305c-0.273-0.088-0.55-0.178-0.824-0.265
			c0.144-0.344,0.243-0.728,0.458-1.013c0.162-0.213,0.517-0.454,0.732-0.411c0.373,0.065,0.935,0.292,0.993,0.543
			c0.071,0.319-0.229,0.795-0.494,1.076C566.856,229.39,566.441,229.291,566.145,229.305"/>
		<path clip-path="url(#SVGID_2_)" fill="#009A93" d="M422.196,207.138c0.114,0.034,0.261,0.027,0.337,0.101
			c0.436,0.418,0.344,1.734-0.254,2.062c-0.258,0.139-1.008-0.088-1.132-0.344C420.855,208.351,421.532,207.331,422.196,207.138"/>
		<path clip-path="url(#SVGID_2_)" fill="#009A93" d="M511.235,318.743c-0.404-0.472-0.75-0.717-0.854-1.037
			c-0.173-0.515,0.175-0.775,0.674-0.856c0.562-0.09,0.871,0.211,0.826,0.694C511.853,317.881,511.545,318.192,511.235,318.743"/>
		<path clip-path="url(#SVGID_2_)" fill="#009A93" d="M406.928,60.027c0.305,0.563,0.606,0.88,0.629,1.213
			c0.04,0.499-0.306,0.788-0.838,0.698c-0.49-0.076-0.847-0.359-0.672-0.872C406.157,60.744,406.505,60.505,406.928,60.027"/>
		<path clip-path="url(#SVGID_2_)" fill="#009A93" d="M491.667,256.504c-0.287-0.099-0.503-0.119-0.521-0.191
			c-0.05-0.207-0.102-0.48-0.005-0.64c0.137-0.225,0.4-0.388,0.625-0.555c0.103-0.072,0.354-0.135,0.356-0.125
			c0.104,0.24,0.321,0.562,0.236,0.729C492.204,256.044,491.874,256.284,491.667,256.504"/>
		<path clip-path="url(#SVGID_2_)" fill="#009A93" d="M496.359,152.877c-0.083-0.469-0.223-0.896-0.216-1.327
			c0.003-0.27,0.223-0.53,0.349-0.795c0.099,0.063,0.292,0.126,0.292,0.193c0.018,0.57,0.009,1.146-0.019,1.716
			C496.766,152.718,496.577,152.768,496.359,152.877"/>
		<path clip-path="url(#SVGID_2_)" fill="#009A93" d="M342.791,183.837c-0.011,0.112-0.213,0.27-0.348,0.29
			c-0.656,0.115-1.235-0.433-1.137-1.073c0.018-0.133,0.175-0.331,0.292-0.346C342.052,182.645,342.838,183.386,342.791,183.837"/>
		<path clip-path="url(#SVGID_2_)" fill="#009A93" d="M431.868,139.834c-0.202-0.229-0.513-0.465-0.474-0.559
			c0.137-0.346,0.344-0.705,0.631-0.935c0.117-0.099,0.494,0.099,0.738,0.193c0.029,0.014,0.025,0.261-0.037,0.339
			C432.463,139.197,432.171,139.502,431.868,139.834"/>
		<path clip-path="url(#SVGID_2_)" fill="#009A93" d="M268.814,175.816c0.265,0.238,0.636,0.47,0.824,0.8
			c0.094,0.162-0.157,0.519-0.251,0.789c-0.135-0.079-0.306-0.124-0.393-0.236c-0.25-0.335-0.47-0.694-0.703-1.042
			C268.421,176.048,268.547,175.974,268.814,175.816"/>
		<path clip-path="url(#SVGID_2_)" fill="#009A93" d="M487.278,139.716c-0.265,0.092-0.517,0.249-0.755,0.229
			c-0.144-0.011-0.267-0.296-0.399-0.46c0.238-0.09,0.485-0.261,0.71-0.238C486.995,139.26,487.128,139.542,487.278,139.716"/>
		<path clip-path="url(#SVGID_2_)" fill="#009A93" d="M446.818,84.289c-0.14-0.213-0.371-0.42-0.383-0.638
			c-0.009-0.16,0.274-0.334,0.432-0.501c0.088,0.117,0.268,0.251,0.25,0.348C447.061,83.766,446.926,84.024,446.818,84.289"/>
		<path clip-path="url(#SVGID_2_)" fill="#009A93" d="M485.68,146.829c-0.173,0.146-0.347,0.292-0.517,0.438
			c-0.095-0.247-0.266-0.505-0.243-0.75c0.012-0.153,0.304-0.285,0.472-0.429C485.486,146.337,485.585,146.582,485.68,146.829"/>
		<path clip-path="url(#SVGID_2_)" fill="#009A93" d="M426.109,190.145c0.128,0.236,0.353,0.476,0.348,0.708
			c-0.004,0.233-0.244,0.454-0.384,0.683c-0.124-0.238-0.347-0.48-0.342-0.714C425.736,190.591,425.975,190.369,426.109,190.145"/>
		<path clip-path="url(#SVGID_2_)" fill="#009A93" d="M434.491,202.424c0.157,0.2,0.423,0.395,0.411,0.568
			c-0.014,0.213-0.258,0.414-0.406,0.623c-0.104-0.117-0.306-0.247-0.292-0.346C434.249,202.992,434.384,202.727,434.491,202.424"/>
		<path clip-path="url(#SVGID_2_)" fill="#009A93" d="M319.055,519.104c0.029-0.692-0.375-1.292-1.134-1.676
			c-0.44-0.225-1.11,0.064-1.258,0.546c-0.018,0.062-0.081,0.132-0.063,0.18c0.27,0.835-0.268,1.467-0.537,2.167
			c-0.09,0.236-0.204,0.48-0.213,0.726c-0.009,0.157,0.13,0.351,0.256,0.474c0.328,0.328,0.636,0.261,1.011-0.014
			c0.364-0.27,0.642-0.137,0.705,0.219c0.077,0.444,0.117,0.896,0.216,1.334c0.036,0.175,0.166,0.341,0.283,0.482
			c0.077,0.095,0.238,0.221,0.312,0.191c0.155-0.057,0.296-0.188,0.406-0.319c0.077-0.092,0.14-0.235,0.13-0.353"/>
		<path clip-path="url(#SVGID_2_)" fill="#009A93" d="M276.985,528.868c0.074-0.434,0.168-0.865,0.213-1.303
			c0.022-0.245-0.002-0.515-0.081-0.746c-0.081-0.218-0.382-0.389-0.167-0.66c0.241-0.295,0.481-0.719,0.793-0.802
			c0.685-0.176,1.343-0.373,1.992-0.67c0.382-0.173,0.901-0.171,1.325-0.085c0.391,0.074,0.755,0.121,1.146,0.074
			c0.957-0.126,1.766,0.24,2.48,0.84c0.211,0.178,0.292,0.399,0.157,0.686c-0.135,0.289-0.2,0.61-0.333,0.902
			c-0.238,0.517-0.128,1.054,0.058,1.51c0.211,0.508,0.483,1.026,1.139,1.197c0.48,0.128,0.696,0.536,0.721,1.042
			c0.014,0.321,0.081,0.642,0.112,0.966c0.034,0.382-0.386,0.707-0.791,0.586c-0.429-0.126-0.845-0.323-1.28-0.434
			c-0.233-0.059-0.57-0.09-0.741,0.034c-0.566,0.399-1.137,0.546-1.819,0.393c-0.872-0.193-1.779-0.249-2.516-0.86
			c-0.449-0.37-0.917-0.721-1.406-1.042C277.401,530.107,277.082,529.596,276.985,528.868"/>
		<path clip-path="url(#SVGID_2_)" fill="#009A93" d="M588.17,195.241c0.043,0.29,0.038,0.427,0.081,0.546
			c0.361,1.06-0.371,1.685-0.946,2.365c-0.076,0.09-0.215,0.155-0.332,0.175c-0.508,0.083-1.021,0.22-1.532,0.2
			c-1.068-0.043-1.626-0.593-1.773-1.638c-0.063-0.445-0.079-0.9-0.167-1.343c-0.161-0.817,0.112-1.518,0.548-2.169
			c0.526-0.784,1.582-0.986,2.379-0.48c0.164,0.103,0.308,0.238,0.479,0.328C587.783,193.688,588.277,194.374,588.17,195.241"/>
		<path clip-path="url(#SVGID_2_)" fill="#009A93" d="M287.392,504.046c0.067,0.473,0.09,0.598,0.104,0.729
			c0.042,0.527-0.721,1.232-1.276,1.085c-0.382-0.102-0.746-0.183-1.132-0.128c-0.593,0.083-0.952-0.319-1.33-0.663
			c-0.083-0.076-0.182-0.256-0.148-0.33c0.263-0.548,0.09-1.135,0.18-1.691c0.058-0.38,0.354-0.683,0.795-0.748
			c1.04-0.152,1.907,0.229,2.567,0.995C287.378,503.557,287.383,504.011,287.392,504.046"/>
		<path clip-path="url(#SVGID_2_)" fill="#009A93" d="M594.796,156.476c0.088-0.517,0.117-1.098,0.301-1.626
			c0.088-0.251,0.461-0.413,0.721-0.595c0.095-0.07,0.24-0.124,0.355-0.108c0.979,0.13,1.604,1.429,1.069,2.235
			c-0.25,0.375-0.53,0.737-0.841,1.06c-0.099,0.105-0.382,0.168-0.498,0.104c-0.335-0.187-0.632-0.438-0.926-0.688
			C594.893,156.781,594.865,156.635,594.796,156.476"/>
		<path clip-path="url(#SVGID_2_)" fill="#009A93" d="M296.475,428.554c0.067,0.646-0.399,1.441-1.011,1.676
			c-0.323,0.123-0.615,0.011-0.898-0.178c-0.579-0.389-0.604-0.461-0.301-1.152c0.076-0.171,0.144-0.346,0.193-0.525
			c0.061-0.236,0.031-0.602,0.173-0.686c0.251-0.152,0.608-0.188,0.914-0.175C296.07,427.534,296.407,427.949,296.475,428.554"/>
		<path clip-path="url(#SVGID_2_)" fill="#009A93" d="M303.729,466.016c0,0.108,0.022,0.362-0.004,0.609
			c-0.045,0.399-0.539,0.783-0.963,0.779c-0.353-0.007-0.8-0.283-0.883-0.606c-0.105-0.425-0.252-0.869,0.054-1.28
			c0.254-0.349,0.422-0.831,0.97-0.793C303.316,464.751,303.635,465.239,303.729,466.016"/>
		<path clip-path="url(#SVGID_2_)" fill="#009A93" d="M299.35,532.5c0.593-0.063,0.903,0.173,1.105,0.51
			c0.162,0.276,0.175,0.622-0.027,0.909c-0.18,0.259-0.368,0.532-0.604,0.739c-0.317,0.28-0.699,0.27-1.06,0.045
			c-0.106-0.067-0.286-0.225-0.274-0.245c0.294-0.505-0.083-1.166,0.371-1.617C299.031,532.675,299.258,532.561,299.35,532.5"/>
		<path clip-path="url(#SVGID_2_)" fill="#009A93" d="M284.708,440.038c0.092,0.79-0.344,1.35-1.02,1.307
			c-0.503-0.031-0.752-0.406-0.586-0.887c0.085-0.24,0.157-0.49,0.276-0.712c0.168-0.312,0.456-0.437,0.811-0.407
			C284.494,439.366,284.654,439.575,284.708,440.038"/>
		<path clip-path="url(#SVGID_2_)" fill="#009A93" d="M281.368,381.966c-0.2,0.517-0.368,0.977-0.568,1.419
			c-0.024,0.052-0.245,0.059-0.353,0.021c-0.445-0.162-0.638-0.467-0.57-0.838c0.067-0.366,0.125-0.732,0.197-1.096
			c0.043-0.225,0.425-0.355,0.618-0.191C280.918,381.474,281.116,381.707,281.368,381.966"/>
		<path clip-path="url(#SVGID_2_)" fill="#009A93" d="M280.986,442.102c0.031,0.427-0.274,0.69-0.501,0.981
			c-0.11,0.14-0.267,0.321-0.458,0.14c-0.173-0.159-0.384-0.364-0.416-0.575c-0.027-0.222,0.162-0.465,0.202-0.712
			c0.049-0.306,0.229-0.456,0.503-0.44C280.59,441.516,280.97,441.899,280.986,442.102"/>
		<path clip-path="url(#SVGID_2_)" fill="#009A93" d="M284.732,393.331c-0.137,0.384-0.25,0.75-0.409,1.101
			c-0.067,0.152-0.186,0.372-0.422,0.247c-0.167-0.093-0.351-0.218-0.432-0.375c-0.139-0.274,0.175-1.182,0.454-1.351
			c0.085-0.052,0.26-0.022,0.359,0.032C284.449,393.075,284.588,393.214,284.732,393.331"/>
		<path clip-path="url(#SVGID_2_)" fill="#009A93" d="M286.76,486.094c0.155,0.361-0.236,0.928-0.645,0.93
			c-0.054,0-0.119-0.018-0.166-0.05c-0.222-0.157-0.292-0.59-0.139-0.833c0.144-0.227,0.568-0.319,0.822-0.171
			C286.684,485.997,286.718,486.053,286.76,486.094"/>
		<path clip-path="url(#SVGID_2_)" fill="#009A93" d="M283.681,396.184c-0.027-0.188-0.063-0.38-0.077-0.571
			c-0.004-0.054,0.041-0.121,0.081-0.168c0.021-0.022,0.11-0.021,0.121,0.002c0.225,0.371,0.467,0.734,0.658,1.123
			c0.119,0.243-0.146,0.629-0.339,0.532c-0.144-0.071-0.29-0.208-0.355-0.354C283.694,396.579,283.708,396.374,283.681,396.184"/>
		<path clip-path="url(#SVGID_2_)" fill="#009A93" d="M299.853,444.341c0.054,0.4,0.101,0.533,0.083,0.652
			c-0.016,0.092-0.11,0.17-0.171,0.253c-0.047-0.042-0.128-0.078-0.137-0.128c-0.104-0.559-0.22-1.101-0.593-1.561
			c-0.045-0.054,0.054-0.218,0.09-0.335c0.056,0.029,0.126,0.043,0.171,0.081c0.144,0.123,0.337,0.231,0.4,0.387
			C299.812,443.981,299.844,444.306,299.853,444.341"/>
		<path clip-path="url(#SVGID_2_)" fill="#009A93" d="M293.247,439.458c-0.004,0.057-0.002,0.183-0.022,0.306
			c-0.009,0.05-0.065,0.095-0.097,0.142c-0.049-0.045-0.125-0.083-0.135-0.135c-0.069-0.308-0.13-0.624-0.175-0.937
			c-0.009-0.05,0.058-0.112,0.09-0.169c0.081,0.052,0.218,0.086,0.24,0.155C293.205,439.003,293.211,439.2,293.247,439.458"/>
		<path clip-path="url(#SVGID_2_)" fill="#009A93" d="M298.429,471.014c-0.173,0.177-0.328,0.339-0.494,0.494
			c-0.002,0.004-0.112-0.074-0.13-0.126c-0.09-0.27,0.099-0.537,0.373-0.525C298.231,470.858,298.285,470.924,298.429,471.014"/>
		<path clip-path="url(#SVGID_2_)" fill="#009A93" d="M597.547,263.045c0.1,0.036,0.198,0.074,0.297,0.112
			c-0.142,0.185-0.283,0.369-0.425,0.553c-0.042-0.042-0.101-0.079-0.128-0.13C597.165,263.328,597.26,263.115,597.547,263.045"/>
		<path clip-path="url(#SVGID_2_)" fill="#009A93" d="M290.401,520.326c-0.059-0.067-0.117-0.138-0.175-0.207
			c0.112-0.033,0.225-0.085,0.337-0.097c0.045-0.004,0.099,0.076,0.148,0.117C290.608,520.202,290.505,520.266,290.401,520.326"/>
		<path clip-path="url(#SVGID_2_)" fill="#009A93" d="M288.142,529.988c-0.105,0.054-0.204,0.135-0.305,0.14
			c-0.065,0.004-0.135-0.104-0.202-0.159c0.094-0.055,0.188-0.14,0.288-0.146C287.989,529.82,288.065,529.928,288.142,529.988"/>
		<path clip-path="url(#SVGID_2_)" fill="#009A93" d="M308.33,462.795c-0.032,0.054-0.052,0.126-0.099,0.153
			c-0.141,0.078-0.271-0.164-0.193-0.369c0.016-0.042,0.081-0.067,0.121-0.099C308.217,462.586,308.273,462.689,308.33,462.795"/>
		<path clip-path="url(#SVGID_2_)" fill="#009A93" d="M480.718,347.015c0.043-0.191-0.074-0.353-0.271-0.346
			c-0.061,0.002-0.121,0.078-0.185,0.121c0.126,0.11,0.249,0.218,0.373,0.332C480.661,347.084,480.69,347.051,480.718,347.015
			 M484.749,336.61c0.032,0.007,0.306,0.067,0.58,0.119c0.276,0.055,0.557,0.164,0.829,0.142c0.685-0.056,1.269,0.342,1.934,0.391
			c0.258,0.017,0.55,0.202,0.736,0.397c0.404,0.423,0.888,0.703,1.401,0.959c0.112,0.055,0.193,0.188,0.274,0.293
			c0.593,0.75,1.013,1.578,1.267,2.506c0.086,0.299-0.031,0.594,0.124,0.908c0.137,0.275,0.052,0.645-0.133,0.956
			c-0.09,0.15-0.107,0.366-0.099,0.551c0.052,1.094-0.396,2.066-0.948,2.917c-0.557,0.858-1.284,1.658-2.398,1.907
			c-0.317,0.067-0.634,0.214-0.903,0.394c-0.404,0.27-0.714,0.615-0.646,1.182c0.083,0.695-0.135,1.433,0.263,2.093
			c-0.092,1.128,0.299,2.275-0.193,3.39c-0.105,0.244-0.026,0.563-0.052,0.849c-0.064,0.795,0.104,1.61-0.247,2.392
			c-0.126,0.283-0.049,0.665-0.026,0.996c0.049,0.729-0.328,1.369-0.409,2.072c-0.029,0.261-0.354,0.357-0.523,0.2
			c-0.389-0.354-0.743-0.728-0.957-1.229c-0.099-0.229-0.15-0.44-0.105-0.681c0.119-0.667,0.093-0.712-0.451-1.399
			c-0.236-0.301-0.2-0.629-0.09-0.94c0.061-0.167,0.227-0.309,0.368-0.432c0.316-0.266,0.442-0.582,0.438-1
			c-0.01-0.514-0.077-1.023,0.229-1.524c0.148-0.247,0.014-0.656,0.045-0.986c0.019-0.182,0.086-0.368,0.176-0.528
			c0.276-0.489,1.186-2.457,1.235-2.816c0.04-0.28,0.031-0.572-0.003-0.854c-0.013-0.109-0.146-0.278-0.24-0.289
			c-0.33-0.048-0.669-0.07-1.002-0.039c-0.885,0.086-1.675-0.215-2.448-0.581c-0.725-0.342-1.419-0.757-2.156-1.073
			c-0.462-0.203-0.759-0.562-1.089-0.896c-0.092-0.095-0.195-0.254-0.182-0.368c0.101-0.818-0.562-1.166-1.002-1.631
			c-0.364-0.38-0.836-0.577-1.384-0.641c-0.676-0.076-0.992-0.415-1.076-1.091c-0.038-0.295-0.085-0.551-0.312-0.764
			c-0.278-0.259-0.503-0.551-0.665-0.91c-0.342-0.75-0.301-1.04,0.348-1.608c0.11-0.097,0.245-0.137,0.317,0.045
			c0.107,0.261,0.222,0.519,0.301,0.791c0.256,0.878,0.746,1.65,1.294,2.343c0.431,0.548,1.143,0.855,1.859,0.921
			c0.703,0.064,1.41,0.045,2.098-0.252c0.266-0.116,0.546-0.18,0.688-0.44c0.229-0.413,0.445-0.842,0.355-1.345
			c-0.039-0.225-0.319-0.472-0.611-0.523c-0.229-0.043-0.474-0.036-0.696-0.102c-0.271-0.078-0.413-0.442-0.301-0.689
			c0.225-0.463,0.523-0.89,0.512-1.455c-0.002-0.185,0.204-0.427,0.382-0.553c0.266-0.19,0.615-0.261,0.878-0.449
			c0.302-0.218,0.67-0.427,0.699-0.855c0.042-0.577,0.543-0.587,0.9-0.753C484.085,336.548,484.305,336.61,484.749,336.61"/>
		<path clip-path="url(#SVGID_2_)" fill="#009A93" d="M256.416,489.708c0.099,0.069,0.27,0.125,0.285,0.211
			c0.072,0.377,0.054,0.779,0.4,1.047c0.553,0.424,0.418,1.03,0.431,1.599c0.014,0.451-0.361,0.653-0.566,0.966
			c-0.512,0.793-1.401,0.838-2.156,1.123c-0.633,0.242-1.132-0.337-0.952-1.103c0.049-0.228,0.018-0.347-0.099-0.49
			c-0.121-0.15-0.301-0.273-0.364-0.444c-0.054-0.146-0.013-0.355,0.052-0.506c0.029-0.066,0.285-0.128,0.334-0.08
			c0.4,0.361,0.699,0.192,0.943-0.16c0.292-0.415,0.553-0.855,0.827-1.282c0.171-0.263,0.323-0.537,0.521-0.779
			C256.131,489.729,256.299,489.739,256.416,489.708 M248.233,488.863c0,0.424,0.025,0.685-0.004,0.94
			c-0.108,0.883,0.184,1.636,0.723,2.316c0.079,0.099,0.185,0.182,0.252,0.292c0.31,0.505,0.265,1.147-0.117,1.597
			c-0.168,0.195-0.357,0.37-0.541,0.555c-0.245,0.242-0.335,0.539-0.326,0.874c0.004,0.261,0.013,0.519-0.009,0.774
			c-0.065,0.689,0.135,1.265,0.699,1.691c0.245,0.185,0.492,0.364,0.739,0.546c0.335-0.402,1.078-0.029,1.278-0.679
			c1.979-2.331,1.494-1.899,4.225-1.913c0.247,0,0.526,0.045,0.737,0.157c0.802,0.431,1.648,0.211,2.466,0.173
			c0.236-0.009,0.519-0.359,0.665-0.62c0.112-0.2,0.072-0.503,0.059-0.759c-0.045-0.807,0.139-1.57,0.705-2.12
			c0.625-0.609,0.602-1.375,0.359-1.966c-0.312-0.771-0.281-1.514-0.265-2.269c0.022-1.123-0.261-2.184-0.831-3.095
			c-0.555-0.892-0.975-1.966-2.107-2.399c-0.283-0.105-0.503-0.397-0.719-0.631c-0.285-0.308-0.62-0.429-1.029-0.44
			c-0.247-0.009-0.501-0.087-0.732-0.182c-1.195-0.487-2.246-0.019-3.255,0.53c-0.973,0.527-1.547,1.473-2.188,2.333
			c-0.184,0.25-0.377,0.58-0.366,0.867C248.696,486.662,247.915,487.782,248.233,488.863"/>
		<path clip-path="url(#SVGID_2_)" fill="#009A93" d="M451.498,277.685c-0.809-0.424-1.06-1.316-1.644-1.936
			c-0.081-0.085-0.175-0.209-0.175-0.314c-0.014-1.044-0.005-2.089-0.005-3.133c0.57-0.991,0.515-2.269,1.419-3.106
			c0.24-0.687,0.769-1.081,1.411-1.348c0.166-0.072,0.341-0.148,0.48-0.263c1.546-1.265,3.212-0.789,4.852-0.296
			c0.373,0.112,0.651,0.534,0.988,0.799c0.952,0.75,1.474,1.752,1.766,2.914c0.192,0.766,0.206,2.504-0.038,3.252
			c-0.15,0.456-0.389,0.896-0.485,1.361c-0.222,1.062-0.815,1.727-1.871,2.003c-0.222,0.058-0.462,0.195-0.613,0.371
			c-0.854,1-1.532,2.125-1.251,3.481c0.152,0.746,0.562,1.484,1.016,2.109c0.368,0.497,0.415,0.979,0.463,1.532
			c0.056,0.708-0.266,1.17-0.798,1.545c-0.095,0.067-0.218,0.126-0.328,0.128c-0.698,0.018-1.507-0.683-1.489-1.338
			c0.019-0.539-0.054-1.078,0.191-1.624c0.359-0.804,0.187-1.691,0.137-2.54c-0.014-0.2-0.229-0.461-0.422-0.562
			c-0.42-0.225-0.805-0.58-1.334-0.546c-0.387,0.029-0.694-0.178-1.038-0.301c-0.61-0.215-0.896-0.58-0.88-1.224
			c0.008-0.238-0.072-0.48-0.111-0.719c0.174,0.005,0.349,0.029,0.516,0.005c0.08-0.012,0.147-0.119,0.22-0.185
			c-0.099-0.047-0.198-0.139-0.297-0.137C451.952,277.615,451.723,277.658,451.498,277.685"/>
		<path clip-path="url(#SVGID_2_)" fill="#009A93" d="M312.653,278.303c0.532-0.047,0.797-0.056,1.058-0.104
			c0.065-0.013,0.14-0.155,0.144-0.242c0.009-0.085-0.056-0.247-0.108-0.259c-0.546-0.092-0.995-0.242-1.197-0.867
			c-0.104-0.308-0.626-0.261-0.975,0.027c-0.303,0.251-0.303,0.508-0.043,0.815C311.898,278.112,312.328,278.368,312.653,278.303
			 M310.649,277.02c0-0.328-0.016-0.656,0.002-0.981c0.074-1.17,0.782-1.875,1.914-2.035c0.375-0.054,0.759-0.014,1.139-0.045
			c0.272-0.022,0.596-0.499,0.488-0.746c-0.454-1.053-0.281-2.064,0.013-3.138c0.467-1.7,1.683-2.614,3.185-3.174
			c0.8-0.296,1.743-0.253,2.502,0.265c0.759,0.519,1.424,1.159,1.909,1.968c0.643,1.074,0.883,2.169,0.409,3.389
			c-0.13,0.337-0.101,0.75-0.078,1.123c0.033,0.512-0.077,0.984-0.364,1.384c-0.469,0.66-0.932,1.307-1.084,2.136
			c-0.059,0.321-0.44,0.463-0.777,0.314c-0.256-0.114-0.517-0.267-0.772-0.159c-1.242,0.541-2.417,0.254-3.589-0.223
			c-0.422-0.173-0.746-0.076-0.907,0.357c-0.314,0.835-0.838,1.5-1.494,2.084c-0.575,0.515-1.147,0.51-1.718-0.031
			c-0.157-0.15-0.308-0.306-0.463-0.458c-0.202-0.2-0.321-0.429-0.314-0.721C310.656,277.892,310.649,277.458,310.649,277.02"/>
		<path clip-path="url(#SVGID_2_)" fill="#009A93" d="M304.666,572.03c-0.101-0.285-0.267-0.602-0.31-0.937
			c-0.052-0.386-0.223-0.499-0.58-0.517c-0.241-0.016-0.474-0.128-0.717-0.161c-0.368-0.057-0.274,0.431-0.604,0.521
			c-0.353,0.097-0.312,0.487-0.15,0.755c0.173,0.29,0.233,0.525,0.004,0.817c-0.065,0.086-0.072,0.312-0.004,0.4
			c0.184,0.233,0.386,0.48,0.64,0.624c0.312,0.175,0.712,0.2,1-0.024C304.39,573.16,304.585,572.644,304.666,572.03
			 M299.768,572.428c-0.054-1.042,0.319-1.96,0.844-2.825c0.337-0.551,0.701-1.085,1.058-1.624c0.326-0.492,0.743-0.824,1.377-0.748
			c0.371-0.249,0.728-0.087,1.116-0.022c0.4,0.072,0.602,0.337,0.862,0.564c0.38,0.33,0.726,0.709,1.148,0.97
			c0.552,0.344,0.905,0.762,0.988,1.417c0.031,0.24,0.13,0.48,0.233,0.703c0.157,0.33,0.202,0.645-0.022,0.957
			c-0.283,0.391-0.319,0.833-0.301,1.294c0.009,0.256-0.018,0.51,0.013,0.761c0.065,0.587-0.188,1.076-0.458,1.557
			c-0.146,0.261-0.321,0.51-0.514,0.737c-0.083,0.099-0.241,0.175-0.377,0.19c-0.25,0.029-0.503,0.021-0.757,0.005
			c-0.616-0.036-1.195,0.045-1.739,0.37c-0.207,0.124-0.458,0.207-0.696,0.231c-0.458,0.052-0.833,0.041-1.105-0.519
			c-0.233-0.482-0.613-0.903-0.759-1.446c-0.047-0.187-0.099-0.44-0.238-0.528C299.646,573.964,299.758,573.185,299.768,572.428"/>
		<path clip-path="url(#SVGID_2_)" fill="#009A93" d="M464.746,521.678c-0.045,1.014-0.072,1.714-0.314,2.446
			c-0.243,0.736-0.097,1.605-0.112,2.417c-0.012,0.598-0.05,0.653-0.715,0.89c-0.548,0.195-0.738,0.482-0.612,0.93
			c0.038,0.137,0.132,0.265,0.175,0.402c0.335,1.028,0.245,1.3-0.653,1.778c-0.499,0.265-0.955,0.643-1.6,0.114
			c-0.638-0.529-1.471-0.646-2.309-0.555c-0.99,0.11-1.48-0.534-1.852-1.284c-0.225-0.452-0.431-0.959-0.449-1.449
			c-0.033-0.819-0.215-1.583-0.462-2.352c-0.085-0.276,0.031-0.584,0.391-0.676c0.071-0.019,0.146-0.024,0.22-0.029
			c0.596-0.021,0.971-0.342,1.109-0.896c0.148-0.595-0.211-0.959-0.655-1.282c-0.772-0.562-0.815-0.66-0.438-1.363
			c0.589-1.099,1.207-2.186,2.137-3.041c1.396-1.285,2.979-1.391,4.57-0.126c1.058,0.838,1.422,1.985,1.565,3.248
			C464.782,521.213,464.746,521.588,464.746,521.678"/>
		<path clip-path="url(#SVGID_2_)" fill="#009A93" d="M441.297,208.832c0.148-1.37-0.242-3.09,0.606-4.748
			c0.33-0.638,0.059-1.583,0.077-2.392c0.033-1.606,0.066-3.216,0.143-4.825c0.008-0.128,0.319-0.321,0.499-0.341
			c0.18-0.018,0.517,0.124,0.542,0.245c0.118,0.552,0.177,1.118,0.213,1.685c0.107,1.61,0.714,3.36,1.581,4.734
			c1.239,1.954,2.282,3.967,1.913,6.422c-0.103,0.671-0.031,1.376,0.023,2.068c0.04,0.523,0.822,1.159,1.464,1.28
			c0.643,0.117,1.187-0.265,1.218-0.86c0.014-0.227-0.018-0.469,0.043-0.687c0.188-0.696-0.703-1.188-0.344-1.912
			c0.406-0.817,0.709-1.705,1.227-2.444c0.521-0.741,1.217-1.376,1.891-1.999c0.566-0.523,2.039-0.608,2.578-0.072
			c0.984,0.979,2.156,1.671,3.279,2.453c0.674,0.467,0.928,1.186,1.105,2.042c0.256,1.24,0.247,2.41-0.078,3.594
			c-0.209,0.764-0.326,1.709-0.841,2.188c-0.608,0.568-1.583,0.806-2.438,1.018c-0.364,0.09-0.829-0.276-1.261-0.402
			c-0.7-0.204-1.348-0.132-1.892,0.434c-0.341,0.362-0.507,0.728-0.299,1.224c0.108,0.258,0.598,0.638,0.104,0.813
			c-1.16,0.409-1.801,1.393-2.654,2.136c-0.721,0.631-1.256,1.338-1.197,2.372c0.004,0.11-0.323,0.312-0.508,0.333
			c-0.184,0.018-0.548-0.135-0.553-0.231c-0.125-2.255-0.645-4.528,0.261-6.751c0.108-0.272,0.13-0.726-0.024-0.932
			c-0.694-0.932-1.453-1.689-2.814-1.689c-1.213-0.002-2.52,0.584-3.661-0.333c-0.065-1.251-0.135-2.507-0.202-3.758
			C441.293,209.382,441.297,209.263,441.297,208.832"/>
		<path clip-path="url(#SVGID_2_)" fill="#009A93" d="M287.136,369.949h0.013c0-0.112-0.013-0.227,0.004-0.342
			c0.241-1.473-0.669-2.309-1.725-3.032c-0.553-0.382-1.503-0.085-2.094,0.591c-0.399,0.456-0.37,0.984,0.162,1.472
			c0.489,0.451,0.983,1.011,1.581,1.211c1.033,0.348-0.267,1.188,0.47,1.581c0.395,0.211,0.748,0.612,1.184,0.399
			c0.225-0.112,0.328-0.553,0.391-0.865C287.187,370.637,287.136,370.288,287.136,369.949 M285.208,356.854
			c0.097,0.05,0.263,0.076,0.281,0.146c0.271,1.001,1.424,1.064,1.916,1.792c0.442,0.646,0.728,1.401,1.123,2.087
			c0.507,0.873,1.015,1.756,1.604,2.573c0.445,0.613,0.424,1.265,0.48,1.954c0.072,0.865-1.101,1.44-0.373,2.538
			c0.411,0.622-0.375,1.42-0.768,2.064c-0.4,0.647-0.041,1.033,0.321,1.498c0.712,0.896,0.694,0.91,0.016,1.588
			c-0.407,0.407-0.795,0.838-1.24,1.197c-0.251,0.202-0.629,0.447-0.898,0.394c-1.327-0.254-2.311,0.954-3.632,0.776
			c-0.375-0.052-0.914,0.209-1.192,0.506c-0.971,1.033-1.9,1.011-3.025,0.235c-0.735-0.503-0.797-0.417-0.335-1.066
			c0.984-1.375,1.141-1.667,0.18-2.642c-0.892-0.905-0.642-2.177-1.388-3.062c-0.096-0.119-0.04-0.501,0.083-0.643
			c0.667-0.774,0.375-1.457-0.124-2.153c-0.056-0.079-0.039-0.221-0.047-0.333c-0.074-0.934-0.108-1.77,1.078-2.165
			c0.643-0.211,1.105-0.864,0.939-1.659c-0.09-0.428-0.568-0.96-0.434-1.213c0.31-0.584,0.797-1.254,1.373-1.48
			c1.469-0.58,2.239-1.925,3.43-2.787C284.737,356.884,284.995,356.899,285.208,356.854"/>
		<path clip-path="url(#SVGID_2_)" fill="#009A93" d="M412.289,281.088c-0.209-1.685,0.411-3.178,1.673-4.495
			c0.62-0.64,1.04-1.464,1.572-2.192c0.283-0.391,0.741-0.674,1.17-0.447c0.573,0.301,0.939,0.312,1.471-0.125
			c0.998-0.818,1.024-0.757,1.721,0.117c0.422,0.532,0.889,1.029,1.343,1.536c0.782,0.867,1.276,1.864,1.39,3.032
			c0.021,0.229-0.038,0.481,0.038,0.683c0.355,0.95,0.979,1.925,0.56,2.922c-0.429,1.022-1.067,1.999-1.791,2.844
			c-0.878,1.031-1.752,2.116-3.05,2.7c-0.301,0.135-0.588,0.348-0.818,0.588c-0.337,0.353-0.615,0.761-0.921,1.148
			c-0.265-0.494-0.719-0.977-0.759-1.492c-0.153-1.839-1.492-2.758-2.763-3.67c-0.519-0.373-0.858-0.661-0.84-1.3
			C412.3,282.368,412.289,281.795,412.289,281.088"/>
		<path clip-path="url(#SVGID_2_)" fill="#009A93" d="M346.838,336.038c-0.744-0.636,0.056-1.527-0.377-2.239
			c-0.35-0.58-0.802-1.209-0.847-1.84c-0.148-2.118-0.746-4.321,0.775-6.255c1.15-1.463,1.433-3.058,0.678-4.816
			c-0.225-0.521-0.308-1.104-0.46-1.659c-0.184-0.665-0.499-1.325-0.519-1.997c-0.021-0.648,0.377-1.31,0.382-1.965
			c0.006-1.361,0.353-2.698,0.047-4.088c-0.462-2.101,0.746-3.733,1.833-5.348c0.17-0.25,0.557-0.387,0.862-0.513
			c0.741-0.301,1.505-0.544,2.237-0.852c0.782-0.325,1.345-0.251,1.756,0.353c0.862,1.278,1.366,2.61,0.456,4.102
			c-0.479,0.789-0.953,1.579-1.381,2.39c-0.526,1.005-1.438,1.869-1.404,3.087c0.034,1.232-1.013,2.023-1.15,3.189
			c-0.128,1.113-0.321,2.239-0.647,3.312c-0.335,1.121-0.281,2.253-0.324,3.383c-0.024,0.672,0.321,1.444,0.101,2.017
			c-0.719,1.855-0.975,3.708-0.566,5.658c-1.001,1.182-0.507,2.934-1.552,4.104L346.838,336.038z"/>
		<path clip-path="url(#SVGID_2_)" fill="#009A93" d="M410.238,326.266c0-0.692-0.283-1.602,0.052-2.026
			c1.3-1.646,0.103-3.075-0.317-4.472c-0.254-0.854-0.164-1.386,0.085-2.179c0.458-1.491,1.182-2.977,0.872-4.632
			c-0.041-0.218-0.041-0.503,0.072-0.669c0.485-0.724,0.521-1.341,0.104-2.192c-0.463-0.94-0.31-1.954,0.507-2.841
			c0.683-0.739,1.15-1.672,1.784-2.467c0.656-0.817,0.431-2.293,1.875-2.518c0.793,0.876,0.263,1.952,0.452,2.918
			c0.085,0.436,0.373,0.838,0.418,1.275c0.117,1.125,0.492,2.379,0.144,3.362c-0.975,2.776-1.781,5.562-2.04,8.495
			c-1.103,1.104-0.175,2.704-0.961,3.905c-0.688,1.045-0.935,2.284-1.373,3.439c-0.124,0.316-0.303,0.631-0.326,0.95
			c-0.049,0.766-0.377,1.298-1.074,1.604c-0.103-0.539-0.207-1.074-0.299-1.61c-0.02-0.112-0.002-0.229-0.002-0.344H410.238z"/>
		<path clip-path="url(#SVGID_2_)" fill="#009A93" d="M346.74,336.059c0.665,0.882,0.112,1.963,0.512,2.927
			c0.339,0.819,0.465,1.727,0.442,2.682c-0.027,1.001,0.469,2.006,0.6,3.027c0.067,0.525-0.065,1.132-0.276,1.631
			c-0.647,1.527-0.633,3.135-0.472,4.698c0.162,1.595,0.705,3.163,2.06,4.21c0.606,0.469,1,1.082,0.959,1.735
			c-0.09,1.451,0.755,2.579,1.101,3.87c0.061,0.216,0.135,0.494,0.052,0.67c-0.198,0.399-0.523,0.173-0.811,0.062
			c-1.424-0.541-2.929-0.31-4.398-0.429c-0.539-0.041-0.849-0.254-0.88-0.793c-0.025-0.452,0.094-0.937-0.029-1.354
			c-0.245-0.858-0.011-1.563,0.411-2.284c0.454-0.782,0.795-1.565,0.955-2.521c0.27-1.61-0.546-2.639-1.467-3.625
			c-0.319-0.342-1.042-0.31-1.586-0.427c-0.517-0.105-0.894-0.38-0.678-0.907c0.261-0.658,0.344-1.265,0.278-1.988
			c-0.195-2.174,0.063-4.296,1.238-6.224c0.236-0.389,0.604-0.833,0.575-1.23c-0.112-1.527,0.837-2.572,1.514-3.751L346.74,336.059z
			"/>
		<path clip-path="url(#SVGID_2_)" fill="#009A93" d="M413.661,397.124c-0.557-2.096,0.717-3.62,2.323-5.051
			c0.99-0.885,2.286-0.879,3.405-1.373c0.243-0.105,0.678,0.052,0.955,0.214c2.321,1.354,2.215,1.365,2.329,3.933
			c0.104,2.282-0.898,3.808-2.645,5.105c-0.998,0.748-1.864,1.669-3.035,2.184c-0.876,0.386-1.426,0.318-2.176-0.354
			c-0.696-0.629-1.278-1.289-1.168-2.345C413.72,398.76,413.661,398.065,413.661,397.124"/>
		<path clip-path="url(#SVGID_2_)" fill="#009A93" d="M377.015,456.207c-0.077,1.049-0.351,2.698-2.143,3.616
			c-0.27,0.135-0.512,0.442-0.636,0.729c-0.64,1.504-1.678,2.686-2.841,3.805c-0.809,0.779-1.046,2.021-2.046,2.695
			c-0.474,0.318-1.071,0.258-1.498-0.259c-0.651-0.79-0.737-2.077-0.142-2.844c0.278-0.359,0.618-0.681,0.959-0.985
			c0.548-0.49,0.775-1.065,0.791-1.815c0.027-1.305,0.575-2.437,1.554-3.302c0.984-0.867,1.474-1.99,1.847-3.193
			c0.125-0.411-0.225-1.049-0.606-1.069c-0.575-0.034-1.146-0.005-1.721-0.043c-0.862-0.052-1.051-0.384-1.105-1.361
			c-0.049-0.907,0.359-1.538,0.984-2.079c0.489-0.427,0.835-1.316,1.554-1.121c0.907,0.245,0.966,1.163,0.925,2.004
			c-0.016,0.341-0.002,0.687,0.007,1.03c0.016,0.568,0.382,0.779,0.88,0.824c0.231,0.021,0.46,0.009,0.689,0.019
			C376.642,452.957,377.025,453.357,377.015,456.207"/>
		<path clip-path="url(#SVGID_2_)" fill="#009A93" d="M406.932,348.732c0.085,0,0.229-0.038,0.26,0.005
			c0.519,0.739,1.042,1.482,1.523,2.246c0.108,0.175,0.094,0.447,0.081,0.672c-0.045,0.719-0.737,1.318-0.094,2.196
			c0.343,0.47,0.271,1.301,0.633,1.914c0.157,0.27,0.117,0.662,0.139,1.006c0.014,0.227,0.009,0.458-0.027,0.688
			c-0.036,0.254-2.509,3.376-2.72,3.366c-1.058-0.061-1.835,1.094-2.936,0.692c-1.172-0.427-1.089-1.624-1.462-2.543
			c-0.214-0.525-0.452-1.051-0.759-1.522c-0.377-0.577-0.24-1.04,0.09-1.574c0.357-0.578,0.597-1.229,0.927-1.824
			c0.218-0.391,0.429-0.941,0.777-1.08c1.763-0.699,2.659-2.021,3.055-3.796C406.458,349.002,406.75,348.881,406.932,348.732"/>
		<path clip-path="url(#SVGID_2_)" fill="#009A93" d="M378.396,443.371c0-0.537-0.013-0.997,0.002-1.456
			c0.054-1.473,0.647-2.603,2.04-3.233c0.207-0.095,0.4-0.286,0.606-0.306c0.537-0.05,0.905-0.772,1.55-0.359
			c0.476,0.303,1.103,0.469,1.444,0.878c0.725,0.874,1.21,1.857,1.313,3.077c0.108,1.35-0.669,2.39-0.961,3.587
			c-0.162,0.656-1.009,1.233-1.667,1.651c-0.548,0.346-1.293,0.602-1.911,0.536c-0.469-0.054-0.856-0.71-1.314-1.044
			C378.308,445.826,378.29,444.582,378.396,443.371"/>
		<path clip-path="url(#SVGID_2_)" fill="#009A93" d="M388.746,346.522c-0.085-0.726,0.267-1.361,0.833-2.001
			c1.011-1.146,2.295-1.786,3.636-2.415c0.626-0.296,1.31-0.401,1.88-0.687c0.53-0.266,0.806-1.018,1.229-1.527
			c0.312-0.371,0.768-0.52,1.229-0.389c0.294,0.083,0.705,0.276,0.781,0.515c0.373,1.143-0.002,2.207-0.844,2.697
			c-2.278,1.325-2.358,1.424-3.248,3.744c-0.081,0.209-0.207,0.402-0.288,0.61c-0.344,0.919-0.813,1.615-1.979,1.438
			c-0.308-0.045-0.651,0.122-0.973,0.209c-1.545,0.434-2.172,0.054-2.255-1.381C388.734,347.108,388.746,346.88,388.746,346.522"/>
		<path clip-path="url(#SVGID_2_)" fill="#009A93" d="M487.027,424.718c-0.124,0.305-0.162,0.703-0.382,0.898
			c-1.348,1.186-3.194,0.902-4.732,1.54c-0.582-0.332-1.252-0.581-1.707-1.04c-0.221-0.218-0.119-0.862-0.007-1.273
			c0.139-0.51,0.552-0.864,0.294-1.552c-0.474-1.269-0.382-1.294,0.586-1.588c0.427-0.133,0.836-0.341,1.271-0.429
			c0.306-0.063,0.674-0.065,0.952,0.054c0.935,0.402,1.873,0.813,2.752,1.32C486.8,423.082,487.159,423.79,487.027,424.718"/>
		<path clip-path="url(#SVGID_2_)" fill="#009A93" d="M457.109,369.875c0.318,0.211,0.815,0.468,1.22,0.827
			c0.586,0.519,1.134,0.693,1.799,0.159c0.423-0.342,0.876-0.225,1.229,0.099c0.415,0.377,1.107,0.864,1.069,1.246
			c-0.083,0.85-0.377,1.845-1.23,2.253c-0.941,0.452-1.824,1.308-3.115,0.42c-0.66-0.453-1.734-0.103-2.57-0.66
			c-0.847-0.568-1.451-1.676-0.93-2.493c0.418-0.646,1.066-1.149,1.653-1.678C456.375,369.922,456.662,369.956,457.109,369.875"/>
		<path clip-path="url(#SVGID_2_)" fill="#009A93" d="M359.825,402.174c0.236,1.239-0.452,2.226-0.901,3.241
			c-0.162,0.368-0.579,0.705-0.957,0.864c-0.155,0.067-0.512-0.386-0.797-0.568c-0.474-0.301-0.97-0.565-1.449-0.857
			c-1.469-0.898-1.815-2.273-1.469-3.835c0.144-0.633,0.534-1.241,0.921-1.778c0.148-0.204,0.674-0.353,0.909-0.254
			c1.135,0.479,2.289,0.962,3.313,1.633C359.733,400.844,359.693,401.639,359.825,402.174"/>
		<path clip-path="url(#SVGID_2_)" fill="#009A93" d="M457.208,221.843c0-0.227,0.024-0.456-0.005-0.683
			c-0.098-0.779,0.27-1.32,0.881-1.72c0.562-0.375,1.195-0.658,1.698-1.089c0.454-0.38,0.776-0.386,1.107,0.054
			c0.815,1.089,1.633,2.174,2.398,3.295c0.361,0.526,0.029,1.285-0.636,1.633c-0.703,0.371-1.386,0.797-2.125,1.083
			c-0.51,0.193-1.096,0.254-1.648,0.26c-0.826,0.009-1.547-0.669-1.612-1.458c-0.04-0.454-0.009-0.917-0.009-1.375H457.208z"/>
		<path clip-path="url(#SVGID_2_)" fill="#009A93" d="M347.966,383.976c-0.271,1.527-0.979,2.457-2.253,2.949
			c-0.562,0.221-1.168,0.079-1.464-0.434c-0.552-0.963-0.562-2.203-1.527-2.967c-0.135-0.107-0.229-0.515-0.146-0.613
			c0.815-0.947,0.339-2.226,0.876-3.236c0.429-0.811,1.48-0.975,1.97-0.227c0.737,1.129,1.433,2.291,2.111,3.456
			C347.752,383.282,347.867,383.725,347.966,383.976"/>
		<path clip-path="url(#SVGID_2_)" fill="#009A93" d="M377.066,356.709c-0.263,1.588-0.905,2.879-2.149,3.817
			c-0.132,0.1-0.44,0.106-0.588,0.019c-0.288-0.173-0.557-0.413-0.772-0.669c-0.901-1.088-1.975-1.86-3.392-2.121
			c-0.175-0.035-0.359-0.308-0.427-0.507c-0.039-0.112,0.124-0.357,0.26-0.447c0.279-0.187,0.593-0.337,0.914-0.451
			c0.928-0.333,2.073-0.311,2.397-1.562c1.375-1.002,2.561-0.786,3.38,0.672C376.902,355.842,376.952,356.315,377.066,356.709"/>
		<path clip-path="url(#SVGID_2_)" fill="#009A93" d="M470.368,326.981c0-0.453,0.052-0.918-0.01-1.358
			c-0.177-1.199,0.302-2.208,0.867-3.188c0.57-0.981,1.521-1.139,2.213-0.294c0.779,0.941,1.446,1.977,2.134,2.994
			c0.045,0.064-0.131,0.411-0.238,0.429c-0.653,0.11-1.195,0.135-1.619,0.912c-0.636,1.161-1.588,2.149-2.424,3.2
			c-0.043,0.055-0.233,0.043-0.323-0.002c-0.188-0.09-0.492-0.202-0.508-0.332c-0.088-0.782-0.107-1.572-0.152-2.358
			C470.325,326.981,470.348,326.981,470.368,326.981"/>
		<path clip-path="url(#SVGID_2_)" fill="#009A93" d="M360.591,376.204c0.285,0.15,0.687,0.34,1.064,0.573
			c1.626,1.004,2.008,3.268,0.768,4.598c-0.463,0.494-0.97,0.948-1.471,1.403c-0.301,0.276-0.914,0.178-1.21-0.15
			c-1.042-1.143-1.447-2.49-1.377-4.022c0.056-1.194,0.979-1.705,1.759-2.336C360.196,376.211,360.339,376.238,360.591,376.204"/>
		<path clip-path="url(#SVGID_2_)" fill="#009A93" d="M419.874,360.215c1.399-0.144,2.026,0.869,2.64,1.828
			c0.158,0.245,0.163,0.712,0.047,0.993c-0.492,1.146-0.991,2.295-2.049,3.07c-0.409,0.294-0.822,0.389-1.226,0.029
			c-0.427-0.378-0.818-0.796-1.247-1.175c-0.771-0.681-1.146-1.389-0.389-2.348c0.182-0.233,0.085-0.667,0.187-0.988
			C418.158,360.595,418.724,360.217,419.874,360.215"/>
		<path clip-path="url(#SVGID_2_)" fill="#009A93" d="M439.291,245.061c-0.33,1.083-0.693,2.156-1.619,2.891
			c-0.202,0.162-0.689,0.177-0.926,0.041c-0.489-0.272-0.871-0.73-1.343-1.049c-2.026-1.35-2.046-1.383-1.024-3.42
			c0.676-1.354,0.651-1.253,2.273-0.881c0.983,0.225,1.621,0.782,2.223,1.46C439.087,244.335,439.145,244.704,439.291,245.061"/>
		<path clip-path="url(#SVGID_2_)" fill="#009A93" d="M390.854,407.976c0-0.34,0.007-0.679-0.002-1.021
			c-0.018-0.766,0.411-1.28,1.008-1.646c0.476-0.299,0.988-0.544,1.509-0.746c0.167-0.062,0.512,0.014,0.606,0.144
			c1.406,1.934,1.469,4.268-0.152,5.44c-0.609,0.444-1.208,0.688-1.869,0.415c-0.642-0.258-1.094-0.79-1.103-1.565
			c-0.002-0.339,0-0.681,0-1.021H390.854z"/>
		<path clip-path="url(#SVGID_2_)" fill="#009A93" d="M446.818,442.229c-0.027,0.084-0.074,0.589-0.342,0.896
			c-0.589,0.683-1.26,1.303-1.963,1.871c-0.193,0.157-0.719,0.152-0.91-0.002c-0.519-0.418-1.047-0.898-1.386-1.463
			c-0.603-0.994-0.188-2.426,0.772-2.976c0.488-0.278,0.995-0.534,1.519-0.734c0.991-0.38,2.147,0.319,2.305,1.365
			C446.845,441.408,446.818,441.637,446.818,442.229"/>
		<path clip-path="url(#SVGID_2_)" fill="#009A93" d="M432.959,327.826c0,0.463,0.045,0.928-0.011,1.382
			c-0.079,0.669-1.134,1.36-1.835,1.255c-0.961-0.147-2.134-1.354-2.242-2.309c-0.152-1.372,0.816-2.812,2.111-3.138
			c0.661-0.166,1.855,0.472,1.95,1.096c0.09,0.564,0.076,1.142,0.108,1.714H432.959z"/>
		<path clip-path="url(#SVGID_2_)" fill="#009A93" d="M386.08,213.05c0.243,0.148,0.555,0.283,0.791,0.497
			c0.835,0.754,1.588,1.507,2.853,1.675c0.932,0.124,1.343,1.325,1.004,2.188c-0.083,0.209-0.218,0.402-0.348,0.584
			c-0.303,0.432-0.301,1.083-1.06,1.166c-0.912,0.101-1.114-0.515-1.433-1.121c-0.409-0.779-0.817-1.507-1.72-1.956
			c-1.103-0.55-0.935-1.687-0.689-2.704C385.509,213.248,385.826,213.18,386.08,213.05"/>
		<path clip-path="url(#SVGID_2_)" fill="#009A93" d="M474.363,226.742c-0.835,0.041-1.06,0.061-1.284,0.061
			c-1.539,0.004-2.395-1.177-1.992-2.747c0.161-0.633,1.853-1.444,2.475-1.161c0.815,0.368,1.608,0.791,2.424,1.161
			c0.489,0.222,0.593,0.615,0.593,1.085c0,0.629-0.318,1.139-0.854,1.338C475.109,226.706,474.422,226.73,474.363,226.742"/>
		<path clip-path="url(#SVGID_2_)" fill="#009A93" d="M460.658,400.77c0,1.121,0.022,1.577-0.004,2.028
			c-0.059,0.945-0.859,1.653-1.811,1.626c-0.8-0.02-1.551-0.667-1.591-1.462c-0.05-0.905-0.135-1.84,0.034-2.711
			c0.09-0.463,0.622-1.045,1.076-1.182c0.588-0.171,1.295,0.018,1.939,0.119c0.129,0.021,0.27,0.351,0.295,0.551
			C460.662,400.3,460.662,400.868,460.658,400.77"/>
		<path clip-path="url(#SVGID_2_)" fill="#009A93" d="M440.854,429.072c0.016-0.09-0.003-0.227,0.056-0.27
			c1.873-1.482,3.85-2.792,6.128-3.58c0.638-0.22,1.278-0.429,1.925-0.627c0.078-0.024,0.215,0.052,0.292,0.119
			c0.056,0.052,0.108,0.188,0.079,0.243c-0.113,0.199-0.217,0.438-0.392,0.559c-1.932,1.346-3.609,3.167-6.239,3.21
			c-0.527,0.007-1.047,0.375-1.584,0.55C441.063,429.3,440.944,429.146,440.854,429.072"/>
		<path clip-path="url(#SVGID_2_)" fill="#009A93" d="M392.919,460.279c-0.002,1.743-0.829,2.448-2.621,2.177
			c-0.27-0.038-0.647-0.326-0.719-0.573c-0.351-1.192,0.107-2.271,0.817-3.176c0.467-0.598,1.282-0.389,1.936-0.227
			c0.51,0.126,0.573,0.643,0.584,1.109C392.923,459.821,392.919,460.05,392.919,460.279"/>
		<path clip-path="url(#SVGID_2_)" fill="#009A93" d="M394.17,397.198c-0.119-0.529,0.638-1.227,1.395-1.932
			c0.353-0.325,0.786-0.608,1.184-0.287c0.409,0.33,0.889,0.815,0.945,1.282c0.168,1.406-1.249,3.023-2.715,3.25
			c-0.155,0.022-0.456-0.177-0.503-0.327C394.352,398.76,394.329,398.306,394.17,397.198"/>
		<path clip-path="url(#SVGID_2_)" fill="#009A93" d="M463.385,244.998c-0.245,0.27-0.494,0.667-0.854,0.894
			c-0.229,0.146-0.717,0.175-0.921,0.029c-0.925-0.678-1.823-1.395-1.671-2.78c0.045-0.414-0.25-0.852-0.355-1.292
			c-0.116-0.481,0.229-0.519,0.573-0.535c0.112-0.004,0.229-0.011,0.344,0.007C462.028,241.573,462.951,243.572,463.385,244.998"/>
		<path clip-path="url(#SVGID_2_)" fill="#009A93" d="M393.721,240.62c0.835-0.087,1.15,0.427,1.471,1.087
			c0.577,1.197,0.622,1.166-0.447,1.738c-0.481,0.258-0.968,0.815-1.5,0.429c-0.618-0.445-1.105-1.081-1.597-1.669
			c-0.09-0.11,0-0.447,0.104-0.62C392.193,240.84,392.858,240.499,393.721,240.62"/>
		<path clip-path="url(#SVGID_2_)" fill="#009A93" d="M379.754,372.368c0.09,1.201-0.256,1.766-0.894,2.125
			c-0.647,0.363-1.321,0.332-1.878-0.195c-0.202-0.193-0.413-0.575-0.355-0.805c0.189-0.752,0.449-1.496,0.773-2.201
			c0.377-0.822,1.439-0.862,1.934-0.062C379.615,371.686,379.714,372.251,379.754,372.368"/>
		<path clip-path="url(#SVGID_2_)" fill="#009A93" d="M250.911,278.788c1.15-0.022,1.855-0.757,2.695-1.325
			c0.422-0.281,0.871-0.061,1.199,0.319c0.215,0.249,0.472,0.492,0.144,0.844c-1.379,1.494-2.435,2.031-4.105,2.069"/>
		<path clip-path="url(#SVGID_2_)" fill="#009A93" d="M407.249,459.08c0.105,0.074,0.617,0.247,0.746,0.57
			c0.141,0.357,0.069,0.948-0.155,1.271c-0.377,0.548-0.894,1.054-1.46,1.406c-0.321,0.195-0.966,0.211-1.26,0.009
			c-0.276-0.187-0.416-0.784-0.373-1.177c0.042-0.418,0.438-0.788,0.559-1.218C405.558,459.071,406.218,459.042,407.249,459.08"/>
		<path clip-path="url(#SVGID_2_)" fill="#009A93" d="M435.06,230.738c0.024-0.497,0.029-0.723,0.048-0.95
			c0.045-0.526,0.325-0.856,0.857-0.845c0.314,0.009,0.772,0.061,0.914,0.265c0.375,0.548,0.712,1.168,0.871,1.808
			c0.098,0.379-0.056,0.93-0.299,1.26c-0.232,0.319-0.736,0.642-1.091,0.611c-0.368-0.029-0.843-0.414-1.018-0.771
			C435.107,231.634,435.111,231.032,435.06,230.738"/>
		<path clip-path="url(#SVGID_2_)" fill="#009A93" d="M486.409,245.13c0.083-0.038,0.209-0.135,0.243-0.108
			c1.167,0.872,2.333,1.748,3.487,2.639c0.848,0.654,1.137,1.651,1.555,2.565c0.04,0.085,0.005,0.223-0.029,0.319
			c-0.121,0.314-0.287,0.323-0.523,0.083c-1.59-1.626-3.189-3.234-4.764-4.876C486.279,245.647,486.394,245.342,486.409,245.13"/>
		<path clip-path="url(#SVGID_2_)" fill="#009A93" d="M393.947,425.292c0.211,0.312,0.636,0.694,0.726,1.142
			c0.077,0.375-0.256,0.822-0.373,1.249c-0.202,0.748-0.526,1.021-1.101,0.966c-0.638-0.062-1.431-0.613-1.545-1.104
			c-0.027-0.107-0.041-0.231-0.007-0.332c0.272-0.919,0.973-1.453,1.75-1.914C393.48,425.252,393.617,425.292,393.947,425.292"/>
		<path clip-path="url(#SVGID_2_)" fill="#009A93" d="M371.188,251.053c-0.079-0.016,0.314-0.041,0.543,0.142
			c0.202,0.153,0.393,0.683,0.292,0.802c-0.489,0.593-1.026,1.182-1.657,1.608c-0.283,0.191-0.854,0.076-1.249-0.047
			s-0.517-1.029-0.256-1.496C369.281,251.316,369.899,250.917,371.188,251.053"/>
		<path clip-path="url(#SVGID_2_)" fill="#009A93" d="M471.74,415.221c-0.169,0.288-0.436,0.89-0.84,1.386
			c-0.333,0.411-0.84,0.285-1.204-0.04c-0.319-0.283-0.691-0.584-0.354-1.121c0.298-0.472,0.487-1.02,0.821-1.457
			c0.171-0.228,0.546-0.351,0.85-0.423c0.391-0.09,0.705,0.357,0.726,0.955C471.745,414.633,471.74,414.747,471.74,415.221"/>
		<path clip-path="url(#SVGID_2_)" fill="#009A93" d="M477.647,237.631c-0.092,0.063-0.195,0.188-0.278,0.18
			c-0.44-0.056-0.957-0.029-1.299-0.254c-0.563-0.368-1.026-0.9-1.516-1.379c-0.584-0.575-0.867-1.433-0.591-1.395
			c0.51,0.063,1.105,0.144,1.482,0.445c0.795,0.636,1.478,1.415,2.194,2.143C477.688,237.413,477.647,237.541,477.647,237.631"/>
		<path clip-path="url(#SVGID_2_)" fill="#009A93" d="M405.391,484.812c-0.051,0.154-0.13,0.593-0.343,0.954
			c-0.214,0.359-1.004,0.359-1.532,0.083c-0.557-0.297-0.746-0.757-0.519-1.303c0.04-0.104,0.121-0.188,0.166-0.29
			c0.436-0.95,0.688-1.127,1.406-0.977C405.131,483.398,405.357,483.746,405.391,484.812"/>
		<path clip-path="url(#SVGID_2_)" fill="#009A93" d="M308.343,367.312c-0.454-0.301-0.849-0.05-1.249,0.166
			c-0.101,0.056-0.229,0.146-0.312,0.119c-0.083-0.027-0.151-0.173-0.182-0.281c-0.333-1.232,0.002-2.191,0.772-2.226
			c1.006-0.047,1.631,0.485,1.855,1.586C309.345,367.256,309.066,367.458,308.343,367.312"/>
		<path clip-path="url(#SVGID_2_)" fill="#009A93" d="M441.418,268.271c0.301,0.032,0.557-0.002,0.746,0.097
			c0.17,0.09,0.418,0.387,0.377,0.481c-0.301,0.694-0.66,1.363-1.023,2.03c-0.027,0.054-0.221,0.041-0.328,0.02
			c-0.869-0.159-1.541-1.33-1.18-2.091c0.086-0.184,0.281-0.386,0.467-0.44C440.799,268.276,441.15,268.292,441.418,268.271"/>
		<path clip-path="url(#SVGID_2_)" fill="#009A93" d="M433.705,355.635c-0.123,0.285-0.294,0.817-0.574,1.28
			c-0.167,0.281-0.518,0.425-0.841,0.117c-1.006-0.964-0.88-2.064,0.319-2.828c0.384-0.242,0.981,0.034,1.028,0.483
			C433.662,354.914,433.672,355.141,433.705,355.635"/>
		<path clip-path="url(#SVGID_2_)" fill="#009A93" d="M365.148,333.866c-0.115-0.157-0.47-0.445-0.42-0.625
			c0.27-0.999,0.914-1.711,1.947-1.974c0.142-0.036,0.456,0.15,0.512,0.301C367.68,332.828,366.718,333.987,365.148,333.866"/>
		<path clip-path="url(#SVGID_2_)" fill="#009A93" d="M369.4,404.195c0.058-0.193,0.121-0.654,0.337-1.024
			c0.146-0.259,0.476-0.479,0.768-0.568c0.308-0.092,1.006,0.955,0.872,1.298c-0.202,0.521-0.429,1.036-0.706,1.523
			c-0.085,0.152-0.346,0.251-0.548,0.292c-0.445,0.094-0.571-0.25-0.647-0.584C369.427,404.911,369.436,404.678,369.4,404.195"/>
		<path clip-path="url(#SVGID_2_)" fill="#009A93" d="M419.209,267.546c0.009-0.056,0.038-0.512,0.167-0.937
			c0.045-0.135,0.35-0.271,0.53-0.267c0.184,0.007,0.512,0.18,0.517,0.294c0.032,0.667,0.056,1.348-0.049,2.003
			c-0.07,0.427-0.353,0.824-0.555,1.224c-0.052,0.094-0.164,0.155-0.254,0.229c-0.117-0.148-0.328-0.288-0.339-0.442
			C419.182,269.083,419.209,268.51,419.209,267.546"/>
		<path clip-path="url(#SVGID_2_)" fill="#009A93" d="M461.328,251.745c0,0.231,0.053,0.483-0.021,0.683
			c-0.051,0.142-0.273,0.243-0.441,0.308c-0.072,0.029-0.217-0.07-0.288-0.148c-0.161-0.164-0.404-0.344-0.417-0.525
			c-0.059-0.896-0.063-1.795-0.066-2.693c0-0.079,0.124-0.215,0.205-0.225c0.094-0.013,0.233,0.052,0.305,0.128
			c0.236,0.245,0.571,0.48,0.641,0.774c0.133,0.546,0.102,1.128,0.137,1.698H461.328z"/>
		<path clip-path="url(#SVGID_2_)" fill="#009A93" d="M487.409,224.763c0.683-0.029,1.352-0.034,1.828,0.577
			c0.067,0.09,0.184,0.215,0.161,0.281c-0.062,0.164-0.157,0.391-0.294,0.438c-0.515,0.177-1.066,0.251-1.574,0.442
			c-0.611,0.229-0.769-0.285-1.026-0.582c-0.317-0.364-0.146-1.029,0.235-1.092C486.962,224.792,487.187,224.786,487.409,224.763"/>
		<path clip-path="url(#SVGID_2_)" fill="#009A93" d="M445.461,323.669c-0.027,0.182-0.022,0.527-0.135,0.829
			c-0.061,0.157-0.31,0.312-0.494,0.343c-0.664,0.11-1.6-0.923-1.334-1.509c0.221-0.487,0.564-0.945,1.195-1.031
			C445.172,322.24,445.443,322.651,445.461,323.669"/>
		<path clip-path="url(#SVGID_2_)" fill="#009A93" d="M384.687,349.238c0.15,0.161,0.456,0.346,0.525,0.598
			c0.234,0.873-0.193,1.514-0.925,1.925c-0.27,0.15-0.676,0.177-0.845-0.216C382.996,350.507,383.508,349.477,384.687,349.238"/>
		<path clip-path="url(#SVGID_2_)" fill="#009A93" d="M472.607,231.652c-0.18-0.09-0.598-0.168-0.717-0.397
			c-0.119-0.227-0.005-0.656,0.146-0.917c0.161-0.276,0.458-0.566,0.747-0.638c0.252-0.063,0.729,0.074,0.848,0.276
			C474.099,230.773,473.625,231.603,472.607,231.652"/>
		<path clip-path="url(#SVGID_2_)" fill="#009A93" d="M361.804,468.033c0.034-0.162,0.081-0.6,0.229-1.002
			c0.054-0.14,0.354-0.263,0.539-0.249c0.18,0.006,0.454,0.159,0.505,0.308c0.236,0.678,0.141,1.313-0.425,1.81
			c-0.159,0.142-0.373,0.228-0.557,0.338c-0.09-0.198-0.188-0.392-0.26-0.594C361.799,468.543,361.82,468.419,361.804,468.033"/>
		<path clip-path="url(#SVGID_2_)" fill="#009A93" d="M258.026,356.533c-0.027,0.211,0.004,0.458-0.094,0.636
			c-0.485,0.876-1.474,1.002-2.255,1.442c-0.027,0.013-0.18-0.131-0.216-0.223c-0.041-0.095-0.059-0.261-0.004-0.321
			c0.678-0.736,1.55-1.227,2.363-1.788C257.827,356.271,257.955,356.443,258.026,356.533"/>
		<path clip-path="url(#SVGID_2_)" fill="#009A93" d="M315.452,266.115c0.041-0.227,0.047-0.57,0.173-0.864
			c0.067-0.157,0.314-0.274,0.505-0.333c0.438-0.139,0.623,0.215,0.696,0.507c0.185,0.712-0.065,1.31-0.649,1.757
			c-0.085,0.065-0.251,0.159-0.292,0.128c-0.146-0.115-0.308-0.265-0.368-0.434C315.447,266.675,315.474,266.441,315.452,266.115"/>
		<path clip-path="url(#SVGID_2_)" fill="#009A93" d="M453.678,423.749c-0.121-0.132-0.373-0.328-0.346-0.386
			c0.237-0.508,0.494-1.007,0.816-1.46c0.07-0.102,0.414-0.031,0.627,0.004c0.095,0.019,0.221,0.133,0.24,0.228
			C455.18,422.844,454.483,423.673,453.678,423.749"/>
		<path clip-path="url(#SVGID_2_)" fill="#009A93" d="M308.768,373.32c-0.207-0.081-0.416-0.161-0.618-0.24
			c0.081-0.188,0.135-0.402,0.26-0.56c0.142-0.173,0.351-0.408,0.528-0.406c0.294,0.002,0.584,0.178,0.876,0.278
			c-0.119,0.295-0.184,0.636-0.382,0.862C309.327,373.377,308.999,373.303,308.768,373.32"/>
		<path clip-path="url(#SVGID_2_)" fill="#009A93" d="M319.479,233.545c-0.202-0.124-0.31-0.155-0.355-0.225
			c-0.296-0.452-0.193-1.249,0.25-1.512c0.146-0.085,0.472-0.021,0.618,0.097c0.142,0.117,0.278,0.442,0.211,0.577
			C320.014,232.867,319.726,233.202,319.479,233.545"/>
		<path clip-path="url(#SVGID_2_)" fill="#009A93" d="M400.762,394.354c0.085,0.023,0.193,0.021,0.249,0.077
			c0.319,0.306,0.252,1.273-0.188,1.514c-0.188,0.105-0.744-0.065-0.833-0.252C399.776,395.244,400.275,394.496,400.762,394.354"/>
		<path clip-path="url(#SVGID_2_)" fill="#009A93" d="M429.563,255.087c-0.235,0.312-0.328,0.555-0.485,0.613
			c-0.17,0.059-0.539-0.002-0.577-0.107c-0.155-0.384-0.245-0.807-0.282-1.22c-0.012-0.115,0.23-0.274,0.383-0.368
			c0.053-0.029,0.225,0.058,0.283,0.135C429.135,254.46,429.361,254.8,429.563,255.087"/>
		<path clip-path="url(#SVGID_2_)" fill="#009A93" d="M422.641,248.861c-0.229,0.312-0.318,0.555-0.474,0.613
			c-0.164,0.061-0.532,0-0.568-0.102c-0.148-0.382-0.234-0.799-0.27-1.208c-0.011-0.119,0.215-0.281,0.361-0.38
			c0.043-0.027,0.218,0.063,0.276,0.142C422.215,248.246,422.439,248.578,422.641,248.861"/>
		<path clip-path="url(#SVGID_2_)" fill="#009A93" d="M466.277,476.479c-0.296-0.349-0.55-0.53-0.626-0.764
			c-0.126-0.38,0.128-0.571,0.501-0.632c0.408-0.064,0.636,0.155,0.606,0.513C466.736,475.843,466.509,476.071,466.277,476.479"/>
		<path clip-path="url(#SVGID_2_)" fill="#009A93" d="M448.605,244.538c-0.076-0.056-0.211-0.097-0.223-0.162
			c-0.061-0.321-0.132-0.654-0.109-0.975c0.012-0.157,0.238-0.44,0.33-0.424c0.199,0.029,0.397,0.198,0.557,0.346
			c0.287,0.268,0.268,0.573-0.006,0.835C448.992,244.309,448.79,244.414,448.605,244.538"/>
		<path clip-path="url(#SVGID_2_)" fill="#009A93" d="M415.164,216.516c-0.393,0.225-0.618,0.447-0.86,0.462
			c-0.353,0.027-0.566-0.213-0.503-0.611c0.058-0.366,0.26-0.611,0.624-0.487C414.659,215.958,414.829,216.214,415.164,216.516"/>
		<path clip-path="url(#SVGID_2_)" fill="#009A93" d="M389.527,286.104c0.225,0.415,0.442,0.649,0.465,0.896
			c0.027,0.366-0.225,0.577-0.62,0.512c-0.359-0.059-0.622-0.265-0.494-0.645C388.961,286.633,389.215,286.456,389.527,286.104"/>
		<path clip-path="url(#SVGID_2_)" fill="#009A93" d="M438.602,430.681c-0.207-0.074-0.368-0.088-0.382-0.142
			c-0.036-0.152-0.071-0.354-0.005-0.472c0.104-0.166,0.297-0.285,0.463-0.406c0.074-0.054,0.259-0.102,0.261-0.092
			c0.079,0.175,0.233,0.41,0.178,0.536C438.999,430.339,438.759,430.517,438.602,430.681"/>
		<path clip-path="url(#SVGID_2_)" fill="#009A93" d="M455.335,354.427c-0.063-0.344-0.164-0.658-0.159-0.978
			c0.002-0.195,0.164-0.391,0.256-0.584c0.074,0.048,0.213,0.093,0.215,0.144c0.012,0.418,0.008,0.841-0.013,1.261
			C455.634,354.31,455.492,354.348,455.335,354.427"/>
		<path clip-path="url(#SVGID_2_)" fill="#009A93" d="M260.798,396.866c-0.09,0.157-0.18,0.312-0.27,0.467
			c-0.279-0.294-0.555-0.591-0.831-0.885c0.085-0.059,0.162-0.144,0.26-0.178C260.417,396.132,260.751,396.374,260.798,396.866"/>
		<path clip-path="url(#SVGID_2_)" fill="#009A93" d="M354.662,377.208c-0.009,0.084-0.157,0.198-0.256,0.212
			c-0.48,0.087-0.91-0.317-0.835-0.789c0.014-0.097,0.128-0.24,0.213-0.256C354.118,376.33,354.697,376.878,354.662,377.208"/>
		<path clip-path="url(#SVGID_2_)" fill="#009A93" d="M412.947,236.557c0.159,0.087,0.319,0.177,0.476,0.263
			c-0.288,0.281-0.58,0.562-0.867,0.845c-0.061-0.087-0.142-0.168-0.175-0.265C412.233,236.946,412.462,236.606,412.947,236.557"/>
		<path clip-path="url(#SVGID_2_)" fill="#009A93" d="M407.88,344.829c-0.148-0.166-0.379-0.342-0.351-0.411
			c0.104-0.256,0.254-0.517,0.463-0.688c0.09-0.071,0.364,0.074,0.546,0.142c0.02,0.012,0.018,0.193-0.029,0.25
			C408.315,344.359,408.1,344.584,407.88,344.829"/>
		<path clip-path="url(#SVGID_2_)" fill="#009A93" d="M300.226,371.306c0.198,0.178,0.467,0.346,0.609,0.589
			c0.069,0.121-0.115,0.382-0.187,0.579c-0.097-0.056-0.225-0.09-0.29-0.171c-0.185-0.247-0.344-0.512-0.515-0.768
			C299.938,371.477,300.033,371.423,300.226,371.306"/>
		<path clip-path="url(#SVGID_2_)" fill="#009A93" d="M263.543,275.792c-0.085-0.128-0.171-0.258-0.258-0.386
			c0.204-0.034,0.413-0.092,0.618-0.085c0.083,0.002,0.162,0.148,0.242,0.227C263.942,275.627,263.745,275.711,263.543,275.792"/>
		<path clip-path="url(#SVGID_2_)" fill="#009A93" d="M448.652,344.741c-0.197,0.067-0.381,0.185-0.557,0.169
			c-0.105-0.007-0.195-0.216-0.294-0.337c0.177-0.067,0.356-0.195,0.525-0.176C448.443,344.409,448.543,344.616,448.652,344.741"/>
		<path clip-path="url(#SVGID_2_)" fill="#009A93" d="M418.881,303.957c-0.104-0.159-0.274-0.308-0.283-0.469
			c-0.004-0.117,0.205-0.245,0.317-0.369c0.065,0.086,0.197,0.185,0.184,0.257C419.056,303.573,418.958,303.765,418.881,303.957"/>
		<path clip-path="url(#SVGID_2_)" fill="#009A93" d="M447.479,349.975c-0.131,0.11-0.256,0.216-0.387,0.326
			c-0.062-0.185-0.188-0.373-0.176-0.553c0.01-0.114,0.225-0.209,0.347-0.316C447.334,349.613,447.406,349.795,447.479,349.975"/>
		<path clip-path="url(#SVGID_2_)" fill="#009A93" d="M448.646,231.867c0.066,0.198,0.18,0.384,0.166,0.557
			c-0.005,0.115-0.211,0.211-0.326,0.314c-0.069-0.18-0.195-0.364-0.182-0.537C448.313,232.085,448.521,231.982,448.646,231.867"/>
		<path clip-path="url(#SVGID_2_)" fill="#009A93" d="M403.644,381.849c0.092,0.173,0.259,0.351,0.254,0.521
			c-0.004,0.173-0.18,0.334-0.283,0.503c-0.09-0.178-0.254-0.353-0.254-0.525C403.365,382.179,403.543,382.015,403.644,381.849"/>
		<path clip-path="url(#SVGID_2_)" fill="#009A93" d="M409.812,390.885c0.112,0.148,0.31,0.29,0.301,0.415
			c-0.009,0.16-0.193,0.309-0.296,0.461c-0.079-0.085-0.229-0.182-0.215-0.256C409.632,391.3,409.73,391.107,409.812,390.885"/>
	</g>
</g>
</svg>
