<?xml version="1.0" encoding="UTF-8" standalone="no"?>
<!-- Generator: Adobe Illustrator 16.0.0, SVG Export Plug-In . SVG Version: 6.00 Build 0)  -->

<svg
   xmlns:dc="http://purl.org/dc/elements/1.1/"
   xmlns:cc="http://creativecommons.org/ns#"
   xmlns:rdf="http://www.w3.org/1999/02/22-rdf-syntax-ns#"
   xmlns:svg="http://www.w3.org/2000/svg"
   xmlns="http://www.w3.org/2000/svg"
   xmlns:xlink="http://www.w3.org/1999/xlink"
   xmlns:sodipodi="http://sodipodi.sourceforge.net/DTD/sodipodi-0.dtd"
   xmlns:inkscape="http://www.inkscape.org/namespaces/inkscape"
   version="1.1"
   x="0px"
   y="0px"
   width="841.89px"
   height="595.28px"
   viewBox="0 0 841.89 595.28"
   enable-background="new 0 0 841.89 595.28"
   xml:space="preserve"
   id="svg4364"
   inkscape:version="0.91 r13725"
   sodipodi:docname="Wurst_Logo_mitSplattering.svg"><metadata
     id="metadata4496"><rdf:RDF><cc:Work
         rdf:about=""><dc:format>image/svg+xml</dc:format><dc:type
           rdf:resource="http://purl.org/dc/dcmitype/StillImage" /><dc:title></dc:title></cc:Work></rdf:RDF></metadata><defs
     id="defs4494" /><sodipodi:namedview
     pagecolor="#ffffff"
     bordercolor="#666666"
     borderopacity="1"
     objecttolerance="10"
     gridtolerance="10"
     guidetolerance="10"
     inkscape:pageopacity="0"
     inkscape:pageshadow="2"
     inkscape:window-width="1366"
     inkscape:window-height="704"
     id="namedview4492"
     showgrid="false"
     inkscape:zoom="0.77919917"
     inkscape:cx="313.36058"
     inkscape:cy="297.64001"
     inkscape:window-x="0"
     inkscape:window-y="27"
     inkscape:window-maximized="1"
     inkscape:current-layer="svg4364" /><g
     id="Ebene_1"><rect
       stroke="#000000"
       stroke-miterlimit="10"
       width="846"
       height="595.28"
       id="rect4367" /></g><g
     transform="matrix(-0.6645229,-0.0229634,-0.0229634,0.6645229,143.5362,102.78918)"
     style="font-style:normal;font-variant:normal;font-weight:bold;font-stretch:normal;font-size:96.25px;line-height:125%;font-family:'Avenir LT Std';-inkscape-font-specification:'Avenir LT Std Bold';text-align:start;letter-spacing:0px;word-spacing:0px;writing-mode:lr-tb;text-anchor:start;opacity:1;fill:#ffffff;fill-opacity:1;stroke:none;stroke-width:1px;stroke-linecap:butt;stroke-linejoin:miter;stroke-opacity:1"
     id="text4314"><path
       inkscape:connector-curvature="0"
       d="m -831.22071,463.91061 48.02875,0 0,-13.86 -33.01375,0 0,-13.86 29.54875,0 0,-13.86 -29.54875,0 0,-12.705 31.28125,0 0,-13.86 -46.29625,0 0,68.145 z"
       style="font-style:normal;font-variant:normal;font-weight:800;font-stretch:normal;font-size:96.25px;line-height:125%;font-family:'Avenir LT Std';-inkscape-font-specification:'Avenir LT Std, Ultra-Bold';text-align:start;letter-spacing:1.25px;writing-mode:lr-tb;text-anchor:start;fill:#ffffff;fill-opacity:1"
       id="path4311" /><path
       inkscape:connector-curvature="0"
       d="m -769.828,463.91061 15.015,0 0,-52.26375 0.1925,0 17.22875,52.26375 11.45375,0 17.9025,-52.26375 0.1925,0 0,52.26375 15.015,0 0,-68.145 -22.61875,0 -15.785,44.4675 -0.1925,0 -15.68875,-44.4675 -22.715,0 0,68.145 z"
       style="font-style:normal;font-variant:normal;font-weight:800;font-stretch:normal;font-size:96.25px;line-height:125%;font-family:'Avenir LT Std';-inkscape-font-specification:'Avenir LT Std, Ultra-Bold';text-align:start;letter-spacing:1.25px;writing-mode:lr-tb;text-anchor:start;fill:#ffffff;fill-opacity:1"
       id="path4313" /><path
       inkscape:connector-curvature="0"
       d="m -647.95544,463.91061 15.015,0 0,-27.23875 7.41125,0 14.245,27.23875 17.99875,0 -17.325,-28.77875 c 9.625,-1.7325 14.72625,-9.14375 14.72625,-18.6725 0,-15.88125 -11.7425,-20.69375 -25.69875,-20.69375 l -26.3725,0 0,68.145 z m 15.015,-55.44 9.8175,0 c 5.48625,0 11.64625,1.05875 11.64625,7.8925 0,7.41125 -7.1225,7.60375 -12.60875,7.60375 l -8.855,0 0,-15.49625 z"
       style="font-style:normal;font-variant:normal;font-weight:800;font-stretch:normal;font-size:96.25px;line-height:125%;font-family:'Avenir LT Std';-inkscape-font-specification:'Avenir LT Std, Ultra-Bold';text-align:start;letter-spacing:1.25px;writing-mode:lr-tb;text-anchor:start;fill:#ffffff;fill-opacity:1"
       id="path4315" /><path
       inkscape:connector-curvature="0"
       d="m -587.95083,429.83811 c 0,21.84875 15.49625,35.805 36.7675,35.805 21.27125,0 36.7675,-13.95625 36.7675,-35.805 0,-21.84875 -15.49625,-35.805 -36.7675,-35.805 -21.27125,0 -36.7675,13.95625 -36.7675,35.805 z m 15.5925,0 c 0,-12.705 8.37375,-21.945 21.175,-21.945 12.80125,0 21.175,9.24 21.175,21.945 0,12.705 -8.37375,21.945 -21.175,21.945 -12.80125,0 -21.175,-9.24 -21.175,-21.945 z"
       style="font-style:normal;font-variant:normal;font-weight:800;font-stretch:normal;font-size:96.25px;line-height:125%;font-family:'Avenir LT Std';-inkscape-font-specification:'Avenir LT Std, Ultra-Bold';text-align:start;letter-spacing:1.25px;writing-mode:lr-tb;text-anchor:start;fill:#ffffff;fill-opacity:1"
       id="path4317" /><path
       inkscape:connector-curvature="0"
       d="m -502.38282,463.91061 15.015,0 0,-26.565 28.39375,0 0,-13.86 -28.39375,0 0,-13.86 30.70375,0 0,-13.86 -45.71875,0 0,68.145 z"
       style="font-style:normal;font-variant:normal;font-weight:800;font-stretch:normal;font-size:96.25px;line-height:125%;font-family:'Avenir LT Std';-inkscape-font-specification:'Avenir LT Std, Ultra-Bold';text-align:start;letter-spacing:1.25px;writing-mode:lr-tb;text-anchor:start;fill:#ffffff;fill-opacity:1"
       id="path4319" /><path
       inkscape:connector-curvature="0"
       d="m -401.55141,463.91061 15.015,0 0,-54.8625 19.4425,0 0,-13.2825 -53.9,0 0,13.2825 19.4425,0 0,54.8625 z"
       style="font-style:normal;font-variant:normal;font-weight:800;font-stretch:normal;font-size:96.25px;line-height:125%;font-family:'Avenir LT Std';-inkscape-font-specification:'Avenir LT Std, Ultra-Bold';text-align:start;letter-spacing:1.25px;writing-mode:lr-tb;text-anchor:start;fill:#ffffff;fill-opacity:1"
       id="path4321" /><path
       inkscape:connector-curvature="0"
       d="m -314.23286,401.15561 c -5.775,-5.10125 -13.18625,-7.1225 -20.88625,-7.1225 -13.37875,0 -25.9875,7.60375 -25.9875,22.1375 0,22.715 31.955,15.9775 31.955,28.49 0,4.8125 -5.48625,7.1225 -10.395,7.1225 -5.005,0 -10.01,-2.40625 -13.09,-6.44875 l -10.68375,11.7425 c 6.44875,5.9675 14.14875,8.56625 22.9075,8.56625 14.0525,0 26.27625,-7.21875 26.27625,-22.42625 0,-23.87 -31.3775,-15.88125 -31.3775,-28.2975 0,-5.10125 5.87125,-7.02625 10.10625,-7.02625 3.6575,0 8.47,1.44375 10.87625,4.52375 l 10.29875,-11.26125 z"
       style="font-style:normal;font-variant:normal;font-weight:800;font-stretch:normal;font-size:96.25px;line-height:125%;font-family:'Avenir LT Std';-inkscape-font-specification:'Avenir LT Std, Ultra-Bold';text-align:start;letter-spacing:1.25px;writing-mode:lr-tb;text-anchor:start;fill:#ffffff;fill-opacity:1"
       id="path4323" /><path
       inkscape:connector-curvature="0"
       d="m -301.70055,463.91061 15.015,0 0,-27.23875 7.41125,0 14.245,27.23875 17.99875,0 -17.325,-28.77875 c 9.625,-1.7325 14.72625,-9.14375 14.72625,-18.6725 0,-15.88125 -11.7425,-20.69375 -25.69875,-20.69375 l -26.3725,0 0,68.145 z m 15.015,-55.44 9.8175,0 c 5.48625,0 11.64625,1.05875 11.64625,7.8925 0,7.41125 -7.1225,7.60375 -12.60875,7.60375 l -8.855,0 0,-15.49625 z"
       style="font-style:normal;font-variant:normal;font-weight:800;font-stretch:normal;font-size:96.25px;line-height:125%;font-family:'Avenir LT Std';-inkscape-font-specification:'Avenir LT Std, Ultra-Bold';text-align:start;letter-spacing:1.25px;writing-mode:lr-tb;text-anchor:start;fill:#ffffff;fill-opacity:1"
       id="path4325" /><path
       inkscape:connector-curvature="0"
       d="m -180.57719,395.76561 -15.015,0 0,41.29125 c 0,8.37375 -5.775,14.72625 -13.6675,14.72625 -7.98875,0 -13.76375,-6.3525 -13.76375,-14.72625 l 0,-41.29125 -15.015,0 0,41.86875 c 0,16.07375 9.8175,28.00875 28.77875,28.00875 18.865,0 28.6825,-11.935 28.6825,-28.00875 l 0,-41.86875 z"
       style="font-style:normal;font-variant:normal;font-weight:800;font-stretch:normal;font-size:96.25px;line-height:125%;font-family:'Avenir LT Std';-inkscape-font-specification:'Avenir LT Std, Ultra-Bold';text-align:start;letter-spacing:1.25px;writing-mode:lr-tb;text-anchor:start;fill:#ffffff;fill-opacity:1"
       id="path4327" /><path
       inkscape:connector-curvature="0"
       d="m -152.45089,463.91061 12.8975,0 15.015,-47.1625 0.1925,0 15.015,47.1625 13.378754,0 19.92375,-68.145 -15.2075,0 -11.453754,44.8525 -0.1925,0 -14.14875,-44.8525 -13.95625,0 -14.245,43.6975 -0.1925,0 -10.87625,-43.6975 -16.3625,0 20.2125,68.145 z"
       style="font-style:normal;font-variant:normal;font-weight:800;font-stretch:normal;font-size:96.25px;line-height:125%;font-family:'Avenir LT Std';-inkscape-font-specification:'Avenir LT Std, Ultra-Bold';text-align:start;letter-spacing:1.25px;writing-mode:lr-tb;text-anchor:start;fill:#ffffff;fill-opacity:1"
       id="path4329" /></g><g
     id="Ebene_2"
     transform="translate(-1.2833689,0)"><g
       id="g4370"><defs
         id="defs4372"><rect
           id="SVGID_1_"
           x="39.368"
           y="0.015"
           width="767.26501"
           height="595.25" /></defs><clipPath
         id="SVGID_2_"><use
           xlink:href="#SVGID_1_"
           overflow="visible"
           id="use4376"
           style="overflow:visible"
           x="0"
           y="0"
           width="100%"
           height="100%" /></clipPath><path
         clip-path="url(#SVGID_2_)"
         d="m 200.551,299.515 c 0.139,0.086 0.277,0.17 0.415,0.253 0.059,-0.103 0.193,-0.251 0.166,-0.294 -0.083,-0.127 -0.232,-0.214 -0.355,-0.318 -0.063,0.1 -0.124,0.198 -0.226,0.359 m 67.938,44.763 c -0.109,0.236 -0.207,0.367 -0.226,0.51 -0.007,0.082 0.109,0.182 0.167,0.271 0.122,-0.097 0.32,-0.18 0.341,-0.296 0.02,-0.111 -0.14,-0.256 -0.282,-0.485 m -56.254,14.157 c -0.056,0.131 -0.124,0.26 -0.148,0.396 -0.005,0.026 0.237,0.141 0.26,0.116 0.101,-0.107 0.162,-0.249 0.235,-0.379 -0.094,-0.037 -0.19,-0.074 -0.347,-0.133 m -21.003,-25.368 c 0.099,0.04 0.197,0.076 0.294,0.115 0.079,-0.229 0.161,-0.455 0.221,-0.688 0.004,-0.012 -0.191,-0.072 -0.292,-0.109 -0.076,0.227 -0.149,0.457 -0.223,0.682 m -23.686,11.124 c -0.144,0.067 -0.286,0.131 -0.429,0.193 0.125,0.287 0.251,0.575 0.376,0.861 0.098,-0.036 0.196,-0.068 0.294,-0.104 -0.079,-0.316 -0.161,-0.633 -0.241,-0.95 m 12.842,-7.528 c 0.056,0.059 0.112,0.116 0.169,0.173 0.241,-0.212 0.481,-0.427 0.722,-0.639 -0.074,-0.078 -0.146,-0.155 -0.221,-0.23 -0.223,0.231 -0.446,0.465 -0.67,0.696 m 51.493,24.365 c -0.284,-0.226 -0.459,-0.469 -0.621,-0.458 -0.152,0.007 -0.414,0.285 -0.406,0.433 0.009,0.17 0.245,0.427 0.416,0.457 0.141,0.025 0.331,-0.223 0.611,-0.432 m -19.287,-77.615 c 0.113,-0.687 0.185,-1.046 0.214,-1.411 0,-0.022 -0.362,-0.16 -0.461,-0.096 -0.516,0.336 -0.451,0.738 0.247,1.507 m -14.812,18.858 c -0.783,0.651 -0.783,0.651 -0.134,1.602 0.052,-0.625 0.088,-1.052 0.134,-1.602 m -13.718,30.747 c -1.521,1.288 -1.521,1.288 -0.327,2.295 0.096,-0.665 0.19,-1.327 0.327,-2.295 m 24.144,32.071 c 0.945,1.18 0.945,1.18 2.21,0.435 -0.839,-0.166 -1.437,-0.282 -2.21,-0.435 m 13.796,-64.835 c 0.133,-0.128 0.263,-0.249 0.395,-0.375 -0.462,-0.531 -0.924,-1.06 -1.554,-1.781 -0.489,1.635 0.447,1.805 1.159,2.156 m 9.802,64.79 c 0.019,0.15 0.037,0.303 0.061,0.453 1.072,-0.145 2.148,-0.287 3.225,-0.435 -0.02,-0.142 -0.038,-0.279 -0.055,-0.422 -1.079,0.132 -2.155,0.269 -3.231,0.404 m -6.818,-23.745 c 0.727,-0.489 1.885,-0.089 2.401,-1.276 -1.876,-0.173 -1.876,-0.173 -2.401,1.276 m -15.708,-9.727 -1.461,0 c 1.524,1.367 -0.115,2.723 0.463,4.447 0.77,-1.638 0.837,-2.989 0.998,-4.447 m 7.705,8.253 c 0.873,0.052 1.457,0.086 2.009,0.117 0.125,0.43 0.219,0.77 0.365,1.273 0.512,-0.364 0.926,-0.658 1.322,-0.944 -0.765,-1.388 -0.765,-1.388 -2.878,-2.43 -0.231,0.557 -0.457,1.109 -0.818,1.984 m 50.123,2.966 c 1.482,0.538 2.88,0.158 3.655,-0.946 0.465,-0.662 0.07,-1.106 -0.393,-1.47 -1.572,0.172 -2.419,1.146 -3.262,2.416 m -46.707,-7.621 c 0.342,0.537 0.895,1.053 0.966,1.625 0.068,0.57 -0.346,1.202 -0.592,1.938 0.273,0.322 0.621,0.733 0.812,0.959 1.455,-0.495 2.587,-0.881 3.771,-1.284 -0.46,-2.176 -2.504,-0.872 -3.454,-1.69 -0.16,-1.062 0.747,-0.95 1.307,-1.181 -1.045,-1.2 -1.117,-1.209 -2.81,-0.367 m -21.132,-48.485 c -1.733,0.969 -1.685,2.545 -1.631,4.222 0.046,1.439 -0.191,2.885 -0.303,4.327 l -1.291,0 0,3.931 c 0.646,-1.564 0.796,-3.009 2.008,-3.963 0.495,-0.388 0.732,-1.271 0.827,-1.967 0.283,-2.044 0.443,-4.106 0.628,-6.164 0.012,-0.138 -0.177,-0.296 -0.238,-0.386 m 14.916,77.724 c -0.207,1.244 0.015,1.511 0.911,1.265 0.819,-0.226 1.649,-0.43 2.479,-0.607 0.847,-0.18 1.863,-0.081 2.514,-0.524 1.422,-0.97 2.995,-1.193 4.58,-1.313 1.153,-0.087 1.84,-0.506 2.25,-1.703 -1.407,0.21 -3.036,-0.002 -3.986,0.706 -1.183,0.88 -2.835,0.167 -3.686,1.489 -1.313,-0.741 -2.062,-0.583 -2.95,0.521 -0.199,0.245 -0.593,0.446 -0.903,0.46 -0.396,0.014 -0.801,-0.186 -1.209,-0.294 m 6.777,-5.296 c 0.302,-0.234 0.387,-0.344 0.496,-0.378 0.538,-0.159 1.197,-0.29 1.084,-1.008 -0.128,-0.823 -0.89,-0.773 -1.49,-0.717 -1.104,0.102 -2.198,0.391 -3.3,0.429 -1.539,0.052 -2.137,1.07 -2.574,2.271 -0.196,0.542 -0.226,1.146 -0.354,1.85 l 2.671,0 c 0.008,-0.094 0.019,-0.187 0.026,-0.278 -0.374,-0.1 -0.749,-0.202 -1.347,-0.363 0.728,-0.471 1.264,-0.822 1.793,-1.164 0.936,1.234 0.924,1.202 2.406,0.803 0.472,-0.128 1.009,-0.019 1.618,-0.019 -0.36,-0.504 -0.668,-0.927 -1.029,-1.426 m -0.806,-47.769 c 0.766,2.257 1.411,4.159 2.057,6.06 0.107,-2.172 -0.205,-4.309 -0.071,-6.418 0.118,-1.899 -0.521,-3.449 -1.323,-5.297 -0.185,0.756 -0.303,1.244 -0.414,1.712 -1.772,-0.079 -0.873,-1.821 -1.654,-2.553 -0.876,1.938 -0.489,5.544 0.911,7.742 0.163,-0.409 0.294,-0.738 0.494,-1.246 m 21.824,-20.323 c -1.016,-0.638 -1.016,-0.681 -2.922,-0.596 -2.079,0.09 -4.193,-0.314 -6.225,0.544 -0.433,0.18 -1.054,-0.076 -1.584,-0.147 -1.396,-0.19 -2.784,-0.44 -4.184,-0.561 -0.489,-0.042 -1.006,0.225 -2.107,0.499 1.934,0.927 1.415,1.953 0.946,3.021 -1.184,2.694 -2.323,5.403 -3.518,8.191 -0.513,-0.033 -1.1,0.078 -1.125,1.014 -0.024,1.067 0.123,2.044 0.604,3.046 1.524,3.15 3.868,5.964 4.079,9.661 0.107,1.85 0.194,3.702 0.263,5.555 0.064,1.73 0.075,3.459 0.154,5.188 0.053,1.106 0.275,2.207 0.271,3.313 -0.01,2.378 0.156,4.694 1.604,6.66 -0.107,0.794 -1.627,1.186 -0.461,2.233 1.449,-0.621 2.934,-1.223 4.386,-1.896 0.766,-0.353 1.457,-0.866 2.214,-1.231 0.705,-0.336 1.434,-0.668 2.188,-0.831 0.586,-0.128 1.041,0.591 0.727,1.12 -0.198,0.339 -0.593,0.603 -0.952,0.798 -0.542,0.296 -1.338,0.349 -1.657,0.778 -0.896,1.203 -2.216,1.185 -3.436,1.479 -0.659,0.159 -1.363,0.148 -2.005,0.345 -0.296,0.089 -0.501,0.483 -0.751,0.736 0.079,0.113 0.156,0.225 0.233,0.336 0.367,-0.123 0.728,-0.285 1.106,-0.365 0.403,-0.089 0.982,-0.301 1.204,-0.119 1.003,0.833 1.948,0.339 2.755,-0.139 1.187,-0.702 2.714,-1.001 3.365,-2.527 1.14,0.701 2.147,0.479 3.232,-0.271 1.769,-1.225 3.65,-2.289 5.472,-3.435 1.448,-0.915 2.886,-1.849 4.32,-2.791 0.248,-0.164 0.572,-0.387 0.632,-0.638 0.395,-1.552 1.759,-2.13 2.871,-2.959 1.383,-1.03 2.982,-1.865 4.098,-3.13 0.873,-0.985 1.738,-1.893 2.856,-2.543 2.91,-1.697 5.171,-4.189 7.762,-6.276 1.475,-1.188 1.445,-1.477 0.549,-3.212 1.115,-0.924 3.121,-1.083 3.121,-3.215 -1.373,-1.03 -2.188,1.146 -3.558,0.63 -0.572,-0.701 -0.011,-1.057 0.542,-1.537 1.944,-1.686 4.207,-3.151 4.56,-6.108 -0.632,0.231 -1.24,0.455 -1.803,0.66 -0.937,-1.316 0.661,-2.067 0.506,-3.319 -2.493,-0.037 -3.109,2.121 -4.318,3.955 0.226,-2.44 0.388,-4.486 0.625,-6.523 0.045,-0.399 0.437,-0.75 0.564,-1.154 0.095,-0.297 0.02,-0.648 0.02,-1.373 -0.418,0.515 -0.684,0.707 -0.759,0.957 -0.352,1.154 -0.611,2.335 -0.974,3.486 -0.162,0.508 -0.464,0.979 -0.747,1.439 -0.067,0.105 -0.323,0.092 -0.478,0.132 -0.197,-0.463 -0.378,-0.883 -0.632,-1.479 -2.047,1.593 -2.272,4.518 -4.771,5.454 0.667,-1.157 1.483,-2.198 2.285,-3.252 1.422,-1.866 2.176,-4.008 2.417,-6.314 0.051,-0.503 -0.081,-1.286 -0.416,-1.513 -0.791,-0.53 -1.768,-1.142 -2.652,-1.117 -3.401,0.096 -6.814,0.29 -10.189,0.716 -3.631,0.458 -7.108,1.643 -10.556,2.872 -0.63,0.225 -1.294,0.627 -1.891,-0.014 -0.608,-0.648 -0.403,-1.363 -0.047,-2.068 0.071,-0.143 0.051,-0.333 0.067,-0.479 -0.406,-0.151 -0.739,-0.275 -1.225,-0.458 1.141,-0.789 2.631,0.063 3.345,-1.228 m -51.578,40.265 c 0.607,-0.246 1.216,-0.493 1.823,-0.741 -1.098,-0.941 -1.438,-0.792 -1.776,0.794 -0.295,-0.172 -0.589,-0.343 -1.21,-0.703 0.356,0.65 0.553,1.01 0.916,1.672 0.141,-0.588 0.193,-0.803 0.247,-1.022 m 25.533,-13.184 c 0.239,0.518 0.474,1.039 0.836,1.822 0.666,-3.244 1.177,-6.192 0.835,-9.281 -0.134,-1.197 0.143,-2.333 -0.691,-3.472 -0.4,-0.55 -0.069,-1.633 -0.069,-2.587 0.331,0.053 0.63,0.102 1.053,0.173 0,-1.593 0.008,-3.124 -0.003,-4.656 -0.007,-1.43 1.155,-2.581 0.708,-4.384 -0.639,-0.686 -1.591,-1.637 -1.271,-3.202 0.07,-0.337 -0.339,-0.77 -0.529,-1.159 -0.154,0.022 -0.307,0.047 -0.46,0.071 -0.123,0.698 -0.22,1.401 -0.375,2.096 -0.207,0.925 -0.021,1.985 -1.032,2.656 -0.263,0.176 -0.178,0.818 -0.355,1.198 -0.269,0.574 -0.257,1.406 -1.172,1.481 l 0.063,0.053 c 0.235,-1.406 0.39,-2.828 0.724,-4.207 0.467,-1.933 -0.342,-3.759 -0.323,-5.652 0.004,-0.412 -0.583,-0.83 -0.92,-1.277 -1.325,0.66 -1.097,1.874 -1.492,3.11 -0.251,-0.493 -0.52,-0.768 -0.496,-1.014 0.099,-1.099 0.384,-2.192 0.41,-3.292 0.035,-1.525 -0.106,-3.055 -0.166,-4.583 -0.012,-0.298 0,-0.596 0,-1.03 0.558,0.036 0.996,0.06 1.448,0.084 -0.774,-1.543 -1.533,-3.057 -2.398,-4.786 1.086,-0.303 1.89,-0.527 2.623,-0.728 0.376,-0.868 0.805,-1.682 1.083,-2.547 0.181,-0.572 0.35,-1.285 0.169,-1.812 -0.423,-1.217 -0.019,-2.145 0.625,-3.1 0.239,-0.356 0.386,-0.779 0.535,-1.186 0.667,-1.829 1.497,-3.506 3.758,-3.996 0.143,0.291 0.316,0.654 0.582,1.194 0.201,-0.383 0.547,-0.788 0.465,-0.927 -0.615,-1.018 0.013,-1.616 0.647,-2.227 1.73,-1.677 3.377,-3.505 5.843,-4.087 0.935,-0.22 1.968,-0.301 2.911,-0.15 0.849,0.137 1.39,-0.053 2.005,-0.575 0.694,-0.589 1.496,-1.052 2.259,-1.562 1.283,-0.856 2.616,-1.646 3.846,-2.573 1.473,-1.107 2.859,-2.271 4.592,-3.058 1.364,-0.615 2.451,-1.847 3.656,-2.812 0.094,-0.076 0.191,-0.188 0.214,-0.298 0.519,-2.615 2.884,-4.032 4.033,-6.234 0.166,-0.316 0.403,-0.615 0.49,-0.95 0.293,-1.174 0.907,-1.874 2.03,-2.543 1.432,-0.849 2.696,-2.113 3.22,-3.928 0.318,-1.104 0.835,-2.115 0.638,-3.337 -0.068,-0.422 0.227,-0.943 0.46,-1.36 0.36,-0.647 0.858,-1.221 1.205,-1.874 0.395,-0.746 1.151,-1.592 0.541,-2.385 -0.66,-0.863 -1.61,-1.486 -2.893,-1.321 -3.202,0.417 -6.352,1.049 -9.409,2.112 -1.697,0.589 -3.401,1.158 -5.084,1.782 -2.306,0.856 -4.729,0.947 -7.13,1.18 -3.084,0.301 -6.171,0.535 -9.253,0.813 -2.632,0.236 -5.198,-0.067 -7.706,-0.875 -1.078,-0.349 -2.14,-0.396 -3.287,-0.277 -1.265,0.13 -2.607,0.025 -3.846,-0.272 -1.435,-0.342 -2.788,-1.02 -4.184,-1.524 -1.744,-0.63 -3.465,-1.358 -5.251,-1.823 -3.46,-0.901 -6.037,-2.98 -7.693,-6 -0.869,-1.585 -1.739,-3.503 -0.233,-5.405 0.345,-0.438 0.356,-1.18 0.43,-1.79 0.327,-2.788 1.947,-4.747 4.05,-6.404 0.291,-0.23 0.723,-0.35 0.902,-0.64 0.879,-1.408 2.1,-2.158 3.752,-2.386 0.414,-0.057 0.745,-0.708 1.269,-1.245 0.549,0.162 1.242,0.39 1.948,0.569 1.136,0.293 2.272,0.612 3.425,0.808 0.919,0.156 1.831,0.119 2.634,-0.561 0.353,-0.3 0.892,-0.5 1.358,-0.523 3.614,-0.184 6.609,-2.284 9.995,-3.173 3.951,-1.037 7.868,-2.217 11.819,-3.259 3.285,-0.867 6.6,-1.631 9.904,-2.429 0.417,-0.101 0.851,-0.177 1.279,-0.193 1.852,-0.077 3.703,-0.113 5.552,-0.199 0.424,-0.019 0.874,-0.117 1.248,-0.3 1.381,-0.674 2.846,-0.788 4.346,-0.855 0.982,-0.045 1.96,-0.412 2.931,-0.38 2.524,0.084 5.04,0.305 7.446,1.204 1.324,0.495 2.615,0.478 3.919,-0.271 1.337,-0.77 2.715,-1.648 4.184,-1.97 3.598,-0.787 7.227,-0.886 10.763,0.538 0.709,0.286 1.547,0.404 2.314,0.369 2.059,-0.098 3.872,0.596 5.595,1.576 0.719,0.411 0.934,1.178 0.716,1.958 -0.27,0.977 0.067,1.627 0.786,2.282 1.078,0.986 1.704,2.489 3.324,2.843 l -0.002,-0.004 c 0.229,1.219 1.131,1.74 2.203,1.978 1.078,0.236 1.759,0.89 2.184,1.835 0.431,0.956 0.92,1.912 1.159,2.92 0.707,3.003 1.595,5.985 1.308,9.138 -0.185,2.032 -0.043,4.126 -0.472,6.1 -1.142,5.249 -2.5,10.453 -5.01,15.267 -1.43,2.738 -2.711,5.558 -4.226,8.245 -2.814,4.991 -6.401,9.409 -10.48,13.423 -1.584,1.565 -3.232,3.067 -4.843,4.605 -0.214,0.205 -0.376,0.461 -0.666,0.818 1.612,1.215 3.262,2.137 5.083,2.755 0.35,0.122 0.77,0.126 1.058,0.325 2.84,1.974 6.246,2.651 9.331,4.063 1.675,0.764 2.657,1.946 3.195,3.609 0.094,0.282 0.18,0.628 0.105,0.901 -0.828,3.001 0.011,5.513 2.122,7.723 0.493,0.52 0.828,1.24 1.089,1.923 0.788,2.075 1.5,4.181 2.248,6.269 0.235,0.66 0.322,1.265 -0.007,1.962 -0.525,1.11 -0.422,2.114 0.225,3.311 0.569,1.05 0.591,2.506 0.508,3.761 -0.058,0.888 -0.03,1.677 0.192,2.528 0.26,1.008 0.314,2.064 0.478,3.227 -1.464,0.167 -1.555,1.177 -1.688,2.283 -0.416,3.523 -1.248,6.955 -2.884,10.123 -1.678,3.241 -3.403,6.461 -5.211,9.634 -0.605,1.06 -1.505,1.961 -2.318,2.896 -0.459,0.532 -1.035,0.706 -1.596,0.098 -0.708,-0.774 -1.349,-0.653 -2.056,0.037 -0.792,0.773 -2.105,1.055 -2.121,2.548 -0.003,0.312 -0.704,0.617 -1.137,0.973 -0.519,-0.246 -0.997,-0.472 -1.542,-0.733 -0.564,0.775 -0.733,2.024 -2.145,1.635 -0.173,-0.051 -0.621,0.512 -0.777,0.863 -0.344,0.773 -0.597,1.59 -0.866,2.395 -0.513,1.547 -0.506,1.549 -2.12,1.489 -1.313,1.442 -2.213,3.834 -5.061,2.366 l 0,1.969 c -0.809,0.09 -1.87,-0.54 -2.197,0.872 -0.083,0.357 -1.088,0.503 -1.707,0.761 0.723,1.019 1.593,0.865 2.671,0.457 -0.449,0.968 -1.132,1.229 -1.755,1.173 -1.813,-0.173 -2.901,0.677 -3.59,2.235 l 0.013,0.039 c -0.491,-2.882 -0.735,-3.098 -3.651,-3.219 -0.244,-0.01 -0.493,-0.035 -0.74,-0.054 -1.819,-0.147 -2.011,-0.496 -1.269,-2.31 1.36,-0.39 0.91,1.004 1.563,1.6 1.601,-1.267 3.208,-2.541 4.816,-3.815 -0.056,-0.118 -0.114,-0.234 -0.171,-0.354 -0.434,0.057 -0.869,0.109 -1.432,0.182 -0.07,-0.337 -0.141,-0.667 -0.237,-1.119 -0.7,0.426 -1.364,0.83 -2.15,1.311 0.136,0.455 0.278,0.94 0.408,1.391 -0.626,0.559 -1.025,0.304 -1.533,-0.055 -1.603,-1.136 -2.784,-0.527 -2.95,1.439 -0.048,0.582 -0.214,1.158 -0.357,1.903 -2.1,-0.995 -3.627,-0.041 -5.204,0.929 -1.46,0.896 -3.035,1.604 -4.519,2.469 -0.5,0.291 -0.879,0.806 -1.313,1.217 l 0.05,-0.054 c -0.288,0.106 -0.6,0.181 -0.865,0.329 -1.891,1.054 -3.81,2.015 -5.981,2.392 -0.529,0.091 -1.004,0.464 -1.515,0.677 -0.451,0.19 -0.94,0.518 -1.379,0.47 -1.855,-0.204 -3.5,0.601 -5.233,0.963 -1.024,0.214 -2.058,0.555 -2.856,-0.463 -1.298,1.779 -1.791,1.9 -3.941,1.01 -0.458,1.482 -2.071,0.925 -3.191,1.826 0.055,0.579 0.119,1.282 0.198,2.107 -0.267,0.185 -0.628,0.437 -0.988,0.687 0.036,0.111 0.074,0.225 0.111,0.338 1.366,-0.16 2.732,-0.318 4.147,-0.484 0.102,-0.487 0.166,-0.839 0.251,-1.184 0.339,-1.357 1.501,-2.164 2.87,-1.949 0.205,0.03 0.517,0.252 0.538,0.412 0.032,0.251 -0.074,0.694 -0.243,0.769 -0.659,0.276 -1.363,0.44 -2.084,0.767 1.121,-0.062 2.009,0.295 2.515,1.257 0.499,-0.106 0.902,-0.189 1.496,-0.316 0.064,0.7 0.121,1.286 0.194,2.109 0.791,-0.101 1.733,0.008 2.414,-0.362 1.028,-0.563 1.898,-0.573 2.988,-0.258 1.404,0.406 2.807,0.315 3.92,-0.905 0.366,-0.401 0.892,-0.649 1.431,-1.027 -0.332,-0.746 -0.693,-1.562 -1.116,-2.511 -0.346,0.567 -0.518,1.188 -0.911,1.396 -0.423,0.226 -1.051,0.051 -1.59,0.073 -0.741,0.034 -1.482,0.124 -2.224,0.118 -0.305,-0.002 -0.609,-0.187 -0.922,-0.594 0.835,-0.283 1.671,-0.564 2.619,-0.883 -0.068,-0.578 -0.13,-1.146 -0.196,-1.731 0.93,-0.098 1.766,-0.226 2.607,-0.262 0.685,-0.031 1.383,0.825 1.603,1.765 0.162,0.686 0.403,1.353 0.677,2.251 1.2,-0.916 2.224,-1.542 3.622,-1.191 0.213,1.069 -0.129,1.965 -0.935,2.711 -0.403,0.374 -0.801,0.773 -1.264,1.076 -0.933,0.616 -1.358,1.344 -0.941,2.489 0.088,0.248 -0.244,0.647 -0.444,1.122 -0.777,-1.098 -1.389,-1.955 -2.054,-2.894 -0.166,0.054 -0.468,0.059 -0.599,0.209 -0.779,0.919 -1.847,1.179 -2.938,1.438 -0.414,0.1 -0.864,0.222 -1.174,0.479 -0.225,0.192 -0.408,0.668 -0.329,0.931 0.079,0.259 0.495,0.543 0.796,0.584 1.2,0.171 1.971,-0.44 2.342,-1.959 0.747,0.477 1.43,0.907 2.397,1.525 -1.857,0.739 -3.461,1.422 -5.101,2.021 -2.531,0.93 -5.223,1.34 -7.717,2.437 -1.138,0.5 -2.484,0.509 -3.716,0.808 -1.424,0.349 -2.83,0.769 -4.242,1.164 -0.177,0.052 -0.347,0.179 -0.524,0.185 -2.761,0.089 -5.285,1.522 -8.09,1.42 -0.58,-0.021 -1.225,0.181 -1.748,0.457 -2.193,1.159 -4.41,0.855 -6.666,0.278 -0.567,-0.146 -1.175,-0.133 -1.765,-0.198 -0.424,-0.05 -0.861,-0.066 -1.27,-0.181 -1.222,-0.332 -2.428,-0.727 -3.652,-1.039 -0.237,-0.061 -0.542,0.134 -0.812,0.222 -1.092,0.359 -2.119,0.443 -3.063,-0.433 -0.343,-0.316 -0.857,-0.438 -1.277,-0.677 -0.792,-0.448 -1.587,-0.891 -1.843,-1.888 -0.06,-0.236 -0.32,-0.597 -0.492,-0.599 -1.035,-0.007 -0.952,-0.783 -1.077,-1.431 l -0.044,0.053 c 0.097,-0.407 0.195,-0.813 0.312,-1.312 -0.89,-0.044 -1.659,-0.078 -2.565,-0.12 0.307,-1.05 0.413,-2.008 1.714,-1.943 0.017,-1.541 0.463,-2.899 -0.134,-4.335 -0.246,-0.593 0.115,-1.441 0.211,-2.287 -0.856,-0.306 -1.611,-0.802 -2.789,-0.779 -1.047,0.016 -2.35,-0.55 -3.17,-1.597 -0.44,-0.564 -0.844,-1.249 -1.785,-1.117 -0.257,0.038 -0.651,-0.152 -0.815,-0.363 -1.3,-1.671 -3.085,-1.71 -4.95,-1.583 -1.283,0.087 -2.384,-0.362 -3.575,-0.891 -0.936,-0.415 -2.011,-0.669 -2.942,-1.2 -0.415,-0.239 -0.836,-0.496 -1.166,-0.835 -0.593,-0.611 -0.823,-1.283 0.196,-1.881 -1.845,-0.991 -1.919,-2.775 -2.484,-4.257 0.778,-0.87 1.315,-0.041 2.092,0.078 -0.43,-1.067 -1.309,-1.85 -0.48,-3.197 0.69,-1.123 1.722,-1.237 2.423,-1.641 0.072,-1.07 -0.017,-1.981 0.225,-2.798 0.33,-1.127 -0.355,-1.783 -0.907,-2.474 -0.497,-0.617 -0.971,-1.132 -0.356,-2.11 0.517,0.122 1.081,0.257 1.692,0.402 0.117,1.027 0.488,1.684 1.348,2.293 0.683,0.483 0.84,1.711 1.372,2.937 -0.484,0.232 -0.986,0.471 -1.824,0.871 1.388,0.529 2.227,0.849 3.272,1.248 -0.254,-1.1 -0.569,-1.96 -0.625,-2.841 -0.053,-0.853 0.163,-1.721 0.263,-2.599 -0.307,-0.269 -0.616,-0.538 -1.123,-0.98 1.41,-0.542 2.033,-1.656 2.782,-2.679 0,1.098 -0.085,2.199 0.024,3.285 0.106,1.047 -0.233,2.245 0.923,3.259 0.105,-0.939 -0.063,-1.958 1.32,-2.051 0.048,0.629 0.099,1.261 0.149,1.904 0.564,0.486 1.055,0.229 1.44,-0.221 0.683,-0.795 1.401,-1.411 2.799,-0.588 -0.514,-1.729 -0.133,-2.578 1.172,-3.206 0.743,-0.357 1.192,-1.327 1.886,-2.155 0.562,1.214 -0.48,1.562 -0.803,2.369 1.017,0.854 0.151,1.962 0.004,3.029 0.13,0.022 0.263,0.047 0.394,0.069 0.514,-1.066 1.224,-2.088 1.492,-3.213 0.262,-1.102 1.782,-1.688 1.195,-3.193 -0.412,0.036 -0.805,0.065 -1.195,0.098 0.005,-0.135 -0.031,-0.311 0.024,-0.35 0.748,-0.533 1.443,-1.22 2.278,-1.525 1.647,-0.604 2.055,-1.92 2.35,-3.387 0.102,-0.514 0.212,-1.022 0.318,-1.525 1.753,0.32 1.832,0.313 2.004,1.994 0.095,0.917 -0.138,1.871 -0.256,3.151 0.098,0.218 0.515,0.791 0.595,1.406 0.078,0.576 -0.581,1.269 0.47,1.814 0.196,-0.568 0.304,-1.089 0.552,-1.532 0.239,-0.429 0.623,-0.778 1.099,-1.345 -0.085,-0.177 -0.287,-0.603 -0.544,-1.14 1.068,-0.785 1.079,-1.899 1.204,-3.169 0.281,-2.878 0.985,-5.722 1.521,-8.577 0.102,-0.546 0.398,-1.115 0.308,-1.623 -0.305,-1.715 0.264,-3.309 0.53,-4.943 0.181,-1.115 0.292,-2.183 -0.542,-3.384 -0.166,0.438 -0.264,0.687 -0.354,0.939 -0.28,0.781 -0.099,1.651 -1.189,2.2 -1,0.504 -0.906,1.859 -0.644,2.886 0.285,1.117 -0.007,1.813 -0.854,2.591 -1.268,1.168 -1.595,2.846 -1.967,4.652 0.445,-0.018 0.813,-0.034 1.31,-0.059 -0.041,0.403 -0.079,0.795 -0.13,1.301 -0.497,-0.031 -0.903,-0.059 -1.375,-0.091 -0.194,0.405 -0.399,0.833 -0.74,1.542 -0.522,-0.771 -1.275,-1.374 -1.225,-1.9 0.162,-1.717 -0.293,-3.528 0.732,-5.148 0.38,-0.6 0.673,-1.312 0.327,-2.12 -0.105,-0.241 0.139,-0.636 0.307,-1.281 0.348,0.588 0.52,0.879 0.701,1.188 0.424,-0.644 0.651,-1.2 0.02,-1.935 -0.283,-0.332 -0.34,-1.099 -0.166,-1.533 0.293,-0.737 0.793,-1.359 0.502,-2.25 -0.051,-0.162 0.381,-0.557 0.658,-0.727 0.265,-0.165 0.624,-0.18 0.976,-0.579 -0.39,-0.155 -0.778,-0.313 -1.178,-0.476 -0.033,-0.106 -0.132,-0.25 -0.095,-0.333 0.445,-0.949 0.586,-1.923 0.669,-2.985 0.146,-1.898 0.641,-3.772 0.976,-5.658 0.076,-0.412 0.153,-0.845 0.124,-1.258 -0.129,-1.784 -0.3,-3.562 -0.449,-5.342 -0.125,-1.473 -0.239,-2.945 -0.377,-4.673 0.697,0.042 1.324,0.077 2.074,0.124 -0.373,-1.627 0.844,-2.64 1.801,-3.97 0.349,0.389 0.595,0.715 0.888,0.992 0.869,0.807 2.085,0.91 2.845,0.269 0.823,-0.692 0.823,-0.692 2.153,-0.367 0.5,1.998 1.136,4.022 -0.083,6.111 1.644,1.237 1.289,2.935 1.135,4.581 -0.122,1.29 -0.264,2.578 -0.379,3.695 0.502,0.343 1.151,0.687 1.119,0.775 -0.615,1.614 0.204,3.743 -1.84,4.868 0.809,1.107 2.124,1.954 1.331,3.713 -0.146,-0.499 -0.262,-0.892 -0.386,-1.312 -1.811,0.827 -1.709,2.523 -1.939,4.024 -0.136,0.907 -0.103,1.838 -0.162,3.107 -0.451,-0.416 -0.638,-0.717 -0.89,-0.79 -0.229,-0.067 -0.529,0.11 -0.794,0.179 0.059,-1.328 0.116,-2.577 0.186,-4.1 -0.03,0.012 0.226,-0.099 0.485,-0.212 -0.007,-0.109 0.032,-0.274 -0.023,-0.32 -0.877,-0.713 -0.683,-1.503 -0.188,-2.316 0.336,-0.553 0.644,-1.092 -0.402,-1.6 0.224,1.275 -1.139,1.89 -0.765,3.355 0.27,1.06 -0.445,2.361 -0.693,3.563 -0.249,1.208 -0.553,2.413 -0.669,3.636 -0.116,1.22 -0.024,2.459 -0.024,3.765 0.322,0.126 0.689,0.271 1.118,0.438 -0.976,2.752 -1.719,5.452 -1.132,8.252 -2.263,2.341 -1.86,5.141 -1.402,8.107 -0.283,-0.042 -0.546,-0.074 -0.811,-0.118 -1.529,-0.247 -1.789,0.104 -1.225,1.66 -1.047,0.645 -1.047,0.645 -2.183,-0.613 -0.201,0.695 -0.379,1.312 -0.583,2.015 0.745,0.075 1.39,-0.032 1.807,0.229 0.43,0.268 0.638,0.895 0.938,1.357 0.935,-0.752 2.387,-0.941 3.566,-2.012 -0.201,-1.522 1.129,-2.491 1.965,-4.052 0.903,1.955 0.713,3.726 0.568,5.503 0.836,-2.119 2.017,-4.221 0.065,-6.525 0.353,-0.147 0.655,-0.275 0.98,-0.406 0.392,-1.19 -0.903,-1.095 -1.471,-1.884 0.167,-0.356 0.358,-1.207 0.607,-1.223 1.136,-0.073 1.011,-1.068 1.509,-1.987 0.521,2.051 -0.693,4.13 0.904,5.464 -0.176,1.565 -0.333,2.977 -0.499,4.453 1.018,-0.19 1.256,-0.933 1.496,-1.614 0.73,-2.076 1.017,-2.289 3.197,-2.143 0.182,0.014 0.36,0.05 0.609,0.084 0.243,0.466 0.492,0.945 0.869,1.67 0.326,-0.439 0.674,-0.711 0.75,-1.041 0.482,-2.073 1.503,-3.868 2.674,-5.608 0.301,-0.445 0.482,-1.021 0.55,-1.558 0.259,-2.009 0.884,-4.004 0.13,-6.053 -0.153,-0.415 0.021,-0.952 0.043,-1.438 0.467,0.659 0.89,1.257 1.312,1.854 l -0.018,-0.021 z"
         id="path4380"
         inkscape:connector-curvature="0"
         style="fill:#009a93" /><path
         clip-path="url(#SVGID_2_)"
         d="m 415.654,262.652 c -0.181,-0.059 -0.331,-0.134 -0.485,-0.146 -0.067,-0.004 -0.146,0.121 -0.217,0.187 0.146,0.083 0.28,0.188 0.438,0.231 0.048,0.014 0.145,-0.146 0.264,-0.272 m -9.659,13.641 c -0.028,-0.097 -0.029,-0.241 -0.094,-0.28 -0.073,-0.042 -0.203,0.009 -0.305,0.021 0.037,0.128 0.076,0.256 0.115,0.382 0.094,-0.039 0.19,-0.083 0.284,-0.123 m -77.689,57.611 c -0.144,0.051 -0.286,0.104 -0.429,0.153 0.117,0.277 0.235,0.549 0.354,0.823 0.1,-0.046 0.29,-0.11 0.286,-0.137 -0.054,-0.282 -0.136,-0.56 -0.211,-0.839 m 89.575,-62.759 c 0.072,-0.121 0.144,-0.241 0.217,-0.361 -0.445,-0.222 -0.891,-0.448 -1.334,-0.67 -0.057,0.104 -0.113,0.209 -0.169,0.314 0.429,0.239 0.855,0.477 1.286,0.717 m -92.417,85.223 c -0.113,-0.013 -0.222,-0.027 -0.334,-0.04 -0.055,0.353 -0.109,0.707 -0.166,1.062 0.121,0.016 0.245,0.029 0.366,0.042 0.045,-0.352 0.089,-0.706 0.134,-1.064 m 79.564,-96.805 c 0.559,0.647 1.179,1.055 2.009,0.572 -0.669,-0.191 -1.339,-0.381 -2.009,-0.572 m 18.698,7.35 c 0.015,-1.725 -0.937,-1.563 -1.604,-1.795 -0.087,0.117 -0.174,0.229 -0.261,0.345 0.517,0.404 1.039,0.807 1.865,1.45 m -1.244,26.855 c 0.182,-1.678 0.172,-1.674 -1.355,-2.197 0.512,0.827 0.855,1.384 1.355,2.197 M 396.396,259.9 c -0.047,0.131 -0.094,0.265 -0.143,0.394 0.677,0.441 1.354,0.877 2.16,1.398 0.204,-0.489 0.343,-0.837 0.566,-1.383 -0.98,-0.154 -1.781,-0.282 -2.583,-0.409 m -76.013,77.323 c -0.145,2.088 -2.112,3.865 -0.175,6.016 0.179,-0.875 0.479,-1.6 0.425,-2.297 -0.064,-0.825 -0.101,-1.553 0.388,-2.276 0.356,-0.534 0.246,-1.036 -0.638,-1.443 m 78.373,-58.395 c -0.467,-0.481 -0.977,-1 -1.637,-1.682 -0.373,0.47 -0.8,1.014 -1.23,1.554 -0.588,0.06 -1.176,0.121 -1.52,0.154 0.371,0.704 0.741,1.405 1.11,2.105 0.796,0.175 0.414,-1.258 1.494,-1.016 0.487,0.11 1.188,-0.718 1.783,-1.115 m -83.277,62.516 c 0.028,0.52 0.056,1.043 0.086,1.562 0.502,-0.595 1.289,-1.255 -0.149,-1.512 0.578,-0.557 1.071,-1.397 2.03,-0.778 0.137,1.018 -1.453,1.706 -0.214,2.795 0.183,-0.272 0.387,-0.453 0.431,-0.669 0.378,-1.86 0.632,-3.753 1.123,-5.582 0.451,-1.677 -0.21,-2.676 -1.529,-3.471 -1.031,0.822 -2.098,2.548 -2.429,3.989 -0.043,0.183 0.139,0.411 0.249,0.707 0.628,-0.271 1.136,-0.493 2.021,-0.876 -0.781,1.041 -1.283,1.742 -1.817,2.416 -0.446,0.559 -0.337,1.011 0.198,1.419 m 93.085,-53.673 0.054,0.056 c -1.117,-0.566 -2.245,-1.069 -3.587,-0.963 -0.122,0.337 -0.337,0.636 -0.3,0.897 0.103,0.752 1.402,0.666 1.246,1.676 -0.008,0.052 0.305,0.157 0.472,0.228 0.051,0.021 0.142,0.034 0.177,0.006 0.95,-0.7 1.887,-0.098 2.839,-0.012 0.411,0.036 0.85,-0.21 1.502,-0.389 -0.831,-0.868 -1.207,-1.835 -2.403,-1.499 m -6.416,44.951 c -0.089,-0.065 -0.208,-0.205 -0.268,-0.185 -2.76,0.997 -5.7,1.537 -8.288,3.321 -0.081,1.823 -1.33,2.713 -3.089,3.104 -1.122,0.248 -1.122,0.248 -1.964,-0.879 -1.385,-0.49 -2.265,0.84 -3.627,0.732 -1.271,-0.1 -2.592,0.365 -3.849,0.985 -1.12,0.555 -2.496,0.591 -3.88,0.878 -0.335,-0.559 -0.668,-1.113 -1.05,-1.756 -0.952,0.543 -1.885,0.828 -2.992,0.634 -0.508,-0.089 -1.138,0.352 -1.676,0.629 -0.593,0.305 -1.116,0.748 -1.713,1.043 -2.457,1.203 -4.686,2.854 -7.338,3.677 -0.32,0.102 -0.578,0.411 -1.054,0.764 0.442,0.225 0.704,0.433 0.993,0.487 0.267,0.05 0.708,-0.207 0.828,-0.085 0.632,0.626 1.271,0.492 2.047,0.322 1.298,-0.287 1.606,0.16 1.287,1.769 -1.299,-0.285 -2.593,-0.664 -3.955,-0.146 -0.431,0.164 -1.044,-0.153 -1.674,-0.274 0.237,0.594 0.429,1.074 0.662,1.655 -0.465,0.286 -0.959,0.821 -1.262,0.73 -1.089,-0.322 -1.864,0.249 -2.578,0.788 -0.942,0.71 -1.786,0.255 -2.538,-0.119 -0.883,-0.439 -1.605,-0.487 -2.483,0.072 0.354,0.565 0.666,1.062 1.116,1.783 -2.248,0.489 -4.646,-0.753 -6.474,1.335 -0.297,-0.678 -0.478,-1.093 -0.664,-1.514 -1.567,-0.022 -2.621,0.472 -2.822,1.674 -0.243,1.453 -1.082,1.796 -2.324,1.769 -0.357,-0.007 -0.718,-0.002 -1.411,-0.002 0.399,-0.71 0.678,-1.208 1.036,-1.849 0.334,0.238 0.579,0.498 0.876,0.6 0.798,0.269 1.402,-0.247 0.978,-0.881 -0.624,-0.933 -0.083,-1.248 0.535,-1.55 0.885,-0.427 1.795,-0.835 2.739,-1.103 2.075,-0.598 4.177,-1.112 6.276,-1.631 0.41,-0.1 0.869,-0.142 1.275,-0.061 0.841,0.163 1.517,-0.022 2.282,-0.437 0.709,-0.38 1.626,-0.369 2.588,-0.559 -0.079,-1.449 0.585,-2.625 2.286,-3.146 -1.336,-0.55 -3.808,0.292 -4.646,1.26 -1.295,0.311 -2.265,0.595 -3.253,0.767 -1.658,0.288 -3.14,0.938 -4.651,1.676 -2.214,1.079 -4.562,1.883 -6.883,2.73 -1.385,0.505 -2.836,0.833 -4.233,1.318 -0.433,0.15 -0.781,0.546 -1.17,0.832 l 0.038,-0.021 c -0.857,-0.111 -1.494,-0.17 -2.186,0.783 -0.456,0.621 -1.75,1.358 -2.78,0.967 -1.118,-0.42 -2.06,0.1 -3.071,0.173 -0.367,0.026 -0.79,0.509 -1.031,0.884 -0.687,1.076 -1.31,2.189 -2.69,3.028 -0.392,-0.939 -0.729,-1.754 -1.16,-2.789 -1.606,0.365 -3.367,0.825 -5.151,1.154 -1.576,0.295 -3.174,0.529 -4.771,0.637 -1.49,0.1 -2.828,0.271 -4.095,1.277 -0.875,0.695 -2.164,0.857 -3.246,1.309 -0.733,0.302 -1.448,0.657 -2.131,1.054 -0.585,0.338 -1.15,0.733 -1.662,1.176 -2.656,2.287 -5.955,2.545 -9.196,2.856 -1.893,0.184 -3.356,-1.03 -4.882,-1.958 -1.556,-0.942 -2.154,-2.434 -2.472,-4.108 -0.164,-0.855 0.077,-1.517 0.683,-2.189 0.68,-0.751 1.516,-1.406 1.761,-2.538 0.075,-0.342 0.837,-0.579 1.319,-0.779 0.371,-0.152 0.798,-0.167 1.544,-0.312 -1.497,-0.983 -1.693,-2.276 -1.814,-3.718 1.118,-0.199 1.912,0.646 2.875,0.887 0.384,-0.438 1.192,-0.534 0.884,-1.528 -0.09,-0.298 0.826,-0.906 1.129,-1.219 -0.075,-0.985 -0.245,-1.859 -0.166,-2.71 0.036,-0.413 0.493,-1.079 0.822,-1.122 1.112,-0.14 1.503,-1.156 2.267,-1.603 2.414,-1.406 3.599,-3.842 5.281,-5.855 0.378,-0.45 0.705,-0.688 1.277,-0.887 1.452,-0.498 2.844,-1.176 4.244,-1.82 0.99,-0.457 1.753,-1.18 2.152,-2.216 0.312,-0.818 0.922,-1.282 1.672,-1.647 0.938,-0.452 1.841,-0.982 2.777,-1.438 1.271,-0.619 2.412,-1.212 3.196,-2.614 0.474,-0.846 1.908,-1.414 2.995,-1.6 2.111,-0.357 4.188,-0.796 6.235,-1.41 0.092,-0.023 0.223,0.077 0.424,0.152 0.446,1.403 -0.394,2.244 -1.449,3.007 -0.284,-0.13 -0.607,-0.275 -1.038,-0.465 -0.218,0.485 -0.41,0.917 -0.568,1.269 0.051,0.171 0.047,0.263 0.084,0.284 2.363,1.331 1.091,3.598 1.368,5.448 0.147,0.966 0.028,1.974 0.028,3.399 1.111,-1.771 0.051,-3.962 2.021,-4.912 0.478,0.479 0.989,0.99 1.799,1.794 -0.121,0.71 -0.373,1.784 -0.464,2.872 -0.091,1.063 -0.02,2.145 -0.02,3.255 0.947,-0.04 1.033,-0.759 1.244,-1.28 0.549,-1.377 1.054,-2.779 1.528,-4.184 0.134,-0.396 0.271,-0.914 0.127,-1.264 -0.828,-2.024 0.268,-3.875 0.448,-5.799 0.022,-0.227 0.154,-0.557 0.323,-0.635 1.246,-0.554 1.172,-1.633 1.091,-2.685 -0.056,-0.745 0.173,-1.272 0.979,-1.858 0.038,0.551 0.119,0.88 0.072,1.19 -0.081,0.544 -0.309,1.072 -0.347,1.619 -0.038,0.553 0.03,1.163 0.722,1.345 0.599,0.161 1.193,0.325 1.656,-0.357 0.395,-0.581 0.884,-1.102 1.535,-1.893 0.169,1.074 0.15,1.824 -0.181,2.521 -0.572,1.205 -1.565,2.33 -0.478,3.735 -0.525,1.632 0.177,3.696 -1.848,4.743 0.406,1.029 0.711,1.886 1.784,2.271 1.105,0.395 0.907,1.471 0.937,2.228 0.741,0.628 1.385,1.173 2.182,1.846 1.532,-0.853 3.127,-1.74 4.812,-2.677 -0.177,-0.674 -0.417,-1.424 0.876,-1.527 0.834,-0.07 1.635,-0.525 2.456,-0.791 0.288,-0.094 0.691,-0.301 0.866,-0.187 0.982,0.633 1.767,0.006 2.613,-0.297 0.967,-0.345 2.243,-0.386 1.968,-2.017 0.184,0.285 0.369,0.57 0.587,0.908 1.039,-0.33 1.889,-0.83 2.625,-1.846 -0.826,-0.044 -1.443,-0.082 -2.452,-0.141 0.538,-0.554 0.773,-0.88 1.082,-1.099 0.903,-0.646 1.819,-1.282 2.767,-1.851 0.32,-0.193 0.763,-0.18 1.148,-0.261 0.056,0.373 0.116,0.746 0.189,1.209 0.469,-0.199 0.958,-0.406 1.485,-0.628 0.669,0.497 1.302,0.968 2.054,1.522 -0.768,0.688 -1.464,1.358 -0.879,2.698 1.509,-1.857 3.863,-2.043 5.586,-3.361 0.545,-0.416 0.888,-1.095 1.38,-1.728 0.211,0.111 0.516,0.271 0.87,0.462 0.086,-0.181 0.254,-0.365 0.214,-0.469 -0.229,-0.614 -0.132,-1.071 0.455,-1.428 2.431,-1.469 4.847,-2.959 7.277,-4.428 0.198,-0.119 0.459,-0.132 0.855,-0.234 0.21,0.602 0.406,1.156 0.605,1.703 0.587,0.365 0.587,0.365 0.88,-0.259 -0.365,0.119 -0.646,0.215 -0.925,0.311 0.191,-0.312 0.31,-0.748 0.586,-0.911 1.577,-0.941 3.184,-1.829 4.794,-2.704 0.252,-0.138 0.655,-0.242 0.884,-0.14 1.184,0.544 2.024,-0.133 2.886,-0.723 1.369,-0.945 2.739,-1.893 3.529,-3.447 0.185,-0.365 0.511,-0.7 0.85,-0.946 0.886,-0.648 1.817,-1.237 2.724,-1.858 1.549,-1.058 2.702,-2.505 3.82,-3.977 0.414,-0.55 0.925,-1.097 0.489,-2.009 -0.196,-0.408 0.244,-1.119 0.407,-1.73 1.279,0.06 1.649,0.767 1.52,2.045 1.749,-1.487 3.529,-2.602 2.825,-5.209 -0.302,0.068 -0.526,0.117 -0.744,0.178 -0.177,0.049 -0.347,0.116 -0.576,0.197 -0.079,-0.167 -0.175,-0.309 -0.215,-0.465 -0.342,-1.345 -1.23,-2.53 -1.072,-4.04 0.058,-0.547 -0.478,-0.813 -1.061,-0.75 -0.719,0.079 -1.438,0.152 -2.105,0.221 -0.833,-2.1 -2.267,-2.666 -4.337,-1.821 -0.457,0.185 -0.871,0.479 -1.333,0.65 -0.478,0.175 -0.988,0.267 -1.223,-0.427 0.845,-1 1.699,-2.013 2.62,-3.109 -0.395,-0.353 -0.602,-0.703 -0.828,-0.715 -2.479,-0.113 -4.632,-1.233 -6.882,-2.098 -2.649,-1.018 -5.413,-1.746 -8.041,-2.805 -2.164,-0.873 -4.213,-2.039 -6.307,-3.087 -0.271,-0.136 -0.5,-0.45 -0.771,-0.486 -2.92,-0.363 -4.75,-2.549 -6.907,-4.146 -2.421,-1.795 -4.713,-3.769 -7.155,-5.741 -1.249,1.086 -2.438,0.424 -3.476,-0.568 -2.702,-2.572 -5.144,-5.345 -6.857,-8.715 -1.705,-3.353 -2.086,-6.821 -1.199,-10.458 0.417,-1.725 0.733,-3.484 1.272,-5.174 0.346,-1.078 1.012,-2.054 1.622,-3.251 1.05,1.417 -0.692,2.053 -0.471,3.054 0.715,-0.342 1.449,-0.692 2.318,-1.106 -0.086,-0.307 -0.248,-0.626 -0.255,-0.948 -0.012,-0.577 0.068,-1.198 0.895,-1.04 0.907,0.171 1.197,-0.437 1.498,-1.069 0.677,-1.443 1.296,-2.916 2.054,-4.317 1.332,-2.471 3.155,-4.578 5.117,-6.568 0.67,-0.683 1.449,-1.311 1.654,-2.491 -0.463,-0.052 -0.812,-0.154 -1.146,-0.123 -2.466,0.243 -4.935,0.459 -7.386,0.783 -4.278,0.565 -8.53,0.549 -12.778,-0.223 -1.464,-0.266 -2.922,-0.551 -4.389,-0.795 -1.315,-0.214 -2.44,-0.673 -3.428,-1.67 -0.561,-0.57 -1.521,-0.781 -2.333,-1.058 -0.604,-0.205 -1.026,-0.412 -1.375,-1.057 -0.35,-0.639 -1.11,-1.085 -1.753,-1.528 -0.93,-0.635 -1.379,-1.307 -1.364,-2.583 0.016,-1.43 -0.431,-2.924 -0.954,-4.284 -0.51,-1.322 -0.647,-2.6 -0.583,-3.989 0.135,-2.936 0.64,-5.751 1.734,-8.511 0.85,-2.15 2.171,-3.898 3.798,-5.424 1.441,-1.349 3.005,-2.593 4.63,-3.717 0.934,-0.647 2.096,-0.964 3.156,-1.43 0.392,-0.174 0.788,-0.345 1.174,-0.535 0.388,-0.196 0.742,-0.474 1.15,-0.604 3.713,-1.186 7.429,-2.37 11.16,-3.494 0.698,-0.213 1.468,-0.199 2.207,-0.229 3.397,-0.146 6.799,-0.264 10.201,-0.408 1.362,-0.06 2.724,-0.14 4.079,-0.269 4.306,-0.41 8.612,-0.82 12.911,-1.289 4.188,-0.453 8.357,-1.114 12.555,-1.422 2.521,-0.187 5.093,-0.019 7.616,0.253 2.634,0.282 5.298,0.668 7.845,1.381 7.451,2.087 12.293,6.88 14.257,14.439 0.363,1.398 0.285,2.792 -0.04,4.224 -0.918,4.049 -1.73,8.122 -2.568,12.186 -0.532,2.596 -1.63,4.937 -3.291,6.978 -1.354,1.667 -2.252,3.505 -2.882,5.56 -0.775,2.54 -2.566,4.53 -4.421,6.309 -3.695,3.539 -7.936,6.28 -12.874,7.86 -0.858,0.274 -1.609,0.911 -2.373,1.432 -0.816,0.559 -1.591,1.174 -2.408,1.782 0.053,0.538 0.105,1.102 0.166,1.723 1.145,0.468 2.144,1.1 3.62,0.928 0.959,-0.111 2.055,0.94 3.088,1.475 0.758,0.392 1.524,0.764 2.26,1.189 0.645,0.376 1.253,0.816 1.806,1.36 3.085,0.058 5.979,0.999 8.827,2.276 1.338,0.601 2.847,0.803 4.271,1.213 0.463,0.13 1.078,0.204 1.319,0.531 0.679,0.918 1.584,1.126 2.602,1.135 1.306,0.009 2.367,0.651 3.4,1.322 0.298,0.192 0.411,0.678 0.654,1.112 1.604,-0.441 3.127,-0.177 4.615,0.83 1.374,0.93 3.141,1.404 3.013,3.643 -0.163,0.13 -0.423,0.338 -0.854,0.678 5.147,3.994 8.041,9.226 9.073,15.521 -0.452,-0.982 -0.904,-1.966 -1.394,-3.041 -0.506,0.239 -0.862,0.403 -1.158,0.544 -0.65,-1.544 -1.264,-3.023 -1.899,-4.491 -0.24,-0.555 -0.509,-0.924 -1.258,-1.131 -1.006,-0.276 -1.868,-1.078 -2.803,-1.639 -1.103,-0.657 -2.202,-1.317 -3.323,-1.936 -0.808,-0.44 -1.012,-1.172 -1.166,-1.989 -0.162,-0.865 -0.414,-1.715 -0.715,-2.921 0.175,-0.115 0.628,-0.416 1.151,-0.758 -1.096,-0.758 -2.028,-1.401 -2.806,-1.938 -0.904,0.517 -1.61,0.92 -2.235,1.277 -0.524,-0.487 -0.919,-0.854 -1.428,-1.33 -0.395,0.787 -0.663,1.325 -0.884,1.771 -1.58,0.541 -3.004,-0.076 -4.447,-0.249 -1.464,-0.178 -2.942,-0.455 -4.153,-1.446 -0.196,-0.388 -0.607,-0.832 -0.533,-1.174 0.234,-1.061 -0.107,-2.136 -0.955,-2.303 -1.026,-0.204 -1.283,-1.447 -2.47,-1.306 -1.366,0.166 -2.768,0.039 -4.281,0.039 -0.542,2.322 -2.377,0.537 -3.64,1.169 -0.111,0.647 -0.232,1.352 -0.357,2.071 0.45,0.308 1.093,0.506 1.191,0.856 0.466,1.672 1.889,1.371 3.295,1.887 -0.207,-0.61 -0.311,-0.922 -0.417,-1.235 l -0.037,0.036 c 1.029,-0.38 2.126,-0.445 3.014,0.158 1.851,1.264 3.533,0.939 5.219,-0.247 0.304,0.498 0.613,0.995 0.949,1.536 -0.83,0.989 -1.802,1.151 -3.037,0.66 -0.881,-0.352 -1.859,-0.456 -3.15,-0.752 0.945,1.142 1.906,1.279 2.878,1.324 1.354,0.064 2.717,0.139 4.068,0.065 0.421,-0.024 0.82,-0.508 1.103,-0.696 1.234,0.352 2.366,0.738 3.529,0.993 1.481,0.324 2.16,1.139 1.904,2.664 -0.29,0.076 -0.578,0.147 -1.057,0.268 0.3,0.307 0.479,0.659 0.68,0.669 0.783,0.049 1.427,0.119 1.021,1.167 l 0.037,-0.028 c -1.298,-0.325 -2.592,-0.651 -4.038,-1.012 -0.435,-0.653 -0.725,-1.744 -2.005,-1.623 -0.117,1.638 -0.104,1.612 1.342,2.207 0.731,0.301 1.409,0.729 2.033,1.336 -1.806,-0.459 -3.662,-0.779 -5.392,-1.436 -0.895,-0.341 -1.486,-0.33 -2.231,0.256 0.162,0.324 0.32,0.646 0.354,0.713 0.955,0.074 1.734,-0.01 2.416,0.211 1.554,0.504 3.058,1.157 4.673,1.787 -0.185,0.318 -0.319,0.55 -0.419,0.72 0.49,0.35 0.978,0.689 1.456,1.044 0.197,0.147 0.363,0.45 0.559,0.463 2.031,0.12 1.975,1.59 2.002,3.201 -1.458,-0.856 -3.07,-1.315 -3.744,-3.035 -0.096,-0.239 -0.392,-0.487 -0.639,-0.563 -2.003,-0.605 -4.016,-1.174 -6.033,-1.736 -0.146,-0.043 -0.337,0.066 -0.783,0.164 0.407,0.203 0.593,0.375 0.779,0.373 1.921,-0.012 3.209,1.164 4.463,2.383 0.129,0.124 0.146,0.493 0.061,0.668 -0.082,0.167 -0.389,0.347 -0.571,0.323 -0.791,-0.115 -1.572,-0.297 -2.356,-0.458 l 0.015,-0.003 c 0.178,-0.335 0.354,-0.672 0.584,-1.108 -1.272,-0.446 -2.285,-0.95 -3.534,-0.789 -0.522,0.066 -1.208,-0.257 -1.655,-0.614 -1.024,-0.816 -1.979,-1.188 -3.183,-0.351 -0.29,0.203 -0.794,0.092 -1.422,0.145 0.274,-0.676 0.466,-1.141 0.772,-1.89 -0.965,0.115 -1.714,0.206 -2.785,0.333 0.518,0.873 0.941,1.593 1.489,2.519 -0.533,0.056 -0.98,0.188 -1.399,0.128 -2.027,-0.297 -2.122,-0.264 -3.199,1.996 1.432,0.297 2.814,0.589 4.528,0.949 -0.963,0.912 -1.791,0.816 -2.967,0.708 2.188,1.193 4.071,2.233 5.969,3.242 0.478,0.252 1.011,0.399 1.517,0.593 1.711,0.657 3.427,1.308 5.132,1.987 0.138,0.052 0.21,0.278 0.26,0.35 -0.576,0.704 -1.117,1.368 -1.811,2.222 -0.322,-0.075 -0.89,-0.209 -1.572,-0.367 0.204,0.613 0.369,1.117 0.402,1.217 1.178,0.904 2.07,1.584 2.965,2.266 l -0.063,-0.065 c 0.197,0.489 0.394,0.979 0.592,1.468 -0.111,0.097 -0.224,0.195 -0.334,0.291 -1.039,-0.869 -2.077,-1.734 -3.116,-2.604 -0.085,0.078 -0.167,0.156 -0.25,0.233 0.181,0.28 0.339,0.581 0.553,0.833 0.196,0.23 0.65,0.402 0.656,0.606 0.065,2.229 1.81,2.112 3.499,2.461 0,-0.739 -0.139,-1.472 0.04,-2.108 0.187,-0.654 0.687,-1.215 1.133,-1.957 -0.118,-0.223 -0.314,-0.593 -0.514,-0.965 l -0.054,0.052 c 0.637,0.188 1.273,0.378 1.902,0.567 -0.128,-0.448 -0.253,-0.881 -0.462,-1.609 0.683,0.355 1.084,0.566 1.706,0.891 -0.146,-0.586 -0.244,-0.991 -0.357,-1.437 1.475,0.359 1.604,0.692 0.948,2.488 0.564,0.134 1.113,0.265 1.517,0.36 0.197,-1.037 0.388,-2.044 0.623,-3.305 -0.512,-0.623 -2.257,-0.899 -1.476,-2.702 1.758,1.245 2.471,3.324 3.956,4.795 -0.135,-2.067 -0.135,-2.067 1.284,-2.611 -0.369,-0.357 -0.671,-0.647 -1.035,-0.999 0.135,-0.122 0.299,-0.275 0.469,-0.433 1.511,0.95 1.597,3.554 4.189,3.27 0.228,1.24 0.455,2.488 0.685,3.736 2.402,-0.742 0.419,-2.24 0.728,-3.49 0.401,0.207 0.714,0.37 1.255,0.654 -0.515,-1.917 -0.981,-3.661 -1.523,-5.668 1.735,0.787 2.038,2.237 2.362,3.514 0.279,1.093 0.427,2.169 1.243,3.023 0.149,0.16 0.271,0.454 0.243,0.662 -0.3,2.047 0.558,4.19 -0.52,6.167 0.571,1.306 -0.604,2.151 -0.856,3.24 -0.274,1.193 -0.381,2.461 -0.877,3.556 -0.547,1.205 -1.067,2.526 -2.35,3.25 -0.196,0.111 -0.411,0.287 -0.501,0.485 -0.86,1.898 -1.639,3.835 -2.562,5.702 -1.287,2.598 -3.379,4.55 -5.481,6.479 -1.475,1.358 -3.325,2.059 -5.043,3.009 -2.591,1.433 -5.042,3.115 -7.591,4.625 -1.238,0.732 -2.454,1.738 -4.03,0.972 -0.25,0.63 -0.448,1.129 -0.649,1.626 -0.322,-0.147 -0.645,-0.293 -0.966,-0.44 l 0.027,0.047 z"
         id="path4382"
         inkscape:connector-curvature="0"
         style="fill:#009a93" /><path
         clip-path="url(#SVGID_2_)"
         d="m 671.295,293.098 c -0.187,-0.158 -0.302,-0.323 -0.444,-0.354 -0.082,-0.017 -0.316,0.22 -0.294,0.287 0.043,0.146 0.189,0.317 0.326,0.351 0.095,0.022 0.241,-0.16 0.412,-0.284 m -94.734,39.039 c -0.14,-0.004 -0.278,-0.01 -0.418,-0.015 0.021,0.252 0.028,0.505 0.071,0.756 0.008,0.024 0.197,0.021 0.306,0.032 0.014,-0.258 0.027,-0.515 0.041,-0.773 m 86.102,-43.336 c -0.154,0.025 -0.309,0.051 -0.465,0.077 0.062,0.296 0.126,0.591 0.191,0.885 0.168,-0.034 0.338,-0.074 0.504,-0.109 -0.077,-0.287 -0.151,-0.569 -0.23,-0.853 m 17.738,2.386 c 0.131,-0.069 0.263,-0.137 0.394,-0.205 -0.217,-0.423 -0.434,-0.847 -0.755,-1.479 -0.484,0.963 -0.151,1.358 0.361,1.684 m -25.937,-7.77 c -0.363,-0.698 -0.609,-1.168 -0.992,-1.91 -0.328,1.11 -0.183,1.633 0.992,1.91 m 5.605,1.919 c -0.119,0.095 -0.242,0.193 -0.361,0.291 0.689,0.636 0.813,1.78 2.035,1.957 -0.556,-0.751 -1.115,-1.501 -1.674,-2.248 m -7.768,-3.991 c -0.414,-1.776 -0.414,-1.776 -1.829,-1.178 0.703,0.454 1.264,0.817 1.829,1.178 m 3.646,1.831 c -0.215,0.594 -0.334,0.927 -0.454,1.258 0.856,0.297 0.473,1.81 1.725,1.857 -0.104,-0.702 -0.194,-1.287 -0.283,-1.87 0.104,-0.037 0.214,-0.075 0.315,-0.112 -0.363,-0.315 -0.724,-0.629 -1.303,-1.133 m -88.308,61.174 c 0.396,1.019 0.396,1.019 2.04,1.883 1.655,0.867 1.655,0.867 2.723,0.914 -1.608,-0.945 -3.179,-1.869 -4.763,-2.797 m 13.632,6.446 c -0.04,0.681 0.475,0.774 0.956,0.927 0.554,0.174 1.098,0.377 1.649,0.567 -0.022,0.15 -0.047,0.301 -0.071,0.451 -0.364,0.019 -0.754,0.132 -1.086,0.038 -4.202,-1.192 -8.581,-1.907 -12.238,-4.581 -0.604,-0.443 -1.389,-0.638 -2.067,-0.991 -1.931,-1.012 -3.296,-2.621 -4.64,-4.292 -0.557,-0.689 -1.509,-1.06 -2.288,-1.562 -0.882,-0.572 -1.759,-1.153 -2.658,-1.691 -0.909,-0.542 -1.409,-1.19 -0.679,-2.189 -1.107,-0.907 -2.503,-1.324 -2.998,-2.763 -0.097,-0.283 -0.56,-0.575 -0.886,-0.62 -2.217,-0.288 -3.626,-1.968 -5.373,-3.056 -0.467,-0.287 -0.893,-0.646 -1.3,-0.945 0.427,-1.577 0.292,-1.996 -0.938,-2.851 -0.643,-0.448 -1.249,-0.796 -1.66,-1.615 -0.316,-0.636 -1.369,-0.969 -2.154,-1.288 -1.092,-0.449 -2.161,-0.732 -2.64,-2.078 -0.206,-0.587 -1.084,-0.938 -1.865,-1.567 0.489,-0.131 0.789,-0.212 1.309,-0.354 -0.409,-1.131 -0.812,-2.253 -1.252,-3.464 0.564,-0.481 1.192,-1.021 1.975,-1.689 0.343,1.292 -0.173,2.076 -0.929,2.853 0.374,0.195 0.635,0.327 0.967,0.5 0.439,-0.461 0.526,-1.166 1.434,-1.198 0.78,-0.03 1.175,-0.86 1.456,-1.702 0.442,-1.316 0.936,-2.714 1.794,-3.764 0.978,-1.198 2.486,-1.57 4.065,-0.951 2.807,1.095 5.685,1.945 8.424,3.292 2.092,1.025 4.386,2.075 6.923,1.679 0.068,-0.012 0.163,0.16 0.329,0.338 -0.466,0.284 -0.907,0.555 -1.347,0.822 0.664,2.255 0.936,2.517 2.459,2.376 2.123,-0.195 2.574,-0.311 3.846,-1.076 -0.291,0.583 -0.444,0.939 -0.636,1.268 -0.406,0.696 -0.902,1.348 -1.241,2.074 -0.642,1.374 -0.333,2.186 0.958,3.014 0.297,0.191 0.524,0.499 0.758,0.775 0.237,0.282 0.442,0.589 0.697,0.937 0.487,0 0.991,-0.068 1.467,0.023 0.395,0.077 0.966,0.258 1.079,0.543 0.476,1.218 1.562,1.292 2.561,1.553 0.536,0.141 1.097,0.207 1.629,0.361 0.846,0.242 1.412,0.491 1.006,1.694 -0.231,0.696 0.483,1.682 -0.771,2.546 1.343,0.403 2.359,0.709 3.372,1.015 0.218,-0.537 0.433,-1.064 0.648,-1.597 1.181,0.754 2.149,1.372 3.23,2.062 -0.029,0.136 -0.105,0.473 -0.187,0.832 0.189,0.083 0.348,0.205 0.518,0.214 2.9,0.159 5.804,0.44 8.706,0.423 3.839,-0.024 7.677,-0.282 11.519,-0.446 0.308,-0.014 0.64,0.001 0.916,-0.107 1.765,-0.7 3.48,-1.542 5.281,-2.123 2.114,-0.681 4.293,-1.155 6.453,-1.685 0.282,-0.072 0.654,-0.038 0.911,0.096 1.729,0.906 3.461,0.979 5.369,0.498 1.267,-0.32 2.668,-0.26 3.989,-0.142 0.741,0.068 1.543,0.479 2.133,0.962 0.561,0.459 1.017,0.569 1.674,0.369 1.355,-0.411 2.682,-0.779 3.789,-1.801 0.988,-0.91 2.126,-1.7 3.538,-1.915 0.305,-0.05 0.628,-0.12 0.885,-0.275 1.37,-0.826 2.745,-1.648 4.07,-2.546 0.348,-0.236 0.475,-0.771 0.779,-1.102 1.283,-1.404 1.437,-3.703 3.694,-4.438 -0.503,-1.57 0.99,-2.31 1.424,-3.524 0.142,-0.397 0.67,-0.815 0.587,-1.102 -0.622,-2.206 0.743,-4.401 -0.037,-6.596 -0.136,-0.38 -0.028,-0.842 -0.035,-1.266 -0.018,-0.794 0.025,-1.594 -0.068,-2.378 -0.146,-1.195 -0.527,-1.521 -1.645,-1.323 -0.775,0.133 -1.515,0.457 -2.577,0.794 0.36,-0.464 0.522,-0.735 0.741,-0.95 0.718,-0.687 1.441,-1.362 2.182,-2.02 1.932,-1.703 2.168,-3.811 1.402,-6.104 -0.522,-1.564 -0.969,-3.129 -2.195,-4.415 -1.1,-1.15 -1.795,-2.665 -2.777,-3.935 -1.481,-1.911 -3.707,-2.845 -5.698,-4.071 -2.21,-1.36 -4.536,-2.564 -6.279,-4.752 0.222,-0.254 0.467,-0.535 0.813,-0.93 -0.338,-0.118 -0.636,-0.325 -0.745,-0.251 -1.034,0.713 -1.835,0.218 -2.678,-0.404 -3.228,-2.386 -6.603,-4.591 -9.672,-7.165 -2.116,-1.776 -3.932,-3.955 -5.675,-6.118 -2.782,-3.455 -4.943,-7.292 -6.075,-11.618 -0.5,-1.904 -0.883,-3.853 -1.143,-5.805 -0.415,-3.111 0.856,-5.683 2.909,-7.913 0.312,-0.335 0.791,-0.583 1.24,-0.714 1.278,-0.378 1.82,-1.255 2.194,-2.491 0.496,-1.644 1.24,-3.217 1.91,-4.807 0.08,-0.196 0.344,-0.318 0.549,-0.494 1.157,0.506 0.448,1.597 0.932,2.425 4.479,-3.676 8.749,-7.649 14.235,-10.406 -0.594,-0.246 -0.947,-0.442 -1.327,-0.536 -0.223,-0.059 -0.63,0.162 -0.711,0.061 -1.404,-1.705 -2.661,-0.13 -3.963,0.159 -0.293,0.064 -0.566,0.252 -0.827,0.416 -0.695,0.44 -1.366,0.61 -2.255,0.489 -2.36,-0.316 -4.16,0.956 -5.742,2.508 -1.568,1.545 -2.531,3.511 -3.433,5.486 -0.718,1.567 -1.312,3.19 -2.096,4.749 -0.32,-3.292 1.793,-5.885 2.896,-8.897 -2.306,-0.77 -4.358,-1.665 -6.508,-2.1 -1.596,-0.322 -3.316,0.017 -4.975,-0.064 -1.021,-0.049 -2.117,-0.146 -3.031,-0.551 -1.399,-0.624 -2.629,-1.613 -4.01,-2.296 -1.66,-0.822 -3.452,-1.383 -5.088,-2.245 -2.023,-1.063 -3.945,-2.31 -5.9,-3.5 -0.123,-0.075 -0.147,-0.319 -0.287,-0.654 1.266,-0.476 2.51,-0.945 3.919,-1.473 -0.364,-0.504 -0.655,-0.909 -0.951,-1.322 0.417,-0.392 0.853,-0.732 1.209,-1.146 0.562,-0.655 0.425,-1.328 -0.353,-1.761 -0.595,-0.332 -1.29,-0.502 -1.824,-0.898 -0.725,-0.54 -1.596,-1.076 -1.469,-2.197 0.091,-0.781 1.295,-1.584 2.437,-1.688 0.672,-0.064 1.358,-0.076 2.02,-0.215 1.327,-0.278 1.562,-0.739 1.527,-2.067 -0.042,-1.594 -0.721,-2.647 -2.186,-3.253 -0.774,-0.318 -1.512,-0.724 -2.416,-1.163 2.413,-0.235 4.166,-1.095 5.038,-3.322 0.359,-0.918 1.015,-1.436 2.163,-1.36 1.357,0.086 2.849,0.561 4.012,-0.678 0.032,-0.036 0.122,-0.044 0.172,-0.028 3.128,1.018 4.446,-1.96 6.62,-3.036 1.173,-0.583 2.205,-1.447 3.308,-2.179 0.101,-0.068 0.266,-0.061 0.339,-0.144 1.74,-2.037 3.382,-1.315 5.105,0.382 1.312,-0.585 2.618,-1.236 3.978,-1.742 0.528,-0.198 1.247,-0.256 1.754,-0.059 1.011,0.396 1.952,0.332 2.893,-0.051 1.945,-0.787 3.933,-1.505 5.795,-2.46 3.298,-1.692 6.766,-2.685 10.427,-3.186 4.052,-0.559 8.078,-1.3 12.127,-1.889 1.53,-0.222 3.091,-0.354 4.635,-0.328 4.964,0.081 9.894,0.587 14.741,1.68 1.927,0.437 3.803,1.072 5.808,1.095 0.475,0.006 0.999,0.162 1.405,0.407 0.878,0.531 1.812,0.553 2.783,0.718 2.509,0.43 5.129,0.794 6.557,3.522 0.703,1.341 1.923,2.408 2.869,3.627 1.016,1.315 2.137,2.583 2.941,4.022 0.774,1.391 1.474,2.933 1.69,4.481 0.166,1.185 -0.177,2.679 -0.832,3.68 -0.972,1.479 -1.501,3.088 -2.122,4.679 -1.53,3.927 -3.002,7.855 -5.558,11.298 -1.015,1.37 -1.672,3.029 -2.348,4.616 -1.242,2.92 -3.154,5.138 -6.124,6.375 -4.004,1.671 -8.037,3.276 -11.984,5.063 -2.479,1.122 -4.896,2.423 -7.209,3.853 -0.999,0.619 -1.752,1.705 -2.475,2.685 -0.522,0.709 -0.564,1.591 -0.27,2.494 0.395,1.206 0.684,2.446 1.335,3.624 0.091,-0.363 0.177,-0.722 0.323,-1.332 0.481,0.533 0.77,0.92 1.125,1.229 1.156,1.016 2.329,2.011 3.507,3.001 0.576,0.479 1.126,0.922 1.242,1.766 0.049,0.361 0.416,0.766 0.746,0.986 2.004,1.341 4.039,2.633 6.194,4.026 0.262,-0.419 0.469,-0.75 0.78,-1.251 0.806,0.647 1.592,1.277 2.382,1.908 -0.845,0.002 -1.765,-0.666 -2.113,0.538 3.212,1.802 6.434,3.606 9.726,5.454 0.079,-0.224 0.207,-0.593 0.385,-1.101 1.798,2.843 3.529,5.573 5.406,8.538 -0.843,-0.205 -1.48,-0.315 -2.081,-0.525 -0.259,-0.09 -0.658,-0.404 -0.64,-0.576 0.192,-1.753 -1.463,-2.098 -2.284,-3.061 -0.379,-0.448 -0.937,-0.612 -1.603,0.158 0.658,0.813 1.332,1.646 2.005,2.481 -0.057,0.09 -0.113,0.181 -0.169,0.271 -0.489,-0.293 -1.02,-0.541 -1.463,-0.89 -0.535,-0.417 -0.998,-0.928 -1.494,-1.393 -1.435,-1.351 -3.135,-2.117 -5.246,-2.363 -0.021,0.312 -0.041,0.585 -0.069,0.972 -1.741,0.593 -2.246,-1.157 -3.629,-1.743 0.82,-0.57 1.689,-0.621 1.976,-1.481 0.082,-0.24 0.823,-0.49 1.145,-0.381 1.357,0.461 3.007,0.256 3.987,1.648 0.09,0.134 0.3,0.184 0.698,0.151 -0.197,-0.375 -0.314,-0.845 -0.611,-1.103 -1.354,-1.182 -2.77,-2.288 -4.626,-2.576 -0.98,-0.152 -1.729,-0.651 -2.271,-1.465 -1.15,-1.719 -2.808,-2.559 -4.916,-2.919 0.2,1.247 1.664,0.878 2.001,1.904 -0.464,-0.068 -0.885,-0.132 -1.42,-0.213 0.106,0.436 0.173,0.707 0.236,0.98 -1.718,-0.928 -3.86,-0.821 -5.061,0.336 0.315,0.348 0.571,0.802 0.96,1.037 0.938,0.568 1.648,1.236 1.934,2.361 0.082,0.327 0.561,0.642 0.928,0.795 1.148,0.49 1.941,1.281 2.357,2.456 l 0.053,-0.055 c -0.261,0.042 -0.524,0.079 -0.785,0.119 -0.107,0.156 -0.217,0.311 -0.323,0.466 0.368,0.198 0.735,0.395 1.102,0.595 l -0.051,-0.051 c 0.129,0.275 0.257,0.555 0.486,1.049 -1.717,-0.554 -3.397,-0.411 -4.812,-1.477 -0.881,-0.668 -1.915,-1.186 -3.12,-0.802 -0.059,0.017 -0.127,0.02 -0.185,0.004 -1.497,-0.409 -2.992,-0.822 -4.623,-1.272 -0.177,0.542 -0.606,1.159 -0.479,1.621 0.222,0.789 0.723,1.534 1.239,2.192 0.45,0.572 1.164,0.934 1.624,1.498 0.867,1.078 0.763,1.77 -0.265,2.868 0.098,-0.946 0.098,-0.946 -0.964,-0.746 0.337,0.233 0.675,0.468 1.01,0.704 0.348,0.235 0.665,0.555 1.047,0.683 0.79,0.265 1.61,0.459 2.428,0.623 0.439,0.087 0.9,0.053 1.422,0.081 l 0,2.297 0.043,-0.038 -3.629,0 c -0.241,-2.115 -0.241,-2.115 -4.368,-3.153 0.104,-0.307 0.204,-0.611 0.303,-0.908 -1.005,-0.055 -1.941,-0.106 -2.918,-0.161 -0.531,1.211 -0.493,1.622 0.296,2.224 0.683,0.514 1.441,0.948 2.05,1.537 0.604,0.582 1.062,1.317 1.589,1.995 -0.519,1.505 -0.519,1.505 0.814,2.235 0.104,-0.202 0.199,-0.4 0.306,-0.596 0.087,-0.157 0.183,-0.31 0.258,-0.438 0.753,-0.158 2.607,1.513 3.116,2.776 -1.289,0.391 -1.521,-1.602 -2.909,-1.233 0,1.263 1.272,1.158 1.813,1.758 0.612,0.679 1.161,1.422 1.775,2.184 0.227,-0.203 0.458,-0.414 0.785,-0.711 0.103,0.743 0.187,1.332 0.272,1.971 0.83,-0.419 1.453,-0.737 2.074,-1.053 l -0.032,0.026 c 0.64,0.234 1.276,0.467 1.911,0.708 -0.148,0.398 -0.291,0.792 -0.438,1.193 -0.279,-0.216 -0.553,-0.438 -0.967,-0.77 -0.079,0.406 -0.136,0.699 -0.207,1.063 0.513,-0.142 0.865,-0.239 1.217,-0.335 0.01,0.853 0.585,0.845 1.484,0.967 -0.467,-0.871 -0.797,-1.48 -1.124,-2.09 -0.369,-0.382 -0.562,-0.781 -0.068,-1.417 0.335,0.363 0.667,0.617 0.862,0.95 1.237,2.138 2.446,4.292 3.666,6.44 0.181,0.319 0.315,0.69 0.57,0.938 0.534,0.521 0.816,0.124 1.079,-0.557 0.403,0.722 0.744,1.337 1.084,1.951 0.091,-0.012 0.185,-0.022 0.275,-0.033 l 0,-4.514 c 0.71,0.602 1.068,0.903 1.499,1.269 -0.336,-1.227 -0.656,-2.401 -1.033,-3.772 1.103,0.542 2.679,2.977 3.369,4.656 0.692,1.676 1.515,3.298 2.365,5.131 -0.052,-0.822 -0.094,-1.498 -0.141,-2.211 0.279,-0.014 0.553,-0.025 0.999,-0.046 -0.646,-2.744 -1.282,-5.439 -1.919,-8.137 0.049,-0.036 0.098,-0.072 0.149,-0.105 0.556,0.818 1.112,1.635 1.671,2.453 0.088,-0.028 0.182,-0.052 0.271,-0.079 -0.259,-0.896 -0.507,-1.791 -0.783,-2.679 -0.207,-0.647 -0.495,-1.274 -0.668,-1.931 -0.338,-1.289 0,-1.947 1.233,-2.738 0.266,-0.169 0.444,-0.474 0.765,-0.829 0.231,0.06 0.631,0.163 0.914,0.239 -0.046,0.442 -0.244,0.905 -0.098,1.186 1.18,2.261 2.218,4.556 2.472,7.144 0.039,0.401 0.363,0.773 0.603,1.249 -0.319,0.203 -0.603,0.377 -1.012,0.634 0.299,0.826 0.579,1.699 0.931,2.541 0.501,1.19 0.846,2.691 0.126,3.552 -0.88,1.053 -0.416,1.525 0.034,2.35 0.271,0.502 0.214,1.185 0.309,1.787 -0.134,0.102 -0.264,0.204 -0.395,0.305 -0.163,-0.455 -0.328,-0.907 -0.53,-1.469 -0.885,1.121 0.021,1.601 0.025,2.211 -1.632,0.846 -0.443,2.569 -1.223,3.877 -0.451,-0.794 -0.843,-1.486 -1.347,-2.373 -0.934,1.546 0.381,3.251 -0.992,4.71 -0.323,-2.255 -0.615,-4.289 -0.906,-6.323 -0.108,0.002 -0.217,0.005 -0.326,0.007 0,2.412 0.019,4.826 -0.019,7.238 -0.005,0.475 -0.083,1.188 -0.385,1.374 -1.455,0.907 -1.388,2.519 -1.989,3.817 -0.56,1.207 -1.277,2.34 -1.878,3.531 -0.27,0.539 -0.534,1.124 -0.604,1.711 -0.604,5.204 -3.395,9.192 -6.998,12.739 -2.217,2.18 -4.585,4.148 -7.516,5.316 -0.542,0.219 -1.1,0.435 -0.708,1.069 -0.718,0.086 -1.458,0.257 -2.191,0.233 -0.762,-0.018 -1.516,-0.225 -2.463,-0.383 -0.128,0.215 -0.366,0.615 -0.609,1.019 -2.882,-0.204 -5.712,-0.112 -8.081,1.919 l 0.079,-0.074 c -1.789,-0.532 -3.241,0.549 -4.789,1.063 -2.81,0.932 -5.579,1.991 -8.356,3.024 -0.956,0.356 -2.156,0.46 -2.072,1.904 -0.419,0.029 -0.7,0.136 -0.896,0.047 -1.686,-0.754 -3.227,-0.066 -4.835,0.35 -3.759,0.977 -7.526,1.965 -11.334,2.726 -1.845,0.367 -3.803,0.377 -5.69,0.255 -0.863,-0.056 -1.688,0.207 -2.632,-0.058 -1.717,-0.478 -3.578,-0.418 -5.37,-0.644 -0.46,-0.056 -0.879,-0.364 -1.332,-0.529 -0.547,-0.202 -1.118,-0.569 -1.651,-0.526 -1.9,0.161 -3.787,0.438 -5.674,0.73 -0.655,0.102 -1.275,0.415 -1.931,0.55 -0.453,0.092 -0.944,0.106 -1.404,0.044 -1.271,-0.179 -2.517,-0.22 -3.751,0.5 0.761,0.241 1.52,0.481 2.593,0.821 -1.283,0.87 -2.021,-0.144 -2.867,-0.102 -0.835,0.037 -1.685,-0.115 -2.538,-0.174 -0.63,-0.22 -1.251,-0.445 -1.996,-0.718 0.637,0.66 1.217,1.056 2.033,0.704"
         id="path4384"
         inkscape:connector-curvature="0"
         style="fill:#009a93" /><path
         clip-path="url(#SVGID_2_)"
         d="m 480.73,301.727 c -1.102,-0.317 -2.12,-0.347 -2.738,-0.857 -0.808,-0.67 -1.329,-1.705 -1.909,-2.627 -0.127,-0.205 -0.088,-0.657 0.059,-0.869 0.28,-0.406 0.783,-0.779 0.388,-1.277 -0.331,-0.418 -0.829,-0.736 -1.312,-0.988 -0.312,-0.16 -0.732,-0.088 -1.092,-0.174 -1.375,-0.332 -1.809,-1.334 -1.183,-2.644 0.149,-0.312 0.224,-0.655 0.382,-1.131 l -1.358,0 c -0.157,-2.129 -1.712,-4.009 -0.344,-6.235 0.544,-0.883 1.094,-2.093 0.385,-3.482 -0.219,0.448 -0.372,0.754 -0.524,1.056 -0.098,-0.051 -0.272,-0.092 -0.28,-0.156 -0.059,-0.428 -0.186,-0.881 -0.098,-1.284 0.284,-1.296 0.659,-2.572 0.982,-3.86 0.244,-0.969 0.374,-1.817 -0.463,-2.735 -0.703,-0.768 -1.021,-1.805 -0.831,-3.063 0.409,-2.741 0.288,-2.759 1.661,-5.099 0.524,-0.052 1.116,-0.114 1.688,-0.172 l 0,-5.033 c -0.318,-0.139 -0.762,-0.329 -1.279,-0.555 -0.323,0.425 -0.573,0.847 -0.908,1.182 -0.894,0.879 -1.287,1.985 -1.727,3.134 -0.564,1.462 -1.453,2.8 -2.225,4.233 -1.124,-1.176 -1.245,-1.917 -0.5,-3.206 0.707,-1.222 1.444,-2.434 2.239,-3.606 0.296,-0.442 0.725,-0.865 1.192,-1.106 0.889,-0.461 1.128,-1.192 1.284,-2.248 -0.5,0.312 -0.845,0.524 -1.259,0.782 -0.323,-0.249 -0.654,-0.506 -1.1,-0.85 0.469,-0.704 -0.051,-1.817 1.126,-2.32 0.456,0.288 0.915,0.579 1.491,0.944 0.783,-1.134 1.791,-2.024 1.397,-3.73 -0.352,-1.526 1.27,-2.852 3.07,-2.77 0.483,-1.964 1.58,-3.52 3.166,-4.781 1.784,-1.42 3.511,-2.908 5.27,-4.359 0.937,-0.773 1.837,-1.603 2.852,-2.256 0.47,-0.303 1.177,-0.333 1.769,-0.314 0.589,0.017 0.993,-0.075 1.489,-0.47 0.989,-0.786 2.114,-1.411 3.217,-2.043 0.21,-0.122 0.71,-0.096 0.847,0.061 1.565,1.807 3.643,1.096 5.554,1.194 0.117,0.006 0.234,0.024 0.491,0.054 -0.022,0.454 -0.048,0.917 -0.069,1.364 1.287,1.49 2.269,-0.283 3.608,-0.431 -0.192,0.455 -0.312,0.741 -0.478,1.13 1.286,0.311 1.945,-0.457 2.605,-1.294 -0.359,-0.384 -0.689,-0.734 -1.118,-1.193 0.458,-0.419 0.8,-0.878 1.255,-1.125 1.656,-0.89 3.373,-1.665 4.916,-2.758 0.201,-0.141 0.595,-0.072 0.883,-0.015 1.212,0.243 2.432,0.459 3.616,0.795 1.31,0.375 2.195,-0.55 3.255,-0.929 0.434,-0.158 2.585,-1.144 3.073,-1.255 0.163,-0.039 0.363,-0.105 0.459,-0.226 1.163,-1.479 2.598,-1.625 4.264,-0.99 0.296,0.113 0.711,-0.079 1.224,-0.15 0.138,-1.526 0.271,-3.004 0.411,-4.598 1.177,0.222 0.604,2.4 2.264,2.354 0.085,-0.248 0.191,-0.558 0.333,-0.974 0.226,0.124 0.472,0.191 0.612,0.354 0.537,0.632 0.812,1.574 2.068,1.542 0.091,-0.489 0.183,-0.986 0.282,-1.527 0.162,0.034 0.372,0.015 0.489,0.113 0.382,0.312 0.73,0.671 1.096,1.007 0.225,0.208 0.462,0.579 0.7,0.582 1.798,0.024 3.288,1.025 5.045,1.734 l 0,-1.576 c 0.771,0.208 1.441,0.389 2.057,0.557 1.085,-1.056 0.313,-2.321 0.558,-3.635 0.577,0.38 1.006,0.663 1.552,1.021 0.357,-0.207 0.947,-0.344 1.154,-0.7 0.518,-0.905 1.186,-1.202 2.155,-0.944 1.061,0.284 2.019,0.673 2.172,1.968 0.029,0.235 0.173,0.454 0.31,0.798 0.351,-0.04 0.691,-0.136 1.018,-0.1 0.9,0.104 1.329,0.636 1.595,1.528 0.567,1.889 1.308,3.725 1.944,5.591 0.552,1.604 2.117,1.979 3.35,2.67 1.222,0.684 1.78,1.571 1.518,2.856 -0.243,1.19 -0.707,2.336 -1.087,3.5 -0.319,0.986 -1,1.992 -0.929,2.946 0.26,3.506 -2.25,5.536 -4.748,6.582 -1.245,0.521 -2.527,0.721 -3.808,0.256 -1.089,-0.392 -1.926,-0.104 -2.711,0.644 -0.489,0.472 -1.067,0.862 -1.519,1.366 -1.6,1.801 -3.659,2.465 -5.98,2.482 -4.462,0.033 -8.925,0.047 -13.389,0.05 -3.174,0.002 -6.104,0.943 -8.928,2.288 -1.229,0.583 -2.442,1.211 -3.664,1.819 -1.114,0.555 -2.041,1.279 -2.905,2.229 -0.89,0.982 -2.149,1.647 -3.298,2.371 -1.058,0.664 -1.726,1.387 -1.816,2.78 -0.071,1.114 0.144,2.588 -1.369,3.186 -0.083,0.032 -0.161,0.222 -0.146,0.326 0.192,1.554 -0.869,2.85 -0.938,4.287 -0.066,1.312 0.089,2.824 0.713,3.93 1.042,1.854 2.011,3.654 1.998,5.851 0.845,0.094 1.579,0.125 2.297,0.264 1.815,0.361 1.86,0.34 1.744,-1.609 0.312,0.196 0.645,0.288 0.774,0.502 1.205,2.028 3.415,2.31 5.332,3.091 0.228,0.092 0.666,0.008 0.838,-0.164 1.018,-1.009 2.212,-0.971 3.475,-0.721 0.165,0.034 0.355,-0.057 0.639,-0.109 l 0,-1.576 c 0.069,-0.061 0.144,-0.192 0.246,-0.218 1.979,-0.458 3.957,-0.903 5.938,-1.355 4.164,-0.952 8.315,-1.989 12.503,-2.826 2.487,-0.497 5.008,-0.164 7.815,0.284 -0.587,0.698 -0.95,1.133 -1.363,1.626 0.396,0.474 0.776,0.929 1.3,1.554 -1.013,0.256 -1.83,0.518 -2.666,0.659 -1.864,0.318 -3.167,1.612 -4.652,2.592 -0.095,0.062 -0.188,0.188 -0.207,0.299 -0.357,1.953 -1.904,2.746 -3.398,3.669 -0.815,0.508 -1.443,1.332 -2.122,2.041 -2.1,2.182 -4.591,4.126 -6.162,6.641 -1.439,2.294 -3.61,3.6 -5.333,5.46 -2.048,2.199 -4.276,4.241 -6.519,6.244 -0.706,0.632 -1.674,1.123 -2.598,1.322 -1.259,0.273 -2.04,1.055 -2.898,2.052 -0.309,-0.398 -0.553,-0.712 -0.915,-1.177 -0.696,0.49 -1.407,0.999 -2.133,1.48 -0.152,0.101 -0.38,0.109 -0.576,0.126 -1.132,0.113 -2.271,0.217 -3.406,0.325 -1.283,0.115 -2.543,0.525 -3.861,0.085 -0.502,-0.167 -1.104,-0.011 -1.653,-0.067 -0.657,-0.065 -1.304,-0.199 -2.228,-0.348 1.06,-1.062 2.242,-0.372 3.266,-1.007 -0.82,-0.365 -1.539,-0.687 -2.255,-1.007 0.027,-0.092 0.057,-0.183 0.084,-0.273 2.486,0.191 4.973,0.38 7.46,0.567 0.014,-0.129 0.027,-0.265 0.039,-0.396 -0.797,-0.073 -1.6,-0.122 -2.396,-0.22 -2.507,-0.314 -5.01,-0.706 -7.523,-0.95 -1.745,-0.168 -3.023,-1.31 -4.545,-1.937 -3.04,-1.262 -5.19,-3.736 -7.462,-5.964 -1.236,-1.213 -1.973,-2.944 -2.893,-4.472 -0.278,-0.462 -0.408,-1.012 -0.507,-1.264"
         id="path4386"
         inkscape:connector-curvature="0"
         style="fill:#009a93" /><path
         clip-path="url(#SVGID_2_)"
         d="m 468.855,281.569 c -0.565,-0.301 -1.031,-0.549 -1.49,-0.791 -0.034,-1.908 0.218,-2.183 2.145,-2.094 -0.193,-1.596 -0.384,-3.167 -0.571,-4.733 0.869,-0.151 0.978,0.327 1.109,0.822 0.185,0.724 0.403,1.439 0.662,2.348 -0.534,1.284 -1.18,2.83 -1.855,4.448"
         id="path4388"
         inkscape:connector-curvature="0"
         style="fill:#009a93" /><path
         clip-path="url(#SVGID_2_)"
         d="m 674.523,271.414 c 1.861,-0.226 2.66,0.408 2.832,2.184 0.047,0.452 0.078,0.905 0.121,1.436 -1.208,0.164 -1.003,-1.116 -1.512,-1.655 -0.54,-0.587 -0.952,-1.288 -1.441,-1.965"
         id="path4390"
         inkscape:connector-curvature="0"
         style="fill:#009a93" /><path
         clip-path="url(#SVGID_2_)"
         d="m 471.843,265.26 c -0.257,1.268 -1.347,2.968 -2.429,3.911 0.217,-1.686 0.892,-2.85 2.429,-3.911"
         id="path4392"
         inkscape:connector-curvature="0"
         style="fill:#009a93" /><path
         clip-path="url(#SVGID_2_)"
         d="m 463.259,267.899 c 2.005,0.734 2.005,0.734 1.311,2.485 -1.114,-0.391 -0.923,-1.398 -1.311,-2.485"
         id="path4394"
         inkscape:connector-curvature="0"
         style="fill:#009a93" /><path
         clip-path="url(#SVGID_2_)"
         d="m 684.578,277.013 c -0.485,-1.088 -0.858,-1.931 -1.396,-3.134 1.407,0.494 1.877,1.299 2.208,2.174 0.056,0.145 -0.395,0.482 -0.812,0.96"
         id="path4396"
         inkscape:connector-curvature="0"
         style="fill:#009a93" /><path
         clip-path="url(#SVGID_2_)"
         d="m 666.979,265.41 c 1.418,-0.285 1.749,1.155 2.646,1.732 -0.883,-0.22 -1.767,-0.438 -2.653,-0.659 l 0.052,0.05 c 0.003,-0.392 0.008,-0.788 0.008,-1.178 l -0.053,0.055 z"
         id="path4398"
         inkscape:connector-curvature="0"
         style="fill:#009a93" /><path
         clip-path="url(#SVGID_2_)"
         d="m 512.541,232.242 c 1.121,-0.962 1.794,-0.569 2.597,0.005 -0.888,0.679 -1.592,0.393 -2.597,-0.005"
         id="path4400"
         inkscape:connector-curvature="0"
         style="fill:#009a93" /><path
         clip-path="url(#SVGID_2_)"
         d="m 467.249,269.741 c -0.457,0.814 -0.918,1.625 -1.444,2.555 -0.157,-1.295 -0.087,-1.436 1.444,-2.555"
         id="path4402"
         inkscape:connector-curvature="0"
         style="fill:#009a93" /><path
         clip-path="url(#SVGID_2_)"
         d="m 663.201,271.762 c -0.726,0.574 -1.272,0.938 -1.733,0.189 -0.135,-0.216 -0.039,-0.839 0.135,-0.931 0.729,-0.391 1.042,0.26 1.598,0.742"
         id="path4404"
         inkscape:connector-curvature="0"
         style="fill:#009a93" /><path
         clip-path="url(#SVGID_2_)"
         d="m 421.084,274.467 c 0.583,-0.246 1.168,-0.495 1.82,-0.773 0.218,0.871 -0.004,1.347 -0.971,1.172 -0.286,-0.052 -0.534,-0.288 -0.807,-0.433 -0.007,0.005 -0.042,0.034 -0.042,0.034"
         id="path4406"
         inkscape:connector-curvature="0"
         style="fill:#009a93" /><path
         clip-path="url(#SVGID_2_)"
         d="m 667.021,258.881 c 0.678,0.107 1.067,0.168 1.592,0.249 -0.181,0.314 -0.244,0.604 -0.409,0.68 -0.511,0.232 -0.526,0.197 -1.183,-0.929"
         id="path4408"
         inkscape:connector-curvature="0"
         style="fill:#009a93" /><path
         clip-path="url(#SVGID_2_)"
         d="m 665.84,252.54 c 0.582,0.31 1.161,0.62 1.744,0.933 -0.051,0.113 -0.103,0.228 -0.155,0.344 -0.623,-0.227 -1.241,-0.455 -1.864,-0.683 0.092,-0.197 0.184,-0.397 0.275,-0.594"
         id="path4410"
         inkscape:connector-curvature="0"
         style="fill:#009a93" /><path
         clip-path="url(#SVGID_2_)"
         d="m 506.845,231.182 c 0.583,-0.102 1.165,-0.205 1.749,-0.307 0.017,0.16 0.038,0.322 0.057,0.481 -0.594,0.028 -1.186,0.055 -1.777,0.082 -0.011,-0.084 -0.02,-0.171 -0.029,-0.256"
         id="path4412"
         inkscape:connector-curvature="0"
         style="fill:#009a93" /><path
         clip-path="url(#SVGID_2_)"
         d="m 248.986,236.14 c -0.135,0.111 -0.255,0.233 -0.396,0.312 -0.032,0.015 -0.147,-0.126 -0.224,-0.198 0.116,-0.12 0.224,-0.25 0.354,-0.353 0.011,-0.009 0.146,0.131 0.266,0.239"
         id="path4414"
         inkscape:connector-curvature="0"
         style="fill:#009a93" /><path
         clip-path="url(#SVGID_2_)"
         d="m 687.952,273.863 c 0.167,0.216 0.332,0.433 0.498,0.645 -0.072,0.06 -0.144,0.119 -0.213,0.178 -0.175,-0.212 -0.35,-0.423 -0.524,-0.63 0.078,-0.063 0.16,-0.129 0.239,-0.193"
         id="path4416"
         inkscape:connector-curvature="0"
         style="fill:#009a93" /><path
         clip-path="url(#SVGID_2_)"
         d="m 525.059,229.481 c 0.099,0.115 0.233,0.219 0.219,0.266 -0.054,0.16 -0.165,0.3 -0.255,0.449 -0.099,-0.107 -0.29,-0.237 -0.271,-0.316 0.033,-0.147 0.195,-0.261 0.307,-0.399"
         id="path4418"
         inkscape:connector-curvature="0"
         style="fill:#009a93" /><path
         clip-path="url(#SVGID_2_)"
         d="m 519.589,232.706 c -0.109,0.003 -0.217,0.009 -0.322,0.015 0.017,-0.094 0.024,-0.192 0.062,-0.278 0.007,-0.022 0.143,-0.03 0.157,-0.004 0.052,0.079 0.072,0.175 0.103,0.267"
         id="path4420"
         inkscape:connector-curvature="0"
         style="fill:#009a93" /><path
         clip-path="url(#SVGID_2_)"
         d="m 227.393,255.292 c -0.139,0.083 -0.282,0.169 -0.427,0.255 -0.058,-0.131 -0.115,-0.261 -0.173,-0.393 0.156,-0.068 0.312,-0.134 0.468,-0.202 0.037,0.099 0.075,0.196 0.132,0.34"
         id="path4422"
         inkscape:connector-curvature="0"
         style="fill:#009a93" /><path
         clip-path="url(#SVGID_2_)"
         d="m 404,266.621 c -0.421,-0.461 -0.842,-0.923 -1.283,-1.405 2.416,-1.761 2.764,-1.75 4.809,0.158 -1.465,-0.064 -2.74,0.062 -3.561,1.277 -0.004,0.006 0.035,-0.03 0.035,-0.03"
         id="path4424"
         inkscape:connector-curvature="0"
         style="fill:#009a93" /><path
         clip-path="url(#SVGID_2_)"
         d="m 678.4,205.767 c -0.175,0.126 -0.479,0.226 -0.506,0.376 -0.128,0.671 -0.094,1.388 -0.714,1.866 -0.982,0.754 -0.741,1.836 -0.769,2.852 -0.021,0.8 0.647,1.161 1.009,1.722 0.912,1.406 2.498,1.488 3.837,2 1.134,0.428 2.021,-0.604 1.706,-1.97 -0.091,-0.398 -0.036,-0.613 0.175,-0.871 0.216,-0.267 0.535,-0.489 0.646,-0.792 0.096,-0.26 0.025,-0.63 -0.092,-0.899 -0.057,-0.123 -0.508,-0.23 -0.602,-0.145 -0.704,0.644 -1.238,0.342 -1.68,-0.286 -0.516,-0.739 -0.98,-1.52 -1.469,-2.282 -0.303,-0.469 -0.579,-0.958 -0.928,-1.393 -0.103,-0.135 -0.401,-0.12 -0.613,-0.178 m 14.583,-1.506 c 0,0.759 -0.046,1.223 0.007,1.677 0.189,1.575 -0.33,2.914 -1.285,4.124 -0.144,0.181 -0.335,0.329 -0.453,0.523 -0.55,0.901 -0.471,2.043 0.212,2.847 0.297,0.35 0.635,0.665 0.963,0.99 0.432,0.43 0.591,0.959 0.581,1.557 -0.009,0.461 -0.024,0.922 0.016,1.377 0.113,1.23 -0.241,2.251 -1.244,3.016 -0.437,0.327 -0.881,0.647 -1.321,0.971 -0.594,-0.714 -1.919,-0.051 -2.275,-1.209 -3.522,-4.15 -2.661,-3.384 -7.527,-3.409 -0.438,-0.002 -0.933,0.081 -1.312,0.284 -1.428,0.764 -2.937,0.371 -4.396,0.309 -0.422,-0.019 -0.922,-0.644 -1.183,-1.108 -0.202,-0.355 -0.131,-0.896 -0.104,-1.352 0.084,-1.436 -0.248,-2.796 -1.259,-3.78 -1.113,-1.082 -1.07,-2.446 -0.642,-3.501 0.561,-1.373 0.502,-2.694 0.474,-4.04 -0.04,-2.006 0.471,-3.893 1.479,-5.516 0.99,-1.59 1.734,-3.501 3.758,-4.272 0.498,-0.188 0.894,-0.71 1.281,-1.129 0.504,-0.545 1.099,-0.758 1.831,-0.783 0.438,-0.015 0.892,-0.156 1.304,-0.322 2.133,-0.867 4.004,-0.034 5.802,0.943 1.73,0.942 2.757,2.628 3.895,4.159 0.328,0.44 0.674,1.035 0.653,1.545 -0.083,2.179 1.311,4.177 0.745,6.099"
         id="path4426"
         inkscape:connector-curvature="0"
         style="fill:#009a93" /><path
         clip-path="url(#SVGID_2_)"
         d="m 737.621,59.178 c -0.1,2.102 -0.151,3.558 -0.654,5.082 -0.508,1.531 -0.201,3.337 -0.234,5.025 -0.023,1.24 -0.102,1.356 -1.486,1.847 -1.14,0.407 -1.535,1 -1.272,1.93 0.08,0.288 0.271,0.549 0.362,0.833 0.693,2.141 0.512,2.703 -1.354,3.695 -1.043,0.553 -1.986,1.343 -3.326,0.239 -1.324,-1.093 -3.058,-1.342 -4.798,-1.149 -2.056,0.229 -3.077,-1.114 -3.845,-2.671 -0.463,-0.938 -0.896,-1.995 -0.937,-3.014 -0.07,-1.701 -0.448,-3.283 -0.956,-4.88 -0.185,-0.574 0.062,-1.216 0.806,-1.406 0.147,-0.039 0.306,-0.057 0.458,-0.062 1.235,-0.043 2.019,-0.708 2.307,-1.861 0.309,-1.236 -0.436,-1.995 -1.366,-2.67 -1.603,-1.165 -1.689,-1.371 -0.907,-2.831 1.224,-2.282 2.508,-4.544 4.438,-6.32 2.907,-2.67 6.188,-2.894 9.5,-0.264 2.198,1.745 2.954,4.131 3.252,6.749 0.084,0.76 0.012,1.539 0.012,1.728"
         id="path4428"
         inkscape:connector-curvature="0"
         style="fill:#009a93" /><path
         clip-path="url(#SVGID_2_)"
         d="m 91.004,491.135 c -0.188,2.632 -0.874,6.762 -5.37,9.063 -0.676,0.342 -1.288,1.107 -1.593,1.822 -1.605,3.774 -4.203,6.738 -7.123,9.545 -2.03,1.957 -2.62,5.066 -5.133,6.753 -1.188,0.801 -2.689,0.65 -3.756,-0.648 -1.632,-1.979 -1.839,-5.21 -0.354,-7.126 0.702,-0.901 1.553,-1.709 2.406,-2.473 1.37,-1.23 1.942,-2.672 1.98,-4.549 0.069,-3.274 1.446,-6.105 3.9,-8.276 2.464,-2.175 3.688,-4.996 4.625,-8.01 0.318,-1.032 -0.562,-2.632 -1.52,-2.682 -1.438,-0.078 -2.876,-0.013 -4.312,-0.106 -2.167,-0.128 -2.636,-0.961 -2.77,-3.409 -0.122,-2.282 0.904,-3.857 2.466,-5.216 1.232,-1.07 2.093,-3.301 3.897,-2.813 2.274,0.617 2.417,2.916 2.32,5.022 -0.042,0.863 -0.003,1.729 0.019,2.592 0.036,1.422 0.955,1.949 2.208,2.063 0.573,0.055 1.151,0.022 1.725,0.048 5.451,0.253 6.41,1.256 6.385,8.4"
         id="path4430"
         inkscape:connector-curvature="0"
         style="fill:#009a93" /><path
         clip-path="url(#SVGID_2_)"
         d="m 665.485,111.293 c 0.264,0.181 1.547,0.619 1.87,1.43 0.354,0.895 0.169,2.378 -0.39,3.183 -0.952,1.377 -2.245,2.643 -3.661,3.527 -0.806,0.493 -2.423,0.525 -3.16,0.025 -0.692,-0.475 -1.037,-1.968 -0.934,-2.956 0.11,-1.046 1.098,-1.975 1.401,-3.046 0.626,-2.187 2.283,-2.26 4.874,-2.163"
         id="path4432"
         inkscape:connector-curvature="0"
         style="fill:#009a93" /><path
         clip-path="url(#SVGID_2_)"
         d="m 170.158,488.488 c 0.05,-1.277 -0.697,-2.386 -2.094,-3.096 -0.811,-0.409 -2.046,0.125 -2.32,1.015 -0.035,0.111 -0.149,0.24 -0.119,0.327 0.499,1.541 -0.492,2.708 -0.986,3.998 -0.167,0.437 -0.378,0.889 -0.395,1.342 -0.012,0.286 0.239,0.647 0.469,0.874 0.609,0.602 1.178,0.477 1.867,-0.027 0.671,-0.495 1.191,-0.254 1.302,0.402 0.139,0.818 0.218,1.653 0.393,2.465 0.071,0.319 0.307,0.625 0.523,0.889 0.144,0.172 0.441,0.402 0.579,0.353 0.285,-0.104 0.545,-0.348 0.749,-0.591 0.141,-0.169 0.259,-0.436 0.239,-0.646"
         id="path4434"
         inkscape:connector-curvature="0"
         style="fill:#009a93" /><path
         clip-path="url(#SVGID_2_)"
         d="m 92.549,506.5 c 0.137,-0.802 0.316,-1.595 0.395,-2.405 0.042,-0.449 -0.004,-0.947 -0.152,-1.374 -0.143,-0.405 -0.707,-0.721 -0.304,-1.217 0.443,-0.546 0.884,-1.331 1.463,-1.479 1.265,-0.325 2.476,-0.69 3.674,-1.238 0.704,-0.317 1.661,-0.312 2.447,-0.157 0.716,0.14 1.387,0.227 2.107,0.138 1.771,-0.229 3.259,0.443 4.58,1.55 0.389,0.328 0.535,0.735 0.29,1.263 -0.249,0.537 -0.371,1.126 -0.617,1.667 -0.436,0.958 -0.233,1.945 0.112,2.788 0.384,0.935 0.89,1.895 2.1,2.208 0.889,0.231 1.283,0.984 1.327,1.919 0.028,0.595 0.151,1.186 0.208,1.781 0.065,0.706 -0.709,1.305 -1.454,1.087 -0.795,-0.236 -1.557,-0.603 -2.363,-0.802 -0.434,-0.109 -1.052,-0.166 -1.371,0.062 -1.041,0.739 -2.096,1.003 -3.354,0.729 -1.609,-0.362 -3.283,-0.467 -4.64,-1.588 -0.828,-0.69 -1.695,-1.337 -2.592,-1.928 -1.089,-0.713 -1.676,-1.664 -1.856,-3.004"
         id="path4436"
         inkscape:connector-curvature="0"
         style="fill:#009a93" /><path
         clip-path="url(#SVGID_2_)"
         d="m 111.749,460.711 c 0.122,0.868 0.166,1.104 0.187,1.34 0.083,0.975 -1.327,2.274 -2.349,2.005 -0.708,-0.189 -1.375,-0.338 -2.092,-0.237 -1.096,0.15 -1.755,-0.586 -2.453,-1.223 -0.156,-0.144 -0.334,-0.473 -0.274,-0.606 0.484,-1.016 0.164,-2.1 0.331,-3.124 0.111,-0.7 0.653,-1.259 1.464,-1.38 1.925,-0.281 3.522,0.423 4.741,1.835 0.419,0.484 0.426,1.323 0.445,1.39"
         id="path4438"
         inkscape:connector-curvature="0"
         style="fill:#009a93" /><path
         clip-path="url(#SVGID_2_)"
         d="m 128.501,321.441 c 0.128,1.198 -0.733,2.659 -1.862,3.096 -0.601,0.23 -1.132,0.02 -1.654,-0.328 -1.072,-0.715 -1.12,-0.851 -0.558,-2.128 0.139,-0.314 0.26,-0.64 0.351,-0.972 0.118,-0.43 0.057,-1.105 0.322,-1.264 0.463,-0.278 1.119,-0.346 1.688,-0.322 0.969,0.039 1.591,0.807 1.713,1.918"
         id="path4440"
         inkscape:connector-curvature="0"
         style="fill:#009a93" /><path
         clip-path="url(#SVGID_2_)"
         d="m 141.888,390.552 c 0,0.197 0.044,0.669 -0.01,1.126 -0.085,0.734 -0.997,1.439 -1.776,1.431 -0.651,-0.008 -1.478,-0.52 -1.627,-1.116 -0.199,-0.782 -0.463,-1.603 0.097,-2.36 0.471,-0.64 0.781,-1.529 1.789,-1.465 0.762,0.049 1.349,0.952 1.527,2.384"
         id="path4442"
         inkscape:connector-curvature="0"
         style="fill:#009a93" /><path
         clip-path="url(#SVGID_2_)"
         d="m 133.807,513.197 c 1.09,-0.11 1.67,0.319 2.039,0.943 0.3,0.509 0.325,1.144 -0.049,1.677 -0.337,0.479 -0.678,0.982 -1.113,1.365 -0.589,0.516 -1.295,0.497 -1.959,0.079 -0.195,-0.123 -0.526,-0.408 -0.503,-0.447 0.536,-0.931 -0.152,-2.152 0.682,-2.981 0.314,-0.312 0.734,-0.518 0.903,-0.636"
         id="path4444"
         inkscape:connector-curvature="0"
         style="fill:#009a93" /><path
         clip-path="url(#SVGID_2_)"
         d="m 106.794,342.628 c 0.167,1.46 -0.634,2.493 -1.879,2.413 -0.928,-0.059 -1.393,-0.75 -1.082,-1.638 0.154,-0.443 0.286,-0.904 0.506,-1.313 0.31,-0.577 0.842,-0.802 1.498,-0.747 0.566,0.047 0.859,0.429 0.957,1.285"
         id="path4446"
         inkscape:connector-curvature="0"
         style="fill:#009a93" /><path
         clip-path="url(#SVGID_2_)"
         d="m 99.929,346.435 c 0.054,0.788 -0.503,1.272 -0.926,1.812 -0.202,0.261 -0.489,0.598 -0.844,0.263 -0.318,-0.301 -0.708,-0.678 -0.761,-1.062 -0.058,-0.414 0.294,-0.865 0.368,-1.316 0.093,-0.568 0.422,-0.842 0.929,-0.812 0.506,0.03 1.207,0.742 1.234,1.115"
         id="path4448"
         inkscape:connector-curvature="0"
         style="fill:#009a93" /><path
         clip-path="url(#SVGID_2_)"
         d="m 110.583,427.591 c 0.287,0.669 -0.432,1.712 -1.189,1.717 -0.103,-0.002 -0.22,-0.037 -0.305,-0.096 -0.411,-0.286 -0.541,-1.084 -0.26,-1.535 0.263,-0.421 1.048,-0.589 1.52,-0.314 0.092,0.054 0.156,0.152 0.234,0.228"
         id="path4450"
         inkscape:connector-curvature="0"
         style="fill:#009a93" /><path
         clip-path="url(#SVGID_2_)"
         d="m 134.733,350.569 c 0.104,0.736 0.188,0.978 0.152,1.199 -0.026,0.169 -0.204,0.313 -0.311,0.467 -0.088,-0.079 -0.235,-0.143 -0.253,-0.236 -0.193,-1.026 -0.412,-2.033 -1.1,-2.878 -0.077,-0.097 0.105,-0.404 0.167,-0.614 0.108,0.05 0.231,0.074 0.318,0.15 0.262,0.224 0.626,0.422 0.74,0.713 0.214,0.534 0.273,1.129 0.287,1.199"
         id="path4452"
         inkscape:connector-curvature="0"
         style="fill:#009a93" /><path
         clip-path="url(#SVGID_2_)"
         d="m 122.549,341.559 c -0.007,0.103 -0.005,0.337 -0.042,0.562 -0.015,0.094 -0.117,0.176 -0.178,0.262 -0.086,-0.081 -0.229,-0.15 -0.25,-0.246 -0.128,-0.571 -0.237,-1.151 -0.325,-1.73 -0.013,-0.091 0.108,-0.204 0.168,-0.308 0.154,0.092 0.405,0.155 0.445,0.285 0.103,0.335 0.115,0.7 0.182,1.175"
         id="path4454"
         inkscape:connector-curvature="0"
         style="fill:#009a93" /><path
         clip-path="url(#SVGID_2_)"
         d="m 132.107,399.77 c -0.318,0.327 -0.608,0.629 -0.911,0.916 -0.007,0.005 -0.211,-0.139 -0.244,-0.236 -0.165,-0.496 0.185,-0.988 0.688,-0.967 0.105,0.005 0.204,0.12 0.467,0.287"
         id="path4456"
         inkscape:connector-curvature="0"
         style="fill:#009a93" /><path
         clip-path="url(#SVGID_2_)"
         d="m 117.299,490.743 c -0.108,-0.128 -0.217,-0.255 -0.322,-0.383 0.207,-0.063 0.41,-0.156 0.619,-0.177 0.084,-0.008 0.185,0.139 0.277,0.214 -0.191,0.117 -0.383,0.233 -0.574,0.346"
         id="path4458"
         inkscape:connector-curvature="0"
         style="fill:#009a93" /><path
         clip-path="url(#SVGID_2_)"
         d="m 113.13,508.568 c -0.197,0.098 -0.377,0.246 -0.563,0.256 -0.12,0.006 -0.25,-0.19 -0.375,-0.296 0.176,-0.1 0.351,-0.259 0.531,-0.269 0.13,-0.003 0.267,0.197 0.407,0.309"
         id="path4460"
         inkscape:connector-curvature="0"
         style="fill:#009a93" /><path
         clip-path="url(#SVGID_2_)"
         d="m 150.375,384.611 c -0.061,0.096 -0.1,0.23 -0.184,0.28 -0.259,0.144 -0.504,-0.3 -0.357,-0.68 0.029,-0.078 0.144,-0.123 0.221,-0.186 0.106,0.2 0.214,0.391 0.32,0.586"
         id="path4462"
         inkscape:connector-curvature="0"
         style="fill:#009a93" /><path
         clip-path="url(#SVGID_2_)"
         d="m 54.604,434.257 c 0.184,0.129 0.497,0.234 0.526,0.39 0.131,0.695 0.099,1.438 0.74,1.934 1.019,0.779 0.767,1.899 0.793,2.952 0.021,0.828 -0.667,1.202 -1.044,1.78 -0.943,1.459 -2.586,1.542 -3.974,2.072 -1.172,0.441 -2.088,-0.625 -1.765,-2.041 0.095,-0.411 0.038,-0.636 -0.179,-0.899 -0.224,-0.277 -0.556,-0.508 -0.671,-0.821 -0.1,-0.269 -0.024,-0.65 0.097,-0.931 0.055,-0.128 0.526,-0.237 0.62,-0.15 0.732,0.664 1.283,0.355 1.737,-0.294 0.538,-0.771 1.018,-1.576 1.524,-2.365 0.312,-0.484 0.599,-0.991 0.958,-1.44 0.112,-0.145 0.421,-0.127 0.638,-0.187 m -15.096,-1.56 c 0,0.785 0.046,1.267 -0.007,1.736 -0.195,1.629 0.34,3.019 1.333,4.271 0.148,0.187 0.342,0.337 0.466,0.54 0.57,0.933 0.486,2.115 -0.22,2.948 -0.308,0.361 -0.656,0.687 -0.996,1.023 -0.448,0.446 -0.612,0.993 -0.601,1.614 0.007,0.476 0.025,0.954 -0.017,1.426 -0.118,1.272 0.25,2.332 1.289,3.12 0.451,0.341 0.912,0.672 1.366,1.009 0.614,-0.744 1.988,-0.054 2.358,-1.255 3.647,-4.295 2.754,-3.504 7.792,-3.528 0.457,-0.002 0.965,0.082 1.36,0.293 1.478,0.793 3.038,0.385 4.548,0.32 0.435,-0.02 0.956,-0.668 1.226,-1.146 0.208,-0.37 0.133,-0.929 0.105,-1.401 -0.083,-1.483 0.259,-2.895 1.305,-3.915 1.151,-1.121 1.109,-2.53 0.664,-3.624 -0.579,-1.422 -0.519,-2.789 -0.489,-4.182 0.042,-2.077 -0.485,-4.031 -1.532,-5.712 -1.025,-1.647 -1.8,-3.625 -3.892,-4.424 -0.516,-0.196 -0.924,-0.733 -1.325,-1.17 -0.524,-0.562 -1.138,-0.786 -1.897,-0.811 -0.456,-0.016 -0.923,-0.16 -1.349,-0.331 -2.208,-0.898 -4.147,-0.034 -6.007,0.977 -1.791,0.974 -2.853,2.72 -4.033,4.307 -0.34,0.454 -0.693,1.068 -0.674,1.6 0.082,2.259 -1.359,4.328 -0.773,6.315"
         id="path4464"
         inkscape:connector-curvature="0"
         style="fill:#009a93" /><path
         clip-path="url(#SVGID_2_)"
         d="m 703.274,79.165 c -1.488,-0.785 -1.956,-2.431 -3.028,-3.57 -0.149,-0.158 -0.32,-0.386 -0.324,-0.582 -0.023,-1.929 -0.011,-3.853 -0.011,-5.781 1.05,-1.825 0.948,-4.183 2.615,-5.731 0.447,-1.27 1.42,-1.989 2.607,-2.487 0.308,-0.132 0.632,-0.271 0.885,-0.482 2.851,-2.336 5.929,-1.456 8.951,-0.547 0.69,0.207 1.205,0.984 1.824,1.475 1.758,1.384 2.719,3.235 3.255,5.369 0.355,1.417 0.383,4.621 -0.068,6.003 -0.278,0.845 -0.718,1.652 -0.898,2.512 -0.405,1.96 -1.502,3.185 -3.446,3.697 -0.414,0.107 -0.855,0.36 -1.129,0.679 -1.58,1.846 -2.829,3.923 -2.313,6.423 0.283,1.377 1.034,2.741 1.877,3.893 0.674,0.918 0.765,1.806 0.846,2.828 0.109,1.306 -0.485,2.158 -1.463,2.849 -0.178,0.125 -0.403,0.233 -0.609,0.239 -1.291,0.036 -2.779,-1.258 -2.743,-2.472 0.027,-0.995 -0.099,-1.987 0.35,-2.994 0.663,-1.483 0.343,-3.121 0.252,-4.686 -0.021,-0.371 -0.422,-0.849 -0.774,-1.037 -0.78,-0.417 -1.488,-1.072 -2.465,-1.005 -0.714,0.05 -1.28,-0.331 -1.914,-0.557 -1.129,-0.398 -1.653,-1.068 -1.624,-2.257 0.014,-0.44 -0.131,-0.889 -0.202,-1.328 0.318,0.009 0.642,0.054 0.952,0.009 0.147,-0.02 0.267,-0.22 0.401,-0.34 -0.184,-0.09 -0.364,-0.258 -0.547,-0.254 -0.42,10e-4 -0.839,0.081 -1.257,0.134"
         id="path4466"
         inkscape:connector-curvature="0"
         style="fill:#009a93" /><path
         clip-path="url(#SVGID_2_)"
         d="m 160.49,453.451 c 0.979,-0.087 1.469,-0.102 1.949,-0.19 0.117,-0.022 0.257,-0.285 0.268,-0.447 0.011,-0.158 -0.106,-0.454 -0.202,-0.477 -1.008,-0.169 -1.835,-0.451 -2.209,-1.597 -0.19,-0.572 -1.156,-0.481 -1.798,0.048 -0.555,0.463 -0.555,0.936 -0.082,1.505 0.679,0.809 1.473,1.28 2.074,1.158 m -3.698,-2.364 c 0,-0.605 -0.03,-1.21 0.006,-1.812 0.135,-2.159 1.438,-3.458 3.53,-3.756 0.689,-0.099 1.4,-0.022 2.1,-0.082 0.498,-0.039 1.095,-0.918 0.898,-1.371 -0.84,-1.942 -0.52,-3.811 0.023,-5.792 0.863,-3.138 3.104,-4.823 5.874,-5.852 1.476,-0.546 3.219,-0.472 4.618,0.485 1.401,0.956 2.625,2.139 3.519,3.631 1.192,1.981 1.63,4.005 0.759,6.255 -0.239,0.617 -0.189,1.382 -0.145,2.07 0.059,0.943 -0.142,1.815 -0.669,2.553 -0.869,1.215 -1.721,2.407 -2.002,3.936 -0.112,0.596 -0.815,0.862 -1.436,0.582 -0.472,-0.21 -0.958,-0.491 -1.422,-0.292 -2.294,0.997 -4.462,0.471 -6.629,-0.41 -0.776,-0.316 -1.37,-0.142 -1.669,0.654 -0.582,1.546 -1.547,2.773 -2.756,3.852 -1.061,0.949 -2.117,0.935 -3.167,-0.059 -0.291,-0.276 -0.57,-0.566 -0.857,-0.846 -0.376,-0.369 -0.59,-0.79 -0.579,-1.333 0.018,-0.805 0.004,-1.608 0.004,-2.413"
         id="path4468"
         inkscape:connector-curvature="0"
         style="fill:#009a93" /><path
         clip-path="url(#SVGID_2_)"
         d="m 143.614,586.122 c -0.184,-0.526 -0.497,-1.11 -0.574,-1.724 -0.091,-0.711 -0.413,-0.924 -1.068,-0.956 -0.445,-0.024 -0.875,-0.231 -1.323,-0.297 -0.679,-0.1 -0.502,0.797 -1.113,0.964 -0.649,0.179 -0.579,0.897 -0.28,1.393 0.324,0.536 0.436,0.967 0.015,1.504 -0.127,0.16 -0.135,0.578 -0.011,0.736 0.335,0.436 0.715,0.89 1.179,1.155 0.572,0.323 1.314,0.368 1.844,-0.046 0.825,-0.643 1.183,-1.592 1.331,-2.729 m -9.037,0.735 c -0.098,-1.92 0.584,-3.614 1.557,-5.211 0.618,-1.016 1.294,-2.005 1.954,-2.995 0.601,-0.906 1.37,-1.522 2.542,-1.381 0.682,-0.46 1.339,-0.162 2.053,-0.038 0.74,0.128 1.113,0.619 1.594,1.039 0.698,0.606 1.34,1.307 2.117,1.789 1.017,0.632 1.669,1.405 1.822,2.615 0.058,0.44 0.241,0.885 0.434,1.294 0.288,0.61 0.374,1.191 -0.042,1.764 -0.524,0.722 -0.59,1.541 -0.557,2.391 0.017,0.469 -0.031,0.94 0.021,1.399 0.123,1.085 -0.34,1.989 -0.842,2.877 -0.269,0.478 -0.59,0.937 -0.947,1.356 -0.156,0.185 -0.446,0.321 -0.693,0.35 -0.461,0.058 -0.933,0.043 -1.399,0.014 -1.135,-0.068 -2.203,0.083 -3.206,0.683 -0.381,0.228 -0.846,0.379 -1.288,0.428 -0.842,0.094 -1.535,0.07 -2.035,-0.962 -0.434,-0.888 -1.133,-1.66 -1.399,-2.667 -0.092,-0.345 -0.188,-0.81 -0.443,-0.972 -1.464,-0.937 -1.258,-2.375 -1.243,-3.773"
         id="path4470"
         inkscape:connector-curvature="0"
         style="fill:#009a93" /><path
         clip-path="url(#SVGID_2_)"
         d="m 780.579,51.804 c -0.03,-0.042 -0.033,-0.079 -0.06,-0.118 -0.046,0.033 -0.08,0.077 -0.128,0.111 l 0.188,0.007 z m 3.812,-18.7 c -3.589,2.783 -3.502,6.992 -4.18,10.85 -0.204,1.151 0.322,2.479 0.691,3.672 0.444,1.43 -1.248,2.64 -0.383,4.06 2.246,-1.658 2.205,-4.905 4.481,-6.544 0.139,-3.667 1.425,-6.868 3.537,-9.871 0.653,-0.926 0.376,-2.465 0.722,-3.659 0.583,-2.002 0.99,-4.047 2.089,-5.902 1.061,-1.78 1.907,-3.71 2.633,-5.649 0.769,-2.027 2.991,-2.967 3.481,-5.196 0.481,-2.194 2.506,-3.331 3.898,-4.891 1.125,-1.267 2.329,-2.47 3.532,-3.665 1.935,-1.907 2.001,-4.936 1.407,-6.294 l -11.289,0 c -2.048,1.926 -3.823,4.055 -3.914,7.144 -0.074,2.626 -1.287,4.865 -1.907,7.296 -0.301,1.175 -1.306,2.178 -1.558,3.352 -0.264,1.208 0.008,2.531 0.038,3.803 0.026,1.062 -0.087,2.142 0.082,3.179 0.565,3.482 -0.65,6.213 -3.36,8.315"
         id="path4472"
         inkscape:connector-curvature="0"
         style="fill:#009a93" /><path
         clip-path="url(#SVGID_2_)"
         d="m 780.392,51.797 c 0.798,1.872 -0.674,3.561 -0.388,5.467 0.241,1.614 0.063,3.296 -0.406,4.996 -0.493,1.782 -0.053,3.801 -0.274,5.688 -0.117,0.972 -0.621,2.001 -1.22,2.795 -1.848,2.444 -2.541,5.332 -2.95,8.199 -0.417,2.93 -0.142,5.973 1.81,8.453 0.881,1.114 1.31,2.385 0.944,3.535 -0.812,2.558 0.204,4.952 0.246,7.422 0.007,0.412 0.022,0.942 -0.208,1.217 -0.534,0.63 -1.017,0.079 -1.482,-0.247 -2.31,-1.605 -5.103,-1.858 -7.676,-2.726 -0.949,-0.32 -1.404,-0.841 -1.223,-1.816 0.153,-0.819 0.582,-1.635 0.549,-2.438 -0.061,-1.646 0.678,-2.803 1.753,-3.907 1.167,-1.196 2.129,-2.443 2.839,-4.084 1.2,-2.762 0.194,-4.968 -1.01,-7.144 -0.414,-0.75 -1.727,-1.021 -2.648,-1.467 -0.877,-0.418 -1.426,-1.078 -0.81,-1.93 0.761,-1.059 1.183,-2.109 1.389,-3.432 0.617,-3.979 2.028,-7.663 4.989,-10.588 0.603,-0.591 1.456,-1.225 1.581,-1.944 0.477,-2.788 2.645,-4.237 4.38,-6.041 l -0.185,-0.008 z"
         id="path4474"
         inkscape:connector-curvature="0"
         style="fill:#009a93" /><path
         clip-path="url(#SVGID_2_)"
         d="m 697.42,98.047 c -0.139,1.936 -0.644,4.977 -3.953,6.667 -0.496,0.254 -0.946,0.818 -1.172,1.343 -1.18,2.779 -3.091,4.958 -5.24,7.023 -1.496,1.437 -1.93,3.729 -3.777,4.97 -0.875,0.589 -1.977,0.478 -2.764,-0.48 -1.201,-1.456 -1.353,-3.83 -0.26,-5.241 0.517,-0.665 1.141,-1.258 1.769,-1.823 1.008,-0.903 1.43,-1.963 1.46,-3.343 0.049,-2.41 1.062,-4.495 2.867,-6.092 1.813,-1.601 2.717,-3.674 3.403,-5.894 0.235,-0.758 -0.411,-1.936 -1.117,-1.972 -1.058,-0.058 -2.116,-0.009 -3.174,-0.077 -1.591,-0.097 -1.94,-0.708 -2.037,-2.51 -0.089,-1.678 0.664,-2.841 1.814,-3.838 0.906,-0.79 1.539,-2.428 2.867,-2.07 1.674,0.454 1.776,2.146 1.705,3.694 -0.03,0.636 0,1.272 0.016,1.908 0.025,1.047 0.702,1.436 1.624,1.52 0.422,0.038 0.848,0.015 1.271,0.034 4.01,0.189 4.716,0.924 4.698,6.181"
         id="path4476"
         inkscape:connector-curvature="0"
         style="fill:#009a93" /><path
         clip-path="url(#SVGID_2_)"
         d="m 680.758,18.979 c -0.609,1.999 -1.278,3.982 -2.987,5.335 -0.372,0.297 -1.271,0.325 -1.705,0.077 -0.902,-0.506 -1.608,-1.352 -2.48,-1.936 -3.738,-2.492 -3.774,-2.553 -1.892,-6.316 1.248,-2.499 1.204,-2.314 4.196,-1.624 1.816,0.414 2.993,1.443 4.104,2.695 0.385,0.431 0.493,1.11 0.764,1.769"
         id="path4478"
         inkscape:connector-curvature="0"
         style="fill:#009a93" /><path
         clip-path="url(#SVGID_2_)"
         d="m 725.202,18.864 c -0.45,0.497 -0.91,1.229 -1.571,1.649 -0.425,0.268 -1.324,0.326 -1.696,0.052 -1.715,-1.253 -3.368,-2.57 -3.086,-5.128 0.084,-0.761 -0.459,-1.573 -0.654,-2.382 -0.217,-0.888 0.423,-0.959 1.054,-0.988 0.21,-0.01 0.425,-0.02 0.632,0.014 2.823,0.465 4.523,4.154 5.321,6.783"
         id="path4480"
         inkscape:connector-curvature="0"
         style="fill:#009a93" /><path
         clip-path="url(#SVGID_2_)"
         d="m 751.517,5.274 c -0.173,0.116 -0.36,0.35 -0.516,0.33 -0.814,-0.104 -1.76,-0.052 -2.393,-0.468 -1.043,-0.678 -1.896,-1.659 -2.8,-2.543 -1.076,-1.061 -1.602,-2.643 -1.09,-2.576 0.944,0.119 2.038,0.268 2.736,0.823 1.469,1.171 2.726,2.608 4.05,3.95 0.085,0.083 0.013,0.317 0.013,0.484"
         id="path4482"
         inkscape:connector-curvature="0"
         style="fill:#009a93" /><path
         clip-path="url(#SVGID_2_)"
         d="m 684.683,61.798 c 0.554,0.058 1.026,-0.004 1.374,0.179 0.315,0.167 0.771,0.709 0.695,0.888 -0.557,1.281 -1.217,2.514 -1.887,3.747 -0.053,0.096 -0.407,0.072 -0.607,0.034 -1.604,-0.297 -2.841,-2.453 -2.177,-3.859 0.159,-0.34 0.521,-0.711 0.863,-0.811 0.592,-0.168 1.245,-0.139 1.739,-0.178"
         id="path4484"
         inkscape:connector-curvature="0"
         style="fill:#009a93" /><path
         clip-path="url(#SVGID_2_)"
         d="m 721.41,31.312 c 0,0.425 0.103,0.888 -0.037,1.261 -0.098,0.26 -0.508,0.446 -0.819,0.564 -0.127,0.053 -0.396,-0.128 -0.534,-0.273 -0.29,-0.301 -0.742,-0.63 -0.765,-0.969 -0.11,-1.655 -0.112,-3.313 -0.12,-4.967 0,-0.148 0.227,-0.397 0.376,-0.416 0.177,-0.024 0.431,0.094 0.568,0.239 0.429,0.447 1.049,0.883 1.178,1.424 0.24,1.008 0.185,2.083 0.256,3.136 l -0.103,0 z"
         id="path4486"
         inkscape:connector-curvature="0"
         style="fill:#009a93" /><path
         clip-path="url(#SVGID_2_)"
         d="m 165.649,430.972 c 0.075,-0.421 0.091,-1.053 0.32,-1.598 0.12,-0.29 0.582,-0.502 0.933,-0.609 0.803,-0.26 1.148,0.396 1.287,0.935 0.336,1.312 -0.123,2.414 -1.199,3.242 -0.158,0.117 -0.466,0.29 -0.539,0.233 -0.272,-0.215 -0.566,-0.488 -0.677,-0.799 -0.132,-0.372 -0.084,-0.808 -0.125,-1.404"
         id="path4488"
         inkscape:connector-curvature="0"
         style="fill:#009a93" /><path
         clip-path="url(#SVGID_2_)"
         d="m 697.94,18.014 c -0.141,-0.101 -0.389,-0.178 -0.41,-0.297 -0.114,-0.594 -0.246,-1.205 -0.204,-1.798 0.02,-0.29 0.441,-0.812 0.613,-0.787 0.367,0.057 0.727,0.368 1.023,0.64 0.529,0.493 0.494,1.058 -0.012,1.544 -0.294,0.278 -0.668,0.469 -1.01,0.698"
         id="path4490"
         inkscape:connector-curvature="0"
         style="fill:#009a93" /></g></g></svg>