<?xml version="1.0" encoding="UTF-8" standalone="no"?>
<!-- Generator: Adobe Illustrator 16.0.0, SVG Export Plug-In . SVG Version: 6.00 Build 0)  -->

<svg
   xmlns:dc="http://purl.org/dc/elements/1.1/"
   xmlns:cc="http://creativecommons.org/ns#"
   xmlns:rdf="http://www.w3.org/1999/02/22-rdf-syntax-ns#"
   xmlns:svg="http://www.w3.org/2000/svg"
   xmlns="http://www.w3.org/2000/svg"
   xmlns:xlink="http://www.w3.org/1999/xlink"
   xmlns:sodipodi="http://sodipodi.sourceforge.net/DTD/sodipodi-0.dtd"
   xmlns:inkscape="http://www.inkscape.org/namespaces/inkscape"
   version="1.1"
   x="0px"
   y="0px"
   width="841.89px"
   height="595.28px"
   viewBox="0 0 841.89 595.28"
   enable-background="new 0 0 841.89 595.28"
   xml:space="preserve"
   id="svg4242"
   inkscape:version="0.91 r13725"
   sodipodi:docname="Wurst_Logo.svg"><metadata
     id="metadata4308"><rdf:RDF><cc:Work
         rdf:about=""><dc:format>image/svg+xml</dc:format><dc:type
           rdf:resource="http://purl.org/dc/dcmitype/StillImage" /><dc:title></dc:title></cc:Work></rdf:RDF></metadata><defs
     id="defs4306" /><sodipodi:namedview
     pagecolor="#ffffff"
     bordercolor="#666666"
     borderopacity="1"
     objecttolerance="10"
     gridtolerance="10"
     guidetolerance="10"
     inkscape:pageopacity="0"
     inkscape:pageshadow="2"
     inkscape:window-width="1366"
     inkscape:window-height="704"
     id="namedview4304"
     showgrid="false"
     inkscape:zoom="0.77207235"
     inkscape:cx="416.92813"
     inkscape:cy="297.64001"
     inkscape:window-x="0"
     inkscape:window-y="27"
     inkscape:window-maximized="1"
     inkscape:current-layer="svg4242" /><rect
     style="color:#000000;clip-rule:nonzero;display:inline;overflow:visible;visibility:visible;opacity:1;isolation:auto;mix-blend-mode:normal;color-interpolation:sRGB;color-interpolation-filters:linearRGB;solid-color:#000000;solid-opacity:1;fill:#000000;fill-opacity:1;fill-rule:evenodd;stroke:none;stroke-width:3;stroke-linecap:butt;stroke-linejoin:round;stroke-miterlimit:4;stroke-dasharray:none;stroke-dashoffset:0;stroke-opacity:1;marker:none;color-rendering:auto;image-rendering:auto;shape-rendering:auto;text-rendering:auto;enable-background:accumulate"
     id="rect4249"
     width="924.78381"
     height="635.95074"
     x="-18.133017"
     y="-1.8142716" /><g
     transform="matrix(-0.99940347,-0.03453561,-0.03453561,0.99940347,0,0)"
     style="font-style:normal;font-variant:normal;font-weight:bold;font-stretch:normal;font-size:96.25px;line-height:125%;font-family:'Avenir LT Std';-inkscape-font-specification:'Avenir LT Std Bold';text-align:start;letter-spacing:0px;word-spacing:0px;writing-mode:lr-tb;text-anchor:start;opacity:1;fill:#ffffff;fill-opacity:1;stroke:none;stroke-width:1px;stroke-linecap:butt;stroke-linejoin:miter;stroke-opacity:1"
     id="text4314"><path
       d="m -831.22071,463.91061 48.02875,0 0,-13.86 -33.01375,0 0,-13.86 29.54875,0 0,-13.86 -29.54875,0 0,-12.705 31.28125,0 0,-13.86 -46.29625,0 0,68.145 z"
       style="font-style:normal;font-variant:normal;font-weight:800;font-stretch:normal;font-size:96.25px;line-height:125%;font-family:'Avenir LT Std';-inkscape-font-specification:'Avenir LT Std, Ultra-Bold';text-align:start;letter-spacing:1.25px;writing-mode:lr-tb;text-anchor:start;fill:#ffffff;fill-opacity:1"
       id="path4311" /><path
       d="m -769.828,463.91061 15.015,0 0,-52.26375 0.1925,0 17.22875,52.26375 11.45375,0 17.9025,-52.26375 0.1925,0 0,52.26375 15.015,0 0,-68.145 -22.61875,0 -15.785,44.4675 -0.1925,0 -15.68875,-44.4675 -22.715,0 0,68.145 z"
       style="font-style:normal;font-variant:normal;font-weight:800;font-stretch:normal;font-size:96.25px;line-height:125%;font-family:'Avenir LT Std';-inkscape-font-specification:'Avenir LT Std, Ultra-Bold';text-align:start;letter-spacing:1.25px;writing-mode:lr-tb;text-anchor:start;fill:#ffffff;fill-opacity:1"
       id="path4313" /><path
       d="m -647.95544,463.91061 15.015,0 0,-27.23875 7.41125,0 14.245,27.23875 17.99875,0 -17.325,-28.77875 c 9.625,-1.7325 14.72625,-9.14375 14.72625,-18.6725 0,-15.88125 -11.7425,-20.69375 -25.69875,-20.69375 l -26.3725,0 0,68.145 z m 15.015,-55.44 9.8175,0 c 5.48625,0 11.64625,1.05875 11.64625,7.8925 0,7.41125 -7.1225,7.60375 -12.60875,7.60375 l -8.855,0 0,-15.49625 z"
       style="font-style:normal;font-variant:normal;font-weight:800;font-stretch:normal;font-size:96.25px;line-height:125%;font-family:'Avenir LT Std';-inkscape-font-specification:'Avenir LT Std, Ultra-Bold';text-align:start;letter-spacing:1.25px;writing-mode:lr-tb;text-anchor:start;fill:#ffffff;fill-opacity:1"
       id="path4315" /><path
       d="m -587.95083,429.83811 c 0,21.84875 15.49625,35.805 36.7675,35.805 21.27125,0 36.7675,-13.95625 36.7675,-35.805 0,-21.84875 -15.49625,-35.805 -36.7675,-35.805 -21.27125,0 -36.7675,13.95625 -36.7675,35.805 z m 15.5925,0 c 0,-12.705 8.37375,-21.945 21.175,-21.945 12.80125,0 21.175,9.24 21.175,21.945 0,12.705 -8.37375,21.945 -21.175,21.945 -12.80125,0 -21.175,-9.24 -21.175,-21.945 z"
       style="font-style:normal;font-variant:normal;font-weight:800;font-stretch:normal;font-size:96.25px;line-height:125%;font-family:'Avenir LT Std';-inkscape-font-specification:'Avenir LT Std, Ultra-Bold';text-align:start;letter-spacing:1.25px;writing-mode:lr-tb;text-anchor:start;fill:#ffffff;fill-opacity:1"
       id="path4317" /><path
       d="m -502.38282,463.91061 15.015,0 0,-26.565 28.39375,0 0,-13.86 -28.39375,0 0,-13.86 30.70375,0 0,-13.86 -45.71875,0 0,68.145 z"
       style="font-style:normal;font-variant:normal;font-weight:800;font-stretch:normal;font-size:96.25px;line-height:125%;font-family:'Avenir LT Std';-inkscape-font-specification:'Avenir LT Std, Ultra-Bold';text-align:start;letter-spacing:1.25px;writing-mode:lr-tb;text-anchor:start;fill:#ffffff;fill-opacity:1"
       id="path4319" /><path
       d="m -401.55141,463.91061 15.015,0 0,-54.8625 19.4425,0 0,-13.2825 -53.9,0 0,13.2825 19.4425,0 0,54.8625 z"
       style="font-style:normal;font-variant:normal;font-weight:800;font-stretch:normal;font-size:96.25px;line-height:125%;font-family:'Avenir LT Std';-inkscape-font-specification:'Avenir LT Std, Ultra-Bold';text-align:start;letter-spacing:1.25px;writing-mode:lr-tb;text-anchor:start;fill:#ffffff;fill-opacity:1"
       id="path4321" /><path
       d="m -314.23286,401.15561 c -5.775,-5.10125 -13.18625,-7.1225 -20.88625,-7.1225 -13.37875,0 -25.9875,7.60375 -25.9875,22.1375 0,22.715 31.955,15.9775 31.955,28.49 0,4.8125 -5.48625,7.1225 -10.395,7.1225 -5.005,0 -10.01,-2.40625 -13.09,-6.44875 l -10.68375,11.7425 c 6.44875,5.9675 14.14875,8.56625 22.9075,8.56625 14.0525,0 26.27625,-7.21875 26.27625,-22.42625 0,-23.87 -31.3775,-15.88125 -31.3775,-28.2975 0,-5.10125 5.87125,-7.02625 10.10625,-7.02625 3.6575,0 8.47,1.44375 10.87625,4.52375 l 10.29875,-11.26125 z"
       style="font-style:normal;font-variant:normal;font-weight:800;font-stretch:normal;font-size:96.25px;line-height:125%;font-family:'Avenir LT Std';-inkscape-font-specification:'Avenir LT Std, Ultra-Bold';text-align:start;letter-spacing:1.25px;writing-mode:lr-tb;text-anchor:start;fill:#ffffff;fill-opacity:1"
       id="path4323" /><path
       d="m -301.70055,463.91061 15.015,0 0,-27.23875 7.41125,0 14.245,27.23875 17.99875,0 -17.325,-28.77875 c 9.625,-1.7325 14.72625,-9.14375 14.72625,-18.6725 0,-15.88125 -11.7425,-20.69375 -25.69875,-20.69375 l -26.3725,0 0,68.145 z m 15.015,-55.44 9.8175,0 c 5.48625,0 11.64625,1.05875 11.64625,7.8925 0,7.41125 -7.1225,7.60375 -12.60875,7.60375 l -8.855,0 0,-15.49625 z"
       style="font-style:normal;font-variant:normal;font-weight:800;font-stretch:normal;font-size:96.25px;line-height:125%;font-family:'Avenir LT Std';-inkscape-font-specification:'Avenir LT Std, Ultra-Bold';text-align:start;letter-spacing:1.25px;writing-mode:lr-tb;text-anchor:start;fill:#ffffff;fill-opacity:1"
       id="path4325" /><path
       d="m -180.57719,395.76561 -15.015,0 0,41.29125 c 0,8.37375 -5.775,14.72625 -13.6675,14.72625 -7.98875,0 -13.76375,-6.3525 -13.76375,-14.72625 l 0,-41.29125 -15.015,0 0,41.86875 c 0,16.07375 9.8175,28.00875 28.77875,28.00875 18.865,0 28.6825,-11.935 28.6825,-28.00875 l 0,-41.86875 z"
       style="font-style:normal;font-variant:normal;font-weight:800;font-stretch:normal;font-size:96.25px;line-height:125%;font-family:'Avenir LT Std';-inkscape-font-specification:'Avenir LT Std, Ultra-Bold';text-align:start;letter-spacing:1.25px;writing-mode:lr-tb;text-anchor:start;fill:#ffffff;fill-opacity:1"
       id="path4327" /><path
       d="m -152.45089,463.91061 12.8975,0 15.015,-47.1625 0.1925,0 15.015,47.1625 13.378754,0 19.92375,-68.145 -15.2075,0 -11.453754,44.8525 -0.1925,0 -14.14875,-44.8525 -13.95625,0 -14.245,43.6975 -0.1925,0 -10.87625,-43.6975 -16.3625,0 20.2125,68.145 z"
       style="font-style:normal;font-variant:normal;font-weight:800;font-stretch:normal;font-size:96.25px;line-height:125%;font-family:'Avenir LT Std';-inkscape-font-specification:'Avenir LT Std, Ultra-Bold';text-align:start;letter-spacing:1.25px;writing-mode:lr-tb;text-anchor:start;fill:#ffffff;fill-opacity:1"
       id="path4329" /></g><g
     id="Ebene_2"><g
       id="g4248"><defs
         id="defs4250"><rect
           id="SVGID_1_"
           x="26.417"
           y="116.689"
           width="789.057"
           height="374.801" /></defs><clipPath
         id="SVGID_2_"><use
           xlink:href="#SVGID_1_"
           overflow="visible"
           id="use4254" /></clipPath><path
         clip-path="url(#SVGID_2_)"
         fill="#009A93"
         d="M78.859,296.702c0.208,0.124,0.413,0.252,0.618,0.374    c0.09-0.149,0.289-0.372,0.248-0.437c-0.125-0.188-0.344-0.32-0.528-0.472C79.103,296.315,79.013,296.461,78.859,296.702     M180.225,363.488c-0.165,0.354-0.31,0.547-0.335,0.76c-0.015,0.123,0.159,0.272,0.246,0.405c0.18-0.145,0.479-0.269,0.508-0.438    C180.674,364.047,180.434,363.831,180.225,363.488 M96.292,384.613c-0.081,0.192-0.186,0.384-0.221,0.587    c-0.007,0.038,0.353,0.21,0.389,0.171c0.149-0.158,0.24-0.369,0.349-0.564C96.667,384.755,96.526,384.701,96.292,384.613     M64.956,346.764c0.146,0.057,0.294,0.113,0.44,0.17c0.118-0.34,0.24-0.68,0.328-1.026c0.004-0.017-0.285-0.107-0.438-0.164    C65.174,346.082,65.064,346.426,64.956,346.764 M29.616,363.362c-0.213,0.095-0.427,0.19-0.639,0.286    c0.185,0.429,0.375,0.854,0.559,1.284c0.147-0.054,0.293-0.105,0.44-0.154C29.856,364.305,29.735,363.834,29.616,363.362     M48.774,352.128c0.086,0.085,0.169,0.171,0.254,0.259c0.361-0.32,0.719-0.638,1.078-0.954c-0.109-0.115-0.218-0.231-0.328-0.346    C49.444,351.434,49.109,351.782,48.774,352.128 M125.604,388.479c-0.423-0.332-0.686-0.698-0.924-0.686    c-0.231,0.016-0.622,0.428-0.607,0.649c0.01,0.253,0.364,0.635,0.619,0.681C124.901,389.163,125.186,388.792,125.604,388.479     M96.826,272.678c0.171-1.023,0.276-1.561,0.32-2.104c0.002-0.035-0.54-0.24-0.686-0.145    C95.687,270.93,95.787,271.528,96.826,272.678 M74.729,300.814c-1.17,0.969-1.17,0.969-0.202,2.39    C74.606,302.271,74.658,301.635,74.729,300.814 M54.258,346.686c-2.265,1.923-2.265,1.923-0.484,3.426    C53.917,349.119,54.055,348.13,54.258,346.686 M90.283,394.539c1.411,1.76,1.411,1.76,3.298,0.647    C92.329,394.939,91.436,394.766,90.283,394.539 M110.87,297.803c0.194-0.189,0.389-0.372,0.585-0.557    c-0.689-0.791-1.376-1.581-2.317-2.661C108.409,297.027,109.807,297.281,110.87,297.803 M125.49,394.469    c0.028,0.227,0.058,0.454,0.089,0.68c1.604-0.216,3.209-0.432,4.814-0.649c-0.028-0.208-0.057-0.42-0.083-0.63    C128.703,394.068,127.096,394.27,125.49,394.469 M115.316,359.045c1.086-0.732,2.815-0.135,3.585-1.907    C116.102,356.885,116.102,356.885,115.316,359.045 M91.881,344.53h-2.177c2.273,2.04-0.171,4.062,0.69,6.637    C91.543,348.721,91.64,346.707,91.881,344.53 M103.377,356.846c1.304,0.077,2.172,0.127,2.998,0.174    c0.183,0.641,0.33,1.146,0.548,1.9c0.762-0.542,1.38-0.983,1.972-1.407c-1.143-2.075-1.143-2.075-4.297-3.631    C104.255,354.715,103.916,355.537,103.377,356.846 M178.164,361.268c2.211,0.804,4.297,0.236,5.451-1.408    c0.696-0.989,0.106-1.651-0.583-2.193C180.683,357.922,179.419,359.375,178.164,361.268 M108.473,349.896    c0.512,0.809,1.337,1.575,1.443,2.427c0.104,0.852-0.514,1.794-0.881,2.893c0.408,0.479,0.925,1.095,1.215,1.435    c2.166-0.74,3.856-1.316,5.623-1.919c-0.688-3.246-3.737-1.299-5.154-2.521c-0.24-1.585,1.114-1.418,1.954-1.763    C111.108,348.655,111.003,348.646,108.473,349.896 M76.947,277.558c-2.587,1.446-2.516,3.8-2.435,6.301    c0.07,2.146-0.285,4.306-0.451,6.455h-1.927v5.864c0.963-2.335,1.19-4.488,2.998-5.913c0.737-0.577,1.09-1.898,1.233-2.933    c0.421-3.054,0.66-6.128,0.935-9.196C77.318,277.927,77.034,277.694,76.947,277.558 M99.201,393.522    c-0.31,1.859,0.023,2.259,1.359,1.89c1.224-0.339,2.46-0.643,3.701-0.905c1.259-0.27,2.775-0.121,3.75-0.785    c2.119-1.444,4.469-1.782,6.832-1.959c1.719-0.128,2.747-0.757,3.359-2.542c-2.101,0.311-4.534-0.001-5.951,1.053    c-1.764,1.314-4.23,0.252-5.5,2.227c-1.957-1.108-3.077-0.871-4.403,0.773c-0.295,0.368-0.881,0.667-1.344,0.688    C100.414,393.982,99.811,393.685,99.201,393.522 M109.313,385.624c0.45-0.353,0.576-0.515,0.736-0.562    c0.803-0.241,1.791-0.435,1.622-1.51c-0.193-1.223-1.33-1.152-2.228-1.067c-1.645,0.151-3.275,0.585-4.922,0.641    c-2.299,0.078-3.187,1.599-3.839,3.39c-0.292,0.807-0.336,1.706-0.527,2.759h3.985c0.014-0.142,0.027-0.277,0.04-0.417    c-0.559-0.15-1.116-0.299-2.012-0.539c1.087-0.707,1.89-1.229,2.675-1.74c1.395,1.843,1.381,1.794,3.591,1.2    c0.706-0.192,1.509-0.03,2.416-0.03C110.309,387,109.852,386.367,109.313,385.624 M108.108,314.35    c1.145,3.367,2.107,6.203,3.071,9.043c0.16-3.241-0.304-6.431-0.108-9.576c0.178-2.836-0.774-5.146-1.974-7.902    c-0.274,1.125-0.45,1.854-0.619,2.552c-2.645-0.118-1.302-2.716-2.467-3.808c-1.307,2.89-0.729,8.271,1.362,11.552    C107.614,315.6,107.811,315.108,108.108,314.35 M140.673,284.028c-1.514-0.953-1.517-1.016-4.362-0.888    c-3.102,0.133-6.256-0.468-9.289,0.807c-0.645,0.271-1.57-0.109-2.361-0.217c-2.082-0.283-4.156-0.655-6.245-0.837    c-0.731-0.061-1.5,0.338-3.143,0.744c2.887,1.382,2.109,2.915,1.411,4.509c-1.763,4.018-3.466,8.063-5.247,12.222    c-0.77-0.048-1.644,0.12-1.678,1.513c-0.04,1.591,0.182,3.047,0.903,4.545c2.269,4.698,5.767,8.897,6.084,14.416    c0.159,2.759,0.287,5.521,0.393,8.285c0.096,2.58,0.108,5.162,0.228,7.739c0.078,1.65,0.413,3.297,0.405,4.944    c-0.016,3.549,0.234,7.005,2.393,9.936c-0.161,1.184-2.427,1.771-0.689,3.335c2.165-0.929,4.378-1.828,6.544-2.828    c1.143-0.527,2.173-1.291,3.307-1.841c1.047-0.501,2.136-0.994,3.261-1.238c0.875-0.19,1.555,0.88,1.086,1.674    c-0.299,0.503-0.884,0.896-1.422,1.192c-0.809,0.438-1.999,0.518-2.474,1.158c-1.333,1.798-3.305,1.767-5.123,2.205    c-0.982,0.238-2.031,0.223-2.993,0.515c-0.442,0.133-0.75,0.719-1.118,1.101c0.114,0.167,0.232,0.335,0.348,0.503    c0.548-0.189,1.084-0.429,1.647-0.549c0.6-0.135,1.467-0.448,1.799-0.176c1.498,1.241,2.904,0.507,4.107-0.207    c1.771-1.05,4.052-1.493,5.023-3.773c1.702,1.047,3.203,0.717,4.823-0.404c2.639-1.827,5.445-3.411,8.163-5.122    c2.163-1.363,4.306-2.759,6.443-4.164c0.372-0.244,0.852-0.577,0.946-0.949c0.587-2.32,2.622-3.184,4.284-4.416    c2.063-1.538,4.446-2.786,6.113-4.669c1.304-1.474,2.591-2.829,4.26-3.798c4.342-2.529,7.718-6.25,11.582-9.362    c2.203-1.775,2.157-2.204,0.822-4.792c1.663-1.377,4.654-1.615,4.656-4.799c-2.049-1.533-3.266,1.71-5.309,0.941    c-0.852-1.044-0.017-1.578,0.808-2.294c2.902-2.515,6.275-4.7,6.804-9.115c-0.942,0.348-1.849,0.681-2.688,0.989    c-1.398-1.969,0.984-3.087,0.753-4.955c-3.718-0.055-4.639,3.165-6.44,5.903c0.337-3.644,0.577-6.697,0.93-9.737    c0.069-0.597,0.651-1.113,0.843-1.718c0.142-0.445,0.028-0.971,0.028-2.052c-0.624,0.769-1.02,1.058-1.131,1.428    c-0.521,1.722-0.915,3.485-1.457,5.2c-0.24,0.76-0.691,1.463-1.114,2.148c-0.099,0.156-0.478,0.139-0.71,0.195    c-0.295-0.688-0.566-1.314-0.945-2.203c-3.051,2.371-3.393,6.739-7.117,8.135c0.996-1.725,2.212-3.278,3.407-4.851    c2.124-2.787,3.248-5.978,3.606-9.421c0.077-0.748-0.119-1.921-0.622-2.259c-1.181-0.791-2.637-1.705-3.957-1.668    c-5.074,0.145-10.165,0.438-15.201,1.071c-5.418,0.685-10.605,2.453-15.75,4.281c-0.944,0.337-1.934,0.938-2.824-0.015    c-0.904-0.971-0.602-2.037-0.071-3.088c0.109-0.214,0.075-0.497,0.102-0.715c-0.606-0.226-1.1-0.409-1.825-0.682    C137.381,284.684,139.606,285.955,140.673,284.028 M63.716,344.105c0.907-0.369,1.813-0.733,2.72-1.104    c-1.637-1.409-2.146-1.184-2.65,1.184c-0.44-0.256-0.881-0.514-1.806-1.051c0.532,0.972,0.826,1.505,1.368,2.493    C63.558,344.754,63.636,344.428,63.716,344.105 M101.811,324.433c0.355,0.774,0.71,1.55,1.247,2.72    c0.992-4.841,1.756-9.242,1.245-13.849c-0.199-1.786,0.214-3.48-1.027-5.181c-0.599-0.817-0.103-2.433-0.103-3.862    c0.492,0.082,0.938,0.155,1.57,0.259c0-2.376,0.009-4.659-0.005-6.944c-0.011-2.133,1.725-3.852,1.058-6.539    c-0.953-1.023-2.372-2.443-1.896-4.777c0.103-0.502-0.506-1.149-0.79-1.733c-0.229,0.039-0.457,0.073-0.687,0.11    c-0.183,1.042-0.329,2.09-0.56,3.123c-0.309,1.387-0.031,2.963-1.536,3.97c-0.395,0.262-0.267,1.218-0.531,1.785    c-0.403,0.855-0.388,2.098-1.748,2.209l0.093,0.077c0.351-2.093,0.583-4.218,1.082-6.276c0.697-2.88-0.512-5.608-0.483-8.43    c0.008-0.616-0.869-1.24-1.372-1.906c-1.975,0.987-1.637,2.795-2.228,4.64c-0.376-0.737-0.775-1.144-0.741-1.513    c0.149-1.643,0.574-3.272,0.612-4.911c0.054-2.275-0.157-4.56-0.246-6.84c-0.017-0.443-0.001-0.891-0.001-1.536    c0.834,0.05,1.488,0.088,2.161,0.128c-1.154-2.305-2.286-4.563-3.579-7.144c1.623-0.456,2.823-0.786,3.914-1.092    c0.563-1.289,1.202-2.508,1.615-3.795c0.272-0.854,0.528-1.919,0.254-2.703c-0.631-1.815-0.025-3.204,0.935-4.627    c0.355-0.53,0.571-1.162,0.795-1.77c0.997-2.729,2.233-5.229,5.607-5.958c0.212,0.429,0.474,0.974,0.867,1.779    c0.301-0.573,0.822-1.175,0.694-1.383c-0.917-1.521,0.02-2.413,0.965-3.326c2.582-2.5,5.04-5.229,8.72-6.095    c1.396-0.328,2.938-0.451,4.34-0.225c1.265,0.204,2.076-0.079,2.995-0.859c1.035-0.88,2.231-1.572,3.369-2.329    c1.914-1.28,3.902-2.459,5.738-3.841c2.199-1.654,4.265-3.389,6.853-4.559c2.035-0.923,3.655-2.76,5.452-4.199    c0.139-0.113,0.288-0.28,0.321-0.443c0.774-3.904,4.304-6.018,6.02-9.304c0.247-0.472,0.602-0.916,0.727-1.419    c0.438-1.75,1.354-2.797,3.03-3.792c2.137-1.271,4.024-3.155,4.804-5.861c0.476-1.649,1.245-3.156,0.95-4.981    c-0.1-0.628,0.342-1.406,0.688-2.029c0.539-0.966,1.282-1.821,1.798-2.8c0.587-1.106,1.716-2.372,0.808-3.554    c-0.986-1.288-2.404-2.217-4.315-1.969c-4.781,0.621-9.48,1.563-14.038,3.15c-2.534,0.878-5.076,1.727-7.588,2.658    c-3.437,1.276-7.056,1.411-10.637,1.76c-4.598,0.451-9.205,0.801-13.807,1.213c-3.925,0.353-7.753-0.103-11.497-1.304    c-1.607-0.518-3.187-0.59-4.902-0.414c-1.886,0.194-3.891,0.036-5.739-0.408c-2.14-0.511-4.157-1.52-6.24-2.271    c-2.603-0.941-5.171-2.029-7.837-2.723c-5.163-1.343-9.006-4.442-11.479-8.951c-1.296-2.361-2.594-5.226-0.348-8.066    c0.515-0.652,0.533-1.755,0.64-2.668c0.492-4.16,2.907-7.082,6.043-9.553c0.436-0.344,1.08-0.524,1.349-0.955    c1.31-2.101,3.132-3.219,5.597-3.56c0.618-0.085,1.111-1.059,1.895-1.86c0.819,0.244,1.854,0.581,2.905,0.855    c1.698,0.433,3.39,0.908,5.113,1.203c1.37,0.234,2.728,0.174,3.927-0.839c0.527-0.445,1.332-0.746,2.029-0.783    c5.391-0.271,9.861-3.403,14.913-4.731c5.896-1.545,11.739-3.305,17.633-4.863c4.903-1.292,9.847-2.43,14.778-3.624    c0.622-0.152,1.267-0.265,1.907-0.289c2.761-0.116,5.524-0.166,8.286-0.296c0.629-0.028,1.299-0.174,1.86-0.448    c2.059-1.002,4.246-1.175,6.483-1.277c1.463-0.065,2.926-0.615,4.374-0.566c3.767,0.125,7.518,0.456,11.111,1.799    c1.972,0.735,3.9,0.711,5.846-0.408c1.995-1.146,4.048-2.457,6.243-2.936c5.368-1.173,10.781-1.325,16.058,0.801    c1.059,0.427,2.308,0.603,3.455,0.549c3.071-0.142,5.775,0.892,8.349,2.355c1.073,0.611,1.391,1.755,1.067,2.918    c-0.405,1.46,0.097,2.43,1.169,3.409c1.612,1.468,2.546,3.711,4.962,4.242l-0.003-0.006c0.342,1.816,1.687,2.593,3.286,2.948    c1.609,0.354,2.626,1.328,3.262,2.739c0.64,1.426,1.37,2.853,1.727,4.358c1.06,4.479,2.379,8.928,1.952,13.633    c-0.278,3.034-0.062,6.158-0.703,9.103c-1.706,7.834-3.731,15.594-7.478,22.777c-2.131,4.085-4.042,8.292-6.304,12.302    c-4.202,7.447-9.554,14.035-15.637,20.028c-2.364,2.334-4.821,4.574-7.224,6.87c-0.319,0.305-0.567,0.688-0.996,1.221    c2.404,1.812,4.866,3.191,7.583,4.11c0.523,0.18,1.15,0.188,1.579,0.485c4.241,2.943,9.32,3.956,13.923,6.061    c2.497,1.144,3.963,2.906,4.769,5.385c0.139,0.425,0.267,0.939,0.155,1.345c-1.233,4.481,0.018,8.225,3.164,11.523    c0.74,0.774,1.242,1.851,1.629,2.87c1.176,3.096,2.234,6.237,3.353,9.354c0.352,0.984,0.479,1.884-0.01,2.926    c-0.78,1.658-0.627,3.153,0.339,4.941c0.849,1.564,0.88,3.738,0.756,5.609c-0.088,1.323-0.046,2.501,0.283,3.775    c0.389,1.5,0.472,3.078,0.716,4.813c-2.187,0.247-2.324,1.753-2.519,3.4c-0.62,5.262-1.86,10.379-4.304,15.108    c-2.501,4.839-5.075,9.642-7.773,14.372c-0.905,1.584-2.248,2.927-3.457,4.324c-0.687,0.792-1.548,1.05-2.381,0.145    c-1.06-1.156-2.014-0.977-3.07,0.056c-1.181,1.155-3.142,1.572-3.166,3.804c-0.006,0.466-1.046,0.919-1.693,1.445    c-0.773-0.366-1.489-0.704-2.301-1.09c-0.844,1.157-1.095,3.017-3.199,2.435c-0.258-0.071-0.927,0.767-1.162,1.289    c-0.516,1.155-0.892,2.375-1.292,3.578c-0.762,2.306-0.753,2.308-3.16,2.217c-1.961,2.154-3.304,5.721-7.55,3.534v2.933    c-1.209,0.134-2.793-0.801-3.279,1.305c-0.125,0.532-1.625,0.749-2.548,1.134c1.078,1.521,2.377,1.29,3.985,0.681    c-0.667,1.447-1.69,1.837-2.618,1.751c-2.708-0.256-4.329,1.011-5.357,3.335l0.019,0.06c-0.731-4.3-1.096-4.62-5.448-4.802    c-0.368-0.018-0.734-0.051-1.103-0.082c-2.713-0.217-3-0.739-1.898-3.444c2.033-0.584,1.36,1.494,2.335,2.388    c2.387-1.893,4.786-3.794,7.185-5.696c-0.083-0.173-0.166-0.349-0.253-0.523c-0.648,0.083-1.298,0.162-2.137,0.266    c-0.105-0.498-0.209-0.988-0.355-1.666c-1.042,0.633-2.034,1.239-3.205,1.954c0.2,0.677,0.412,1.403,0.607,2.076    c-0.932,0.833-1.529,0.454-2.289-0.085c-2.391-1.69-4.153-0.784-4.399,2.147c-0.073,0.872-0.321,1.729-0.536,2.844    c-3.13-1.486-5.408-0.064-7.763,1.384c-2.179,1.338-4.529,2.393-6.741,3.684c-0.751,0.437-1.314,1.2-1.962,1.815l0.077-0.079    c-0.433,0.162-0.893,0.271-1.292,0.492c-2.822,1.572-5.686,3.005-8.923,3.564c-0.79,0.136-1.498,0.695-2.261,1.014    c-0.672,0.282-1.401,0.771-2.053,0.698c-2.771-0.305-5.223,0.898-7.81,1.435c-1.528,0.321-3.072,0.832-4.262-0.688    c-1.937,2.654-2.675,2.836-5.884,1.509c-0.68,2.209-3.088,1.378-4.758,2.725c0.08,0.86,0.177,1.909,0.292,3.143    c-0.398,0.278-0.934,0.65-1.473,1.022c0.055,0.17,0.11,0.338,0.165,0.505c2.038-0.236,4.076-0.474,6.19-0.721    c0.153-0.728,0.246-1.252,0.375-1.769c0.505-2.024,2.239-3.227,4.279-2.906c0.309,0.048,0.772,0.374,0.805,0.615    c0.049,0.375-0.11,1.036-0.365,1.145c-0.98,0.414-2.034,0.658-3.109,1.145c1.674-0.091,2.998,0.442,3.755,1.876    c0.743-0.156,1.341-0.284,2.231-0.472c0.096,1.042,0.176,1.916,0.291,3.148c1.177-0.153,2.584,0.011,3.599-0.545    c1.534-0.838,2.834-0.853,4.458-0.381c2.095,0.604,4.186,0.471,5.853-1.352c0.542-0.599,1.33-0.97,2.132-1.529    c-0.495-1.118-1.035-2.333-1.664-3.749c-0.518,0.845-0.775,1.775-1.36,2.083c-0.631,0.335-1.568,0.073-2.372,0.11    c-1.105,0.051-2.212,0.182-3.316,0.171c-0.457-0.001-0.912-0.273-1.377-0.883c1.248-0.423,2.497-0.841,3.907-1.317    c-0.097-0.863-0.194-1.712-0.291-2.584c1.385-0.145,2.635-0.337,3.891-0.391c1.022-0.043,2.062,1.231,2.394,2.632    c0.242,1.023,0.601,2.022,1.007,3.359c1.79-1.365,3.322-2.299,5.404-1.774c0.318,1.594-0.195,2.93-1.392,4.042    c-0.605,0.56-1.2,1.156-1.886,1.606c-1.396,0.917-2.031,2.005-1.407,3.716c0.132,0.369-0.365,0.965-0.662,1.672    c-1.161-1.636-2.073-2.92-3.065-4.319c-0.247,0.082-0.7,0.09-0.892,0.318c-1.161,1.369-2.758,1.756-4.387,2.146    c-0.612,0.145-1.285,0.328-1.749,0.714c-0.34,0.282-0.61,0.994-0.492,1.384c0.117,0.389,0.739,0.809,1.187,0.876    c1.792,0.258,2.945-0.66,3.494-2.924c1.119,0.708,2.133,1.354,3.578,2.274c-2.771,1.104-5.166,2.12-7.608,3.015    c-3.778,1.388-7.794,2.003-11.517,3.639c-1.697,0.743-3.704,0.757-5.544,1.205c-2.125,0.517-4.222,1.146-6.328,1.735    c-0.265,0.073-0.518,0.266-0.779,0.274c-4.122,0.136-7.889,2.273-12.074,2.118c-0.865-0.029-1.829,0.274-2.607,0.684    c-3.272,1.729-6.58,1.274-9.943,0.414c-0.849-0.215-1.757-0.196-2.635-0.298c-0.633-0.071-1.282-0.097-1.895-0.265    c-1.823-0.495-3.621-1.086-5.45-1.552c-0.354-0.091-0.808,0.199-1.21,0.332c-1.63,0.533-3.162,0.656-4.571-0.649    c-0.508-0.47-1.279-0.651-1.904-1.005c-1.182-0.674-2.368-1.331-2.75-2.819c-0.091-0.354-0.479-0.889-0.735-0.892    c-1.541-0.013-1.418-1.172-1.605-2.137l-0.066,0.077c0.146-0.604,0.289-1.21,0.467-1.955c-1.328-0.061-2.476-0.116-3.825-0.179    c0.453-1.568,0.613-2.993,2.554-2.901c0.024-2.299,0.691-4.325-0.196-6.466c-0.369-0.886,0.166-2.149,0.311-3.411    c-1.276-0.457-2.405-1.198-4.158-1.165c-1.566,0.028-3.506-0.819-4.73-2.384c-0.657-0.84-1.263-1.862-2.667-1.662    c-0.379,0.054-0.969-0.229-1.216-0.548c-1.938-2.489-4.601-2.546-7.384-2.359c-1.915,0.128-3.558-0.539-5.333-1.326    c-1.399-0.623-3-0.998-4.391-1.793c-0.616-0.354-1.249-0.741-1.737-1.244c-0.887-0.911-1.228-1.915,0.291-2.807    c-2.752-1.479-2.865-4.141-3.706-6.353c1.162-1.299,1.962-0.062,3.12,0.116c-0.638-1.592-1.95-2.759-0.715-4.77    c1.029-1.676,2.571-1.849,3.617-2.447c0.106-1.595-0.026-2.958,0.333-4.176c0.495-1.681-0.527-2.659-1.351-3.688    c-0.739-0.922-1.446-1.691-0.53-3.152c0.77,0.185,1.611,0.386,2.524,0.602c0.175,1.533,0.725,2.512,2.011,3.421    c1.018,0.724,1.252,2.552,2.047,4.382c-0.723,0.346-1.472,0.701-2.723,1.299c2.072,0.792,3.324,1.27,4.884,1.866    c-0.379-1.642-0.852-2.932-0.935-4.243c-0.077-1.269,0.244-2.566,0.393-3.875c-0.458-0.402-0.918-0.804-1.673-1.461    c2.104-0.81,3.03-2.476,4.15-4c0,1.638-0.126,3.283,0.036,4.902c0.158,1.561-0.348,3.349,1.378,4.864    c0.155-1.405-0.094-2.924,1.967-3.062c0.074,0.935,0.147,1.88,0.223,2.839c0.84,0.729,1.575,0.341,2.148-0.327    c1.019-1.187,2.092-2.103,4.178-0.879c-0.768-2.578-0.197-3.842,1.749-4.783c1.108-0.531,1.779-1.978,2.814-3.214    c0.839,1.809-0.715,2.332-1.199,3.537c1.518,1.271,0.227,2.926,0.003,4.519c0.199,0.032,0.396,0.068,0.592,0.103    c0.769-1.593,1.825-3.114,2.225-4.795c0.392-1.645,2.659-2.518,1.783-4.76c-0.614,0.049-1.201,0.097-1.784,0.146    c0.011-0.206-0.046-0.464,0.04-0.525c1.112-0.793,2.15-1.819,3.396-2.276c2.457-0.899,3.069-2.864,3.505-5.054    c0.153-0.765,0.319-1.526,0.476-2.275c2.617,0.478,2.736,0.468,2.988,2.977c0.14,1.368-0.208,2.789-0.382,4.701    c0.147,0.324,0.768,1.179,0.89,2.1c0.113,0.857-0.867,1.891,0.701,2.703c0.292-0.844,0.453-1.623,0.824-2.283    c0.357-0.643,0.929-1.16,1.639-2.008c-0.126-0.263-0.429-0.896-0.81-1.701c1.59-1.17,1.609-2.832,1.794-4.724    c0.421-4.299,1.469-8.537,2.271-12.801c0.151-0.813,0.593-1.663,0.459-2.42c-0.456-2.558,0.393-4.938,0.79-7.377    c0.27-1.663,0.438-3.256-0.808-5.052c-0.247,0.655-0.393,1.029-0.529,1.406c-0.417,1.168-0.149,2.462-1.773,3.282    c-1.493,0.752-1.354,2.773-0.962,4.306c0.425,1.663-0.01,2.708-1.273,3.863c-1.891,1.74-2.377,4.251-2.934,6.945    c0.661-0.031,1.213-0.055,1.954-0.088c-0.061,0.599-0.119,1.186-0.195,1.94c-0.741-0.048-1.348-0.088-2.051-0.138    c-0.291,0.606-0.595,1.24-1.105,2.299c-0.78-1.149-1.901-2.047-1.826-2.833c0.242-2.561-0.44-5.263,1.091-7.681    c0.565-0.892,1.003-1.959,0.488-3.16c-0.156-0.367,0.206-0.95,0.455-1.912c0.52,0.874,0.779,1.311,1.05,1.769    c0.629-0.959,0.97-1.791,0.029-2.887c-0.425-0.496-0.508-1.636-0.25-2.288c0.436-1.101,1.186-2.026,0.752-3.355    c-0.078-0.241,0.565-0.831,0.98-1.087c0.397-0.244,0.93-0.266,1.456-0.86c-0.579-0.235-1.161-0.471-1.757-0.712    c-0.048-0.158-0.197-0.374-0.141-0.496c0.663-1.416,0.872-2.87,0.995-4.454c0.218-2.834,0.959-5.627,1.458-8.44    c0.111-0.616,0.227-1.26,0.184-1.879c-0.193-2.659-0.447-5.315-0.67-7.971c-0.186-2.194-0.355-4.394-0.563-6.968    c1.041,0.06,1.974,0.111,3.095,0.18c-0.559-2.428,1.26-3.936,2.69-5.924c0.52,0.587,0.886,1.072,1.323,1.483    c1.296,1.202,3.109,1.36,4.245,0.401c1.228-1.036,1.228-1.036,3.211-0.551c0.747,2.983,1.694,6.003-0.122,9.117    c2.451,1.85,1.92,4.382,1.69,6.837c-0.18,1.924-0.393,3.848-0.565,5.515c0.751,0.509,1.719,1.024,1.67,1.154    c-0.919,2.41,0.306,5.587-2.745,7.267c1.205,1.649,3.168,2.913,1.985,5.538c-0.217-0.743-0.39-1.329-0.573-1.956    c-2.704,1.235-2.555,3.762-2.896,6.003c-0.205,1.354-0.152,2.742-0.241,4.636c-0.672-0.619-0.952-1.067-1.33-1.176    c-0.341-0.102-0.789,0.163-1.181,0.268c0.088-1.985,0.173-3.849,0.274-6.119c-0.043,0.019,0.34-0.15,0.725-0.318    c-0.008-0.161,0.05-0.408-0.035-0.477c-1.309-1.062-1.016-2.242-0.279-3.455c0.502-0.825,0.958-1.63-0.6-2.39    c0.333,1.904-1.7,2.826-1.143,5.007c0.404,1.583-0.663,3.525-1.034,5.318c-0.372,1.803-0.827,3.603-0.997,5.427    c-0.173,1.816-0.039,3.666-0.039,5.617c0.481,0.188,1.029,0.4,1.667,0.65c-1.455,4.109-2.563,8.135-1.687,12.315    c-3.379,3.491-2.777,7.664-2.093,12.095c-0.422-0.062-0.817-0.114-1.208-0.179c-2.283-0.369-2.671,0.155-1.829,2.478    c-1.564,0.962-1.564,0.962-3.257-0.916c-0.3,1.04-0.566,1.958-0.871,3.008c1.112,0.11,2.075-0.049,2.694,0.343    c0.642,0.4,0.954,1.334,1.401,2.022c1.395-1.12,3.562-1.403,5.319-3.002c-0.298-2.27,1.688-3.715,2.935-6.039    c1.348,2.914,1.063,5.557,0.848,8.208c1.249-3.165,3.007-6.3,0.098-9.74c0.525-0.216,0.977-0.404,1.462-0.604    c0.585-1.775-1.347-1.633-2.198-2.808c0.25-0.534,0.538-1.802,0.907-1.825c1.697-0.111,1.51-1.596,2.254-2.964    c0.776,3.058-1.033,6.159,1.347,8.15c-0.26,2.335-0.497,4.441-0.744,6.642c1.519-0.285,1.875-1.391,2.231-2.408    c1.089-3.099,1.518-3.413,4.772-3.193c0.271,0.019,0.537,0.074,0.909,0.123c0.358,0.693,0.733,1.41,1.296,2.489    c0.484-0.65,1.005-1.056,1.117-1.55c0.718-3.094,2.242-5.772,3.992-8.368c0.447-0.663,0.715-1.521,0.82-2.324    c0.387-2.995,1.314-5.974,0.193-9.03c-0.229-0.619,0.031-1.42,0.065-2.142c0.697,0.982,1.327,1.873,1.956,2.763L101.811,324.433z"
         id="path4258" /><path
         clip-path="url(#SVGID_2_)"
         fill="#009A93"
         d="M399.796,241.7c-0.271-0.088-0.496-0.2-0.728-0.215    c-0.101-0.007-0.214,0.181-0.321,0.277c0.216,0.123,0.42,0.281,0.652,0.344C399.472,242.127,399.617,241.889,399.796,241.7     M385.384,262.055c-0.046-0.145-0.046-0.361-0.141-0.418c-0.109-0.062-0.302,0.015-0.458,0.032    c0.058,0.19,0.114,0.382,0.174,0.569C385.099,262.177,385.243,262.116,385.384,262.055 M269.471,348.011    c-0.213,0.078-0.428,0.155-0.642,0.231c0.177,0.409,0.35,0.815,0.527,1.228c0.15-0.074,0.436-0.166,0.429-0.207    C269.707,348.839,269.582,348.425,269.471,348.011 M403.118,254.374c0.105-0.182,0.213-0.361,0.325-0.54    c-0.664-0.332-1.328-0.669-1.992-1.002c-0.085,0.154-0.168,0.313-0.253,0.47C401.837,253.659,402.475,254.017,403.118,254.374     M265.232,381.528c-0.166-0.022-0.333-0.042-0.5-0.062c-0.082,0.53-0.165,1.058-0.247,1.587c0.183,0.02,0.363,0.047,0.546,0.065    C265.095,382.589,265.165,382.059,265.232,381.528 M383.942,237.092c0.832,0.967,1.757,1.574,2.996,0.854    C385.938,237.662,384.941,237.378,383.942,237.092 M411.836,248.061c0.021-2.574-1.396-2.333-2.39-2.678    c-0.131,0.17-0.265,0.342-0.393,0.511C409.828,246.498,410.602,247.1,411.836,248.061 M409.987,288.127    c0.265-2.501,0.25-2.497-2.028-3.28C408.725,286.086,409.238,286.913,409.987,288.127 M371.061,237.599    c-0.071,0.193-0.14,0.39-0.21,0.586c1.008,0.655,2.019,1.308,3.22,2.085c0.299-0.729,0.512-1.248,0.844-2.061    C373.452,237.977,372.256,237.786,371.061,237.599 M257.646,352.96c-0.214,3.117-3.152,5.769-0.258,8.978    c0.264-1.306,0.713-2.387,0.634-3.428c-0.097-1.232-0.149-2.316,0.576-3.397C259.132,354.319,258.97,353.568,257.646,352.96     M374.583,265.836c-0.7-0.717-1.456-1.493-2.444-2.508c-0.554,0.702-1.191,1.511-1.834,2.316    c-0.877,0.091-1.757,0.182-2.269,0.235c0.551,1.048,1.104,2.093,1.657,3.137c1.187,0.261,0.619-1.878,2.228-1.515    C372.647,267.665,373.691,266.429,374.583,265.836 M250.331,359.11c0.044,0.775,0.088,1.556,0.129,2.331    c0.75-0.886,1.922-1.874-0.223-2.257c0.863-0.831,1.6-2.081,3.029-1.16c0.206,1.519-2.166,2.546-0.318,4.169    c0.271-0.405,0.576-0.678,0.642-0.996c0.569-2.776,0.942-5.603,1.676-8.331c0.671-2.498-0.314-3.988-2.281-5.177    c-1.538,1.227-3.129,3.804-3.625,5.954c-0.064,0.27,0.207,0.613,0.371,1.056c0.939-0.405,1.696-0.737,3.015-1.308    c-1.166,1.553-1.913,2.597-2.709,3.604C249.372,357.831,249.534,358.501,250.331,359.11 M389.217,279.028l0.079,0.084    c-1.666-0.842-3.35-1.593-5.351-1.436c-0.182,0.502-0.503,0.947-0.45,1.34c0.153,1.12,2.095,0.995,1.858,2.501    c-0.01,0.075,0.457,0.232,0.709,0.337c0.077,0.034,0.207,0.052,0.262,0.009c1.416-1.042,2.814-0.146,4.233-0.018    c0.615,0.057,1.27-0.312,2.242-0.579C391.559,279.973,391.002,278.531,389.217,279.028 M379.646,346.098    c-0.137-0.098-0.314-0.307-0.402-0.275c-4.121,1.489-8.505,2.293-12.365,4.955c-0.121,2.717-1.986,4.047-4.611,4.63    c-1.67,0.374-1.67,0.371-2.93-1.31c-2.065-0.732-3.378,1.253-5.407,1.094c-1.904-0.148-3.874,0.542-5.749,1.47    c-1.67,0.829-3.724,0.88-5.786,1.309c-0.5-0.834-0.999-1.665-1.57-2.623c-1.416,0.812-2.811,1.24-4.459,0.951    c-0.761-0.134-1.702,0.522-2.503,0.937c-0.884,0.452-1.663,1.115-2.556,1.554c-3.663,1.799-6.992,4.262-10.946,5.486    c-0.479,0.153-0.865,0.613-1.575,1.14c0.661,0.338,1.051,0.647,1.483,0.728c0.4,0.073,1.051-0.308,1.236-0.126    c0.941,0.933,1.896,0.736,3.052,0.48c1.94-0.431,2.397,0.236,1.921,2.64c-1.936-0.423-3.87-0.991-5.899-0.221    c-0.642,0.244-1.559-0.231-2.502-0.407c0.356,0.886,0.642,1.604,0.99,2.47c-0.693,0.423-1.428,1.227-1.885,1.093    c-1.623-0.485-2.778,0.364-3.844,1.169c-1.406,1.062-2.661,0.385-3.785-0.173c-1.316-0.657-2.397-0.727-3.704,0.104    c0.527,0.846,0.99,1.586,1.663,2.659c-3.354,0.734-6.932-1.118-9.663,1.998c-0.442-1.014-0.711-1.633-0.989-2.26    c-2.334-0.037-3.909,0.704-4.208,2.497c-0.362,2.167-1.615,2.677-3.468,2.638c-0.536-0.011-1.072-0.001-2.104-0.001    c0.594-1.061,1.009-1.802,1.542-2.758c0.501,0.354,0.863,0.743,1.306,0.891c1.192,0.406,2.093-0.366,1.46-1.313    c-0.931-1.392-0.121-1.862,0.8-2.311c1.319-0.639,2.678-1.246,4.083-1.649c3.101-0.888,6.235-1.657,9.368-2.429    c0.606-0.15,1.297-0.213,1.903-0.094c1.253,0.246,2.261-0.031,3.403-0.647c1.059-0.565,2.427-0.553,3.863-0.834    c-0.119-2.161,0.87-3.914,3.408-4.693c-1.992-0.82-5.677,0.433-6.935,1.88c-1.93,0.463-3.376,0.889-4.851,1.144    c-2.47,0.427-4.682,1.399-6.937,2.5c-3.302,1.609-6.811,2.811-10.271,4.073c-2.068,0.755-4.231,1.246-6.315,1.967    c-0.646,0.228-1.169,0.815-1.745,1.241l0.055-0.031c-1.28-0.165-2.229-0.255-3.265,1.167c-0.676,0.927-2.607,2.029-4.151,1.444    c-1.666-0.628-3.07,0.146-4.576,0.258c-0.548,0.039-1.179,0.758-1.541,1.319c-1.026,1.606-1.95,3.266-4.009,4.519    c-0.587-1.404-1.088-2.616-1.73-4.163c-2.396,0.545-5.025,1.229-7.691,1.724c-2.351,0.438-4.731,0.789-7.115,0.95    c-2.222,0.15-4.219,0.405-6.11,1.905c-1.306,1.037-3.228,1.279-4.844,1.952c-1.091,0.451-2.161,0.979-3.18,1.572    c-0.873,0.506-1.715,1.095-2.48,1.754c-3.96,3.414-8.881,3.793-13.721,4.263c-2.819,0.273-5.005-1.538-7.282-2.92    c-2.321-1.41-3.212-3.634-3.688-6.133c-0.245-1.277,0.115-2.263,1.02-3.265c1.014-1.121,2.264-2.099,2.627-3.787    c0.109-0.513,1.248-0.867,1.968-1.163c0.553-0.229,1.19-0.252,2.301-0.468c-2.233-1.468-2.523-3.395-2.705-5.544    c1.666-0.299,2.856,0.963,4.289,1.32c0.576-0.655,1.778-0.796,1.324-2.279c-0.139-0.445,1.228-1.354,1.684-1.819    c-0.114-1.473-0.366-2.773-0.251-4.04c0.055-0.62,0.735-1.615,1.229-1.679c1.661-0.205,2.24-1.724,3.382-2.392    c3.603-2.097,5.37-5.73,7.879-8.732c0.562-0.673,1.056-1.031,1.906-1.325c2.167-0.743,4.244-1.755,6.333-2.718    c1.477-0.681,2.616-1.759,3.21-3.306c0.467-1.218,1.374-1.91,2.498-2.452c1.398-0.679,2.744-1.468,4.141-2.149    c1.896-0.925,3.602-1.81,4.771-3.901c0.708-1.261,2.845-2.109,4.47-2.386c3.147-0.538,6.247-1.187,9.302-2.102    c0.136-0.04,0.332,0.112,0.631,0.227c0.661,2.092-0.586,3.347-2.16,4.483c-0.427-0.192-0.91-0.41-1.548-0.692    c-0.328,0.725-0.617,1.366-0.852,1.891c0.073,0.255,0.07,0.393,0.128,0.427c3.524,1.986,1.627,5.367,2.041,8.129    c0.217,1.443,0.039,2.942,0.039,5.071c1.66-2.639,0.079-5.911,3.014-7.328c0.717,0.715,1.481,1.474,2.686,2.674    c-0.177,1.059-0.552,2.664-0.69,4.286c-0.137,1.59-0.03,3.2-0.03,4.855c1.415-0.059,1.542-1.13,1.853-1.907    c0.826-2.055,1.575-4.145,2.284-6.243c0.198-0.594,0.405-1.366,0.19-1.886c-1.236-3.022,0.397-5.779,0.668-8.651    c0.033-0.338,0.229-0.834,0.484-0.947c1.856-0.826,1.748-2.436,1.63-4.006c-0.086-1.111,0.254-1.896,1.453-2.772    c0.06,0.825,0.179,1.313,0.111,1.776c-0.122,0.812-0.461,1.599-0.521,2.415c-0.055,0.824,0.048,1.734,1.081,2.008    c0.893,0.24,1.779,0.482,2.468-0.536c0.588-0.869,1.321-1.641,2.293-2.822c0.25,1.602,0.223,2.723-0.271,3.761    c-0.852,1.797-2.336,3.474-0.716,5.575c-0.778,2.435,0.267,5.514-2.751,7.075c0.604,1.539,1.059,2.813,2.66,3.389    c1.648,0.592,1.354,2.194,1.396,3.324c1.109,0.938,2.068,1.751,3.258,2.753c2.284-1.271,4.664-2.597,7.176-3.995    c-0.26-1.005-0.624-2.121,1.31-2.279c1.245-0.103,2.44-0.781,3.667-1.177c0.426-0.142,1.026-0.448,1.29-0.279    c1.462,0.941,2.635,0.006,3.893-0.443c1.447-0.515,3.35-0.576,2.94-3.009c0.277,0.428,0.551,0.851,0.878,1.356    c1.55-0.494,2.821-1.24,3.914-2.753c-1.231-0.07-2.154-0.124-3.655-0.21c0.799-0.831,1.151-1.316,1.612-1.644    c1.347-0.963,2.711-1.91,4.131-2.761c0.475-0.285,1.133-0.265,1.708-0.387c0.086,0.557,0.177,1.112,0.285,1.8    c0.696-0.295,1.429-0.603,2.214-0.934c0.999,0.743,1.944,1.441,3.065,2.272c-1.144,1.028-2.183,2.026-1.309,4.025    c2.25-2.771,5.762-3.051,8.333-5.018c0.812-0.62,1.325-1.63,2.061-2.574c0.314,0.167,0.767,0.405,1.3,0.687    c0.126-0.267,0.376-0.54,0.318-0.699c-0.339-0.913-0.198-1.598,0.679-2.129c3.625-2.194,7.229-4.416,10.856-6.607    c0.294-0.178,0.686-0.195,1.272-0.349c0.314,0.896,0.606,1.725,0.904,2.541c0.878,0.544,0.878,0.544,1.313-0.387    c-0.542,0.184-0.959,0.321-1.379,0.462c0.283-0.463,0.463-1.111,0.875-1.358c2.351-1.403,4.746-2.73,7.152-4.031    c0.378-0.207,0.977-0.366,1.322-0.209c1.761,0.812,3.017-0.197,4.304-1.083c2.043-1.407,4.087-2.818,5.265-5.14    c0.277-0.548,0.767-1.044,1.269-1.413c1.325-0.966,2.714-1.842,4.066-2.771c2.309-1.58,4.031-3.741,5.696-5.936    c0.624-0.819,1.383-1.635,0.729-2.997c-0.29-0.606,0.37-1.672,0.609-2.579c1.907,0.088,2.463,1.139,2.266,3.049    c2.611-2.22,5.265-3.881,4.218-7.772c-0.451,0.107-0.785,0.177-1.112,0.268c-0.262,0.075-0.517,0.175-0.859,0.295    c-0.115-0.253-0.259-0.46-0.317-0.693c-0.514-2.01-1.837-3.776-1.602-6.03c0.089-0.815-0.711-1.212-1.583-1.118    c-1.074,0.121-2.147,0.227-3.143,0.329c-1.242-3.132-3.382-3.975-6.467-2.719c-0.682,0.277-1.303,0.717-1.992,0.971    c-0.711,0.264-1.475,0.399-1.824-0.637c1.26-1.492,2.533-3.004,3.913-4.639c-0.591-0.527-0.902-1.049-1.236-1.068    c-3.703-0.168-6.914-1.838-10.271-3.126c-3.953-1.521-8.072-2.607-11.999-4.189c-3.229-1.3-6.284-3.042-9.406-4.604    c-0.408-0.203-0.746-0.671-1.152-0.721c-4.356-0.544-7.086-3.809-10.305-6.19c-3.612-2.678-7.03-5.621-10.675-8.564    c-1.863,1.62-3.636,0.632-5.187-0.845c-4.029-3.837-7.675-7.978-10.229-13.004c-2.546-5.004-3.115-10.181-1.794-15.605    c0.628-2.576,1.101-5.199,1.904-7.718c0.511-1.608,1.507-3.064,2.421-4.851c1.563,2.111-1.038,3.061-0.708,4.554    c1.067-0.508,2.165-1.032,3.46-1.651c-0.129-0.457-0.366-0.935-0.377-1.416c-0.018-0.859,0.099-1.785,1.335-1.55    c1.354,0.254,1.787-0.649,2.23-1.598c1.014-2.151,1.94-4.347,3.064-6.438c1.991-3.685,4.708-6.831,7.639-9.802    c1.002-1.019,2.163-1.955,2.465-3.715c-0.689-0.077-1.209-0.229-1.71-0.182c-3.678,0.362-7.359,0.682-11.021,1.167    c-6.378,0.843-12.726,0.819-19.062-0.335c-2.184-0.397-4.361-0.819-6.549-1.182c-1.961-0.323-3.64-1.008-5.114-2.499    c-0.84-0.847-2.268-1.163-3.481-1.575c-0.901-0.305-1.531-0.612-2.053-1.575c-0.52-0.954-1.655-1.621-2.617-2.279    c-1.385-0.95-2.055-1.952-2.032-3.853c0.022-2.135-0.642-4.365-1.425-6.394c-0.759-1.973-0.963-3.878-0.871-5.953    c0.204-4.378,0.956-8.58,2.586-12.698c1.273-3.208,3.244-5.815,5.671-8.09c2.148-2.016,4.483-3.871,6.907-5.547    c1.396-0.964,3.129-1.435,4.71-2.132c0.587-0.261,1.176-0.518,1.75-0.801c0.579-0.289,1.114-0.706,1.72-0.899    c5.541-1.769,11.081-3.534,16.649-5.214c1.04-0.315,2.192-0.295,3.295-0.342c5.071-0.217,10.145-0.389,15.217-0.607    c2.029-0.089,4.061-0.208,6.087-0.4c6.424-0.615,12.85-1.227,19.265-1.925c6.25-0.676,12.469-1.662,18.731-2.123    c3.761-0.277,7.596-0.025,11.358,0.378c3.937,0.426,7.91,0.999,11.708,2.063c11.119,3.111,18.344,10.264,21.271,21.543    c0.542,2.087,0.426,4.163-0.06,6.3c-1.37,6.042-2.584,12.116-3.832,18.183c-0.795,3.873-2.43,7.365-4.907,10.411    c-2.026,2.486-3.36,5.229-4.3,8.295c-1.16,3.791-3.828,6.759-6.597,9.41c-5.515,5.279-11.843,9.371-19.211,11.727    c-1.277,0.413-2.398,1.362-3.538,2.14c-1.221,0.831-2.376,1.754-3.594,2.656c0.077,0.801,0.159,1.644,0.247,2.574    c1.706,0.697,3.196,1.639,5.4,1.383c1.429-0.17,3.067,1.399,4.604,2.2c1.132,0.581,2.277,1.138,3.373,1.773    c0.964,0.561,1.871,1.219,2.696,2.029c4.602,0.089,8.922,1.49,13.173,3.397c1.99,0.894,4.245,1.2,6.372,1.808    c0.688,0.197,1.606,0.307,1.963,0.792c1.016,1.368,2.364,1.684,3.886,1.697c1.944,0.012,3.53,0.971,5.069,1.97    c0.445,0.287,0.615,1.014,0.977,1.659c2.394-0.662,4.663-0.263,6.884,1.236c2.05,1.385,4.689,2.096,4.499,5.437    c-0.244,0.191-0.633,0.501-1.274,1.007c7.684,5.96,11.997,13.769,13.532,23.16c-0.67-1.466-1.344-2.937-2.074-4.534    c-0.757,0.354-1.285,0.602-1.73,0.811c-0.974-2.308-1.885-4.51-2.828-6.7c-0.36-0.827-0.761-1.38-1.879-1.687    c-1.506-0.417-2.79-1.611-4.184-2.444c-1.641-0.982-3.283-1.967-4.958-2.887c-1.203-0.661-1.51-1.751-1.737-2.972    c-0.246-1.291-0.621-2.557-1.07-4.358c0.26-0.171,0.941-0.619,1.719-1.131c-1.634-1.129-3.025-2.089-4.188-2.892    c-1.347,0.772-2.401,1.373-3.332,1.902c-0.784-0.727-1.371-1.27-2.135-1.979c-0.586,1.173-0.985,1.976-1.319,2.641    c-2.355,0.808-4.48-0.109-6.631-0.372c-2.186-0.265-4.394-0.677-6.196-2.155c-0.293-0.578-0.905-1.245-0.793-1.751    c0.35-1.587-0.163-3.192-1.428-3.44c-1.529-0.301-1.912-2.157-3.685-1.943c-2.038,0.244-4.13,0.054-6.384,0.054    c-0.812,3.466-3.549,0.801-5.433,1.745c-0.167,0.968-0.349,2.021-0.535,3.092c0.673,0.46,1.633,0.752,1.779,1.276    c0.698,2.495,2.82,2.045,4.915,2.819c-0.307-0.914-0.462-1.38-0.62-1.846l-0.06,0.054c1.535-0.566,3.171-0.666,4.493,0.238    c2.77,1.885,5.272,1.399,7.788-0.369c0.461,0.741,0.918,1.482,1.417,2.286c-1.236,1.48-2.686,1.722-4.532,0.985    c-1.312-0.521-2.773-0.679-4.695-1.119c1.41,1.702,2.84,1.91,4.295,1.978c2.022,0.092,4.054,0.203,6.068,0.097    c0.63-0.034,1.221-0.758,1.644-1.038c1.839,0.524,3.53,1.102,5.265,1.483c2.212,0.484,3.226,1.693,2.842,3.972    c-0.432,0.111-0.864,0.221-1.574,0.399c0.445,0.458,0.713,0.982,1.011,1.002c1.169,0.071,2.129,0.174,1.52,1.738l0.058-0.043    c-1.934-0.483-3.866-0.969-6.021-1.51c-0.649-0.974-1.088-2.603-2.993-2.424c-0.177,2.448-0.158,2.406,2,3.295    c1.088,0.448,2.104,1.085,3.033,1.992c-2.693-0.687-5.464-1.16-8.044-2.145c-1.334-0.507-2.215-0.488-3.326,0.383    c0.24,0.485,0.475,0.965,0.527,1.066c1.425,0.107,2.586-0.015,3.602,0.312c2.317,0.75,4.562,1.727,6.977,2.668    c-0.277,0.477-0.478,0.818-0.628,1.073c0.733,0.525,1.462,1.029,2.174,1.561c0.293,0.216,0.542,0.671,0.833,0.689    c3.029,0.18,2.945,2.373,2.986,4.776c-2.174-1.281-4.581-1.96-5.587-4.529c-0.14-0.354-0.578-0.729-0.956-0.843    c-2.986-0.902-5.988-1.751-8.992-2.588c-0.223-0.061-0.506,0.099-1.173,0.247c0.612,0.3,0.888,0.555,1.161,0.551    c2.869-0.015,4.79,1.741,6.66,3.562c0.192,0.182,0.223,0.729,0.091,0.991c-0.124,0.254-0.581,0.521-0.85,0.484    c-1.181-0.17-2.346-0.442-3.517-0.681l0.022-0.006c0.262-0.5,0.527-1,0.869-1.652c-1.896-0.667-3.406-1.417-5.27-1.177    c-0.783,0.099-1.805-0.387-2.472-0.917c-1.524-1.219-2.954-1.771-4.749-0.522c-0.432,0.301-1.184,0.138-2.125,0.215    c0.409-1.005,0.695-1.699,1.155-2.817c-1.443,0.172-2.561,0.306-4.155,0.496c0.77,1.303,1.404,2.378,2.221,3.761    c-0.796,0.082-1.465,0.281-2.087,0.188c-3.03-0.443-3.164-0.39-4.777,2.978c2.139,0.45,4.201,0.882,6.761,1.418    c-1.44,1.36-2.676,1.215-4.429,1.057c3.265,1.78,6.074,3.333,8.909,4.836c0.71,0.378,1.505,0.595,2.262,0.884    c2.553,0.982,5.114,1.953,7.657,2.965c0.206,0.082,0.311,0.418,0.386,0.522c-0.854,1.051-1.662,2.039-2.701,3.312    c-0.479-0.11-1.327-0.309-2.342-0.541c0.302,0.911,0.549,1.665,0.597,1.815c1.758,1.344,3.092,2.361,4.423,3.381    c0.001,0-0.095-0.099-0.095-0.099c0.295,0.729,0.59,1.46,0.887,2.188c-0.168,0.145-0.335,0.289-0.5,0.433    c-1.55-1.296-3.1-2.588-4.648-3.883c-0.127,0.117-0.252,0.235-0.377,0.351c0.271,0.417,0.505,0.868,0.826,1.24    c0.293,0.346,0.966,0.598,0.979,0.907c0.097,3.323,2.702,3.151,5.223,3.67c0-1.104-0.211-2.194,0.06-3.146    c0.274-0.975,1.022-1.81,1.688-2.918c-0.175-0.333-0.472-0.887-0.77-1.44l-0.073,0.077c0.947,0.283,1.892,0.562,2.833,0.846    c-0.19-0.666-0.376-1.316-0.691-2.403c1.019,0.533,1.619,0.846,2.546,1.331c-0.217-0.875-0.365-1.479-0.531-2.143    c2.199,0.538,2.394,1.032,1.417,3.709c0.837,0.204,1.66,0.397,2.26,0.542c0.293-1.55,0.576-3.054,0.935-4.934    c-0.77-0.928-3.372-1.344-2.205-4.032c2.62,1.861,3.683,4.964,5.903,7.158c-0.206-3.088-0.206-3.088,1.915-3.897    c-0.551-0.533-1.002-0.968-1.544-1.489c0.199-0.185,0.445-0.413,0.697-0.645c2.252,1.416,2.383,5.302,6.251,4.878    c0.338,1.851,0.681,3.713,1.022,5.573c3.584-1.108,0.626-3.342,1.086-5.209c0.597,0.312,1.064,0.557,1.874,0.979    c-0.771-2.861-1.468-5.464-2.276-8.459c2.591,1.173,3.04,3.341,3.524,5.243c0.417,1.629,0.634,3.237,1.854,4.512    c0.226,0.237,0.409,0.68,0.363,0.989c-0.447,3.051,0.83,6.25-0.774,9.199c0.855,1.951-0.904,3.21-1.277,4.836    c-0.409,1.779-0.567,3.672-1.306,5.304c-0.816,1.798-1.593,3.77-3.508,4.849c-0.296,0.168-0.613,0.428-0.746,0.725    c-1.288,2.829-2.446,5.724-3.823,8.508c-1.92,3.877-5.044,6.787-8.179,9.665c-2.204,2.027-4.962,3.074-7.524,4.49    c-3.867,2.138-7.523,4.648-11.326,6.902c-1.851,1.093-3.664,2.593-6.013,1.448c-0.374,0.941-0.67,1.684-0.968,2.427    c-0.481-0.219-0.961-0.437-1.442-0.658L379.646,346.098z"
         id="path4260" /><path
         clip-path="url(#SVGID_2_)"
         fill="#009A93"
         d="M781.212,287.128c-0.277-0.237-0.45-0.484-0.661-0.528    c-0.125-0.025-0.471,0.326-0.439,0.427c0.062,0.218,0.283,0.471,0.484,0.524C780.739,287.586,780.959,287.312,781.212,287.128     M639.87,345.374c-0.208-0.007-0.42-0.015-0.628-0.025c0.031,0.379,0.046,0.757,0.111,1.131c0.008,0.038,0.295,0.031,0.453,0.044    C639.827,346.145,639.849,345.759,639.87,345.374 M768.337,280.716c-0.231,0.04-0.463,0.075-0.698,0.116    c0.097,0.44,0.191,0.881,0.288,1.317c0.25-0.051,0.499-0.107,0.752-0.165C768.564,281.562,768.45,281.14,768.337,280.716     M794.797,284.273c0.198-0.103,0.395-0.201,0.588-0.302c-0.319-0.635-0.647-1.265-1.127-2.206    C793.537,283.2,794.035,283.787,794.797,284.273 M756.099,272.684c-0.542-1.042-0.906-1.742-1.479-2.849    C754.129,271.489,754.345,272.27,756.099,272.684 M764.463,275.545c-0.179,0.143-0.36,0.289-0.539,0.435    c1.027,0.953,1.216,2.656,3.04,2.918C766.132,277.781,765.296,276.661,764.463,275.545 M752.869,269.593    c-0.618-2.651-0.618-2.651-2.722-1.757C751.196,268.509,752.034,269.051,752.869,269.593 M758.312,272.323    c-0.317,0.888-0.499,1.382-0.675,1.876c1.274,0.446,0.704,2.705,2.571,2.773c-0.154-1.05-0.289-1.921-0.423-2.793    c0.156-0.059,0.315-0.111,0.473-0.168C759.718,273.544,759.179,273.075,758.312,272.323 M626.555,363.592    c0.593,1.524,0.593,1.524,3.045,2.812c2.468,1.294,2.468,1.294,4.062,1.362C631.263,366.357,628.92,364.98,626.555,363.592     M646.896,373.214c-0.06,1.012,0.708,1.155,1.423,1.381c0.829,0.261,1.644,0.563,2.466,0.849c-0.036,0.224-0.07,0.448-0.106,0.67    c-0.541,0.028-1.125,0.198-1.622,0.059c-6.269-1.779-12.803-2.846-18.258-6.835c-0.903-0.661-2.07-0.951-3.083-1.48    c-2.884-1.509-4.921-3.908-6.928-6.403c-0.826-1.027-2.249-1.578-3.412-2.331c-1.312-0.852-2.623-1.717-3.968-2.521    c-1.354-0.811-2.101-1.777-1.012-3.268c-1.65-1.354-3.729-1.977-4.469-4.121c-0.147-0.422-0.835-0.859-1.321-0.927    c-3.31-0.43-5.411-2.938-8.018-4.557c-0.697-0.432-1.329-0.962-1.943-1.41c0.639-2.355,0.439-2.98-1.397-4.257    c-0.959-0.668-1.864-1.185-2.475-2.408c-0.475-0.949-2.046-1.446-3.217-1.923c-1.631-0.667-3.226-1.093-3.937-3.098    c-0.31-0.876-1.617-1.399-2.786-2.336c0.731-0.199,1.177-0.32,1.955-0.534c-0.612-1.686-1.213-3.359-1.868-5.168    c0.84-0.718,1.78-1.521,2.946-2.521c0.511,1.928-0.261,3.098-1.391,4.257c0.562,0.288,0.953,0.491,1.447,0.747    c0.655-0.689,0.786-1.742,2.136-1.793c1.168-0.04,1.754-1.278,2.177-2.533c0.657-1.964,1.393-4.052,2.671-5.614    c1.464-1.79,3.712-2.346,6.067-1.427c4.188,1.638,8.481,2.904,12.569,4.915c3.121,1.531,6.547,3.098,10.331,2.505    c0.099-0.017,0.24,0.24,0.488,0.507c-0.695,0.424-1.354,0.827-2.01,1.227c0.99,3.366,1.396,3.752,3.669,3.543    c3.168-0.29,3.844-0.461,5.737-1.604c-0.43,0.871-0.659,1.402-0.946,1.892c-0.604,1.04-1.345,2.009-1.853,3.093    c-0.956,2.049-0.499,3.261,1.428,4.501c0.442,0.279,0.782,0.739,1.132,1.153c0.355,0.42,0.658,0.879,1.042,1.396    c0.727,0,1.479-0.103,2.188,0.034c0.585,0.113,1.444,0.388,1.606,0.812c0.713,1.815,2.331,1.93,3.823,2.315    c0.803,0.21,1.638,0.31,2.433,0.537c1.258,0.362,2.104,0.732,1.501,2.529c-0.352,1.044,0.718,2.509-1.152,3.803    c2.002,0.599,3.521,1.057,5.03,1.51c0.326-0.798,0.644-1.586,0.968-2.381c1.765,1.126,3.207,2.047,4.821,3.077    c-0.047,0.201-0.158,0.704-0.278,1.243c0.281,0.121,0.521,0.303,0.773,0.317c4.328,0.239,8.659,0.658,12.988,0.633    c5.728-0.037,11.457-0.425,17.183-0.669c0.462-0.018,0.956,0.002,1.37-0.16c2.632-1.044,5.194-2.298,7.883-3.167    c3.152-1.013,6.403-1.723,9.625-2.515c0.417-0.104,0.977-0.055,1.358,0.145c2.581,1.354,5.167,1.459,8.008,0.743    c1.893-0.476,3.982-0.388,5.957-0.209c1.105,0.101,2.3,0.715,3.179,1.435c0.841,0.685,1.52,0.848,2.496,0.549    c2.025-0.612,4.004-1.16,5.661-2.688c1.468-1.356,3.168-2.538,5.274-2.859c0.452-0.07,0.935-0.176,1.319-0.407    c2.045-1.232,4.097-2.459,6.069-3.801c0.521-0.351,0.713-1.152,1.164-1.644c1.918-2.092,2.147-5.523,5.515-6.619    c-0.752-2.344,1.479-3.448,2.126-5.262c0.213-0.589,0.998-1.213,0.877-1.642c-0.934-3.289,1.105-6.565-0.06-9.841    c-0.199-0.564-0.04-1.257-0.055-1.887c-0.023-1.184,0.042-2.376-0.102-3.548c-0.216-1.785-0.786-2.266-2.452-1.974    c-1.153,0.197-2.257,0.682-3.844,1.185c0.537-0.695,0.778-1.102,1.106-1.417c1.068-1.023,2.151-2.034,3.257-3.012    c2.877-2.545,3.232-5.687,2.089-9.113c-0.778-2.332-1.442-4.664-3.275-6.587c-1.639-1.709-2.675-3.975-4.142-5.867    c-2.214-2.854-5.527-4.244-8.504-6.072c-3.296-2.031-6.77-3.827-9.366-7.095c0.334-0.378,0.695-0.795,1.212-1.383    c-0.503-0.179-0.948-0.488-1.11-0.378c-1.546,1.062-2.738,0.325-3.996-0.602c-4.816-3.562-9.852-6.852-14.43-10.693    c-3.156-2.646-5.869-5.899-8.47-9.128c-4.147-5.153-7.373-10.878-9.063-17.333c-0.746-2.841-1.313-5.747-1.705-8.659    c-0.619-4.642,1.277-8.48,4.346-11.805c0.463-0.5,1.178-0.871,1.845-1.067c1.907-0.561,2.719-1.87,3.277-3.713    c0.741-2.458,1.852-4.8,2.848-7.176c0.121-0.292,0.517-0.474,0.818-0.732c1.726,0.753,0.672,2.382,1.391,3.615    c6.686-5.482,13.058-11.41,21.239-15.524c-0.886-0.371-1.415-0.659-1.981-0.801c-0.332-0.082-0.935,0.243-1.059,0.091    c-2.096-2.543-3.969-0.193-5.91,0.24c-0.439,0.097-0.849,0.374-1.235,0.619c-1.036,0.66-2.04,0.908-3.363,0.731    c-3.524-0.473-6.213,1.423-8.568,3.74c-2.339,2.306-3.778,5.239-5.124,8.182c-1.066,2.342-1.955,4.764-3.127,7.088    c-0.475-4.915,2.676-8.779,4.32-13.274c-3.436-1.147-6.503-2.484-9.708-3.134c-2.384-0.482-4.949,0.024-7.424-0.094    c-1.525-0.073-3.157-0.216-4.524-0.823c-2.086-0.926-3.923-2.406-5.98-3.424c-2.473-1.225-5.148-2.063-7.594-3.35    c-3.016-1.584-5.884-3.448-8.799-5.221c-0.188-0.112-0.22-0.475-0.431-0.976c1.893-0.714,3.747-1.41,5.847-2.197    c-0.542-0.753-0.976-1.358-1.416-1.971c0.619-0.586,1.272-1.096,1.8-1.712c0.84-0.977,0.639-1.98-0.524-2.629    c-0.886-0.494-1.926-0.745-2.723-1.34c-1.081-0.804-2.381-1.602-2.188-3.275c0.135-1.166,1.93-2.363,3.635-2.519    c1.003-0.092,2.026-0.113,3.011-0.319c1.984-0.417,2.326-1.104,2.279-3.088c-0.062-2.376-1.074-3.948-3.261-4.851    c-1.155-0.476-2.256-1.082-3.602-1.737c3.599-0.35,6.208-1.633,7.513-4.956c0.537-1.371,1.516-2.138,3.226-2.029    c2.029,0.129,4.253,0.838,5.988-1.011c0.045-0.051,0.182-0.065,0.259-0.042c4.666,1.519,6.633-2.927,9.874-4.532    c1.753-0.868,3.293-2.159,4.934-3.251c0.152-0.102,0.399-0.086,0.508-0.211c2.6-3.039,5.048-1.959,7.617,0.569    c1.959-0.873,3.906-1.842,5.932-2.598c0.79-0.292,1.863-0.383,2.62-0.088c1.508,0.591,2.91,0.494,4.315-0.073    c2.903-1.178,5.866-2.247,8.645-3.673c4.92-2.525,10.097-4.005,15.554-4.752c6.05-0.831,12.061-1.94,18.1-2.821    c2.283-0.331,4.609-0.524,6.913-0.487c7.409,0.122,14.761,0.874,21.998,2.51c2.871,0.647,5.672,1.597,8.663,1.631    c0.707,0.009,1.49,0.241,2.096,0.606c1.309,0.793,2.701,0.825,4.149,1.074c3.746,0.637,7.655,1.185,9.785,5.255    c1.051,2,2.868,3.591,4.28,5.412c1.519,1.961,3.19,3.854,4.389,6.001c1.155,2.071,2.2,4.377,2.523,6.685    c0.246,1.766-0.262,3.996-1.243,5.494c-1.45,2.205-2.239,4.603-3.165,6.979c-2.284,5.857-4.479,11.717-8.29,16.853    c-1.513,2.044-2.498,4.52-3.506,6.889c-1.854,4.355-4.703,7.665-9.137,9.512c-5.974,2.492-11.991,4.885-17.881,7.551    c-3.699,1.673-7.303,3.618-10.755,5.75c-1.492,0.923-2.611,2.544-3.69,4.008c-0.78,1.059-0.845,2.374-0.402,3.719    c0.588,1.798,1.017,3.65,1.993,5.407c0.13-0.541,0.258-1.078,0.482-1.984c0.717,0.793,1.146,1.368,1.674,1.833    c1.726,1.516,3.478,3,5.237,4.474c0.856,0.717,1.678,1.377,1.85,2.637c0.074,0.539,0.62,1.143,1.115,1.474    c2.987,1.998,6.026,3.928,9.239,6.006c0.395-0.628,0.696-1.12,1.164-1.87c1.204,0.965,2.378,1.909,3.554,2.85    c-1.258,0.003-2.632-0.997-3.15,0.801c4.791,2.689,9.596,5.381,14.51,8.135c0.118-0.33,0.31-0.881,0.572-1.638    c2.686,4.24,5.266,8.312,8.067,12.738c-1.258-0.307-2.209-0.475-3.105-0.784c-0.387-0.136-0.985-0.604-0.956-0.862    c0.292-2.611-2.184-3.126-3.407-4.562c-0.569-0.666-1.396-0.911-2.39,0.233c0.979,1.215,1.985,2.459,2.992,3.701    c-0.085,0.137-0.168,0.271-0.252,0.405c-0.732-0.436-1.521-0.805-2.186-1.324c-0.796-0.624-1.49-1.383-2.229-2.079    c-2.14-2.017-4.678-3.157-7.825-3.524c-0.034,0.465-0.065,0.868-0.104,1.448c-2.598,0.885-3.351-1.724-5.414-2.603    c1.224-0.849,2.521-0.926,2.95-2.206c0.119-0.358,1.226-0.735,1.702-0.571c2.026,0.688,4.49,0.381,5.95,2.462    c0.138,0.196,0.448,0.271,1.044,0.224c-0.298-0.56-0.468-1.26-0.912-1.646c-2.022-1.762-4.131-3.416-6.905-3.842    c-1.461-0.228-2.574-0.971-3.389-2.188c-1.709-2.566-4.187-3.818-7.329-4.353c0.296,1.858,2.48,1.31,2.983,2.837    c-0.695-0.101-1.317-0.193-2.12-0.313c0.159,0.648,0.259,1.053,0.358,1.459c-2.565-1.382-5.765-1.223-7.551,0.501    c0.468,0.521,0.85,1.194,1.431,1.549c1.397,0.848,2.459,1.846,2.885,3.522c0.123,0.488,0.834,0.957,1.382,1.188    c1.714,0.732,2.899,1.911,3.519,3.662l0.077-0.08c-0.387,0.06-0.783,0.117-1.17,0.177c-0.163,0.232-0.32,0.463-0.482,0.697    c0.549,0.293,1.096,0.586,1.645,0.883l-0.077-0.075c0.192,0.414,0.384,0.828,0.723,1.563c-2.559-0.824-5.065-0.611-7.175-2.203    c-1.317-0.995-2.86-1.768-4.66-1.195c-0.085,0.025-0.188,0.029-0.272,0.004c-2.231-0.61-4.465-1.225-6.9-1.896    c-0.261,0.809-0.902,1.732-0.709,2.42c0.33,1.173,1.075,2.29,1.846,3.27c0.672,0.852,1.738,1.394,2.421,2.236    c1.299,1.607,1.14,2.638-0.392,4.278c0.146-1.411,0.146-1.411-1.438-1.113c0.502,0.349,1.006,0.699,1.508,1.051    c0.517,0.352,0.99,0.828,1.561,1.019c1.178,0.396,2.398,0.685,3.62,0.928c0.655,0.131,1.344,0.082,2.12,0.117v3.434l0.067-0.06    h-5.415c-0.358-3.153-0.358-3.153-6.522-4.702c0.158-0.458,0.309-0.912,0.456-1.357c-1.501-0.08-2.895-0.158-4.349-0.238    c-0.799,1.809-0.742,2.421,0.438,3.315c1.018,0.771,2.15,1.416,3.057,2.294c0.901,0.87,1.583,1.966,2.37,2.977    c-0.771,2.245-0.771,2.245,1.217,3.336c0.151-0.301,0.299-0.598,0.454-0.89c0.129-0.235,0.275-0.459,0.387-0.652    c1.123-0.233,3.889,2.259,4.646,4.142c-1.921,0.585-2.265-2.388-4.334-1.84c-0.005,1.885,1.896,1.727,2.699,2.623    c0.918,1.014,1.734,2.123,2.653,3.258c0.336-0.304,0.683-0.616,1.17-1.058c0.154,1.106,0.278,1.983,0.409,2.938    c1.235-0.626,2.163-1.1,3.091-1.57l-0.048,0.039c0.953,0.348,1.907,0.693,2.852,1.054c-0.221,0.596-0.434,1.182-0.657,1.777    c-0.416-0.32-0.826-0.648-1.44-1.144c-0.118,0.607-0.203,1.043-0.306,1.586c0.766-0.213,1.289-0.358,1.814-0.499    c0.014,1.271,0.873,1.26,2.213,1.441c-0.698-1.301-1.187-2.208-1.675-3.117c-0.554-0.569-0.838-1.161-0.1-2.116    c0.494,0.542,0.994,0.922,1.283,1.422c1.849,3.187,3.65,6.399,5.47,9.606c0.271,0.475,0.472,1.03,0.851,1.399    c0.796,0.776,1.221,0.185,1.612-0.831c0.598,1.081,1.105,1.996,1.615,2.912c0.137-0.018,0.273-0.034,0.414-0.051v-6.735    c1.059,0.896,1.59,1.348,2.231,1.894c-0.499-1.834-0.979-3.585-1.536-5.631c1.644,0.809,3.995,4.444,5.025,6.947    c1.029,2.501,2.259,4.922,3.529,7.658c-0.079-1.227-0.144-2.234-0.212-3.299c0.417-0.018,0.826-0.039,1.49-0.068    c-0.965-4.095-1.915-8.117-2.863-12.14c0.075-0.054,0.147-0.107,0.226-0.158c0.827,1.221,1.656,2.44,2.487,3.659    c0.136-0.038,0.272-0.077,0.408-0.116c-0.388-1.334-0.757-2.671-1.173-3.995c-0.306-0.968-0.736-1.9-0.992-2.883    c-0.502-1.922-0.003-2.906,1.839-4.085c0.396-0.252,0.665-0.706,1.142-1.236c0.343,0.09,0.937,0.244,1.365,0.354    c-0.068,0.661-0.369,1.352-0.15,1.771c1.763,3.374,3.31,6.798,3.688,10.659c0.06,0.597,0.545,1.152,0.9,1.862    c-0.477,0.301-0.896,0.562-1.511,0.946c0.447,1.233,0.863,2.534,1.39,3.788c0.748,1.78,1.262,4.017,0.191,5.299    c-1.318,1.573-0.624,2.276,0.047,3.509c0.403,0.747,0.322,1.766,0.46,2.666c-0.197,0.152-0.393,0.303-0.589,0.451    c-0.243-0.676-0.487-1.352-0.785-2.188c-1.325,1.671,0.028,2.389,0.033,3.3c-2.432,1.261-0.661,3.833-1.822,5.779    c-0.673-1.179-1.263-2.213-2.013-3.536c-1.393,2.304,0.573,4.85-1.48,7.025c-0.48-3.361-0.915-6.398-1.354-9.435    c-0.16,0.005-0.321,0.011-0.485,0.011c0,3.6,0.03,7.203-0.024,10.802c-0.008,0.707-0.124,1.77-0.575,2.05    c-2.171,1.352-2.069,3.756-2.967,5.691c-0.836,1.802-1.907,3.493-2.803,5.272c-0.401,0.802-0.799,1.675-0.901,2.553    c-0.902,7.762-5.069,13.712-10.443,19.005c-3.305,3.255-6.838,6.19-11.213,7.934c-0.812,0.324-1.638,0.646-1.053,1.593    c-1.076,0.128-2.179,0.385-3.274,0.354c-1.133-0.031-2.258-0.341-3.671-0.577c-0.193,0.321-0.55,0.923-0.913,1.524    c-4.3-0.307-8.518-0.168-12.055,2.863l0.118-0.109c-2.671-0.799-4.836,0.816-7.146,1.583c-4.191,1.391-8.322,2.972-12.469,4.513    c-1.424,0.531-3.215,0.685-3.088,2.842c-0.625,0.042-1.048,0.201-1.34,0.07c-2.512-1.124-4.814-0.1-7.215,0.521    c-5.607,1.458-11.228,2.934-16.908,4.062c-2.753,0.553-5.674,0.567-8.489,0.385c-1.289-0.085-2.521,0.308-3.929-0.087    c-2.562-0.71-5.338-0.622-8.01-0.959c-0.687-0.086-1.319-0.545-1.989-0.792c-0.816-0.301-1.671-0.849-2.466-0.781    c-2.832,0.239-5.649,0.65-8.461,1.088c-0.98,0.15-1.907,0.62-2.885,0.819c-0.676,0.139-1.407,0.159-2.092,0.066    c-1.897-0.262-3.754-0.329-5.597,0.746c1.133,0.359,2.265,0.721,3.866,1.226c-1.914,1.301-3.015-0.212-4.278-0.153    c-1.248,0.06-2.512-0.168-3.785-0.258c-0.94-0.327-1.868-0.665-2.981-1.071C644.813,373.149,645.677,373.736,646.896,373.214"
         id="path4262" /><path
         clip-path="url(#SVGID_2_)"
         fill="#009A93"
         d="M496.89,300c-1.647-0.475-3.165-0.518-4.083-1.28    c-1.208-0.999-1.985-2.543-2.849-3.916c-0.196-0.307-0.133-0.98,0.087-1.301c0.416-0.607,1.164-1.158,0.576-1.904    c-0.493-0.624-1.239-1.101-1.958-1.473c-0.462-0.239-1.092-0.131-1.628-0.259c-2.054-0.494-2.7-1.992-1.766-3.947    c0.223-0.463,0.335-0.978,0.57-1.687h-2.029c-0.235-3.177-2.552-5.981-0.511-9.305c0.811-1.319,1.631-3.121,0.578-5.194    c-0.332,0.67-0.557,1.124-0.786,1.575c-0.147-0.076-0.405-0.139-0.42-0.232c-0.088-0.636-0.273-1.312-0.14-1.913    c0.42-1.936,0.978-3.838,1.462-5.759c0.363-1.45,0.559-2.716-0.692-4.082c-1.047-1.146-1.523-2.695-1.243-4.572    c0.613-4.089,0.435-4.117,2.483-7.608c0.781-0.078,1.666-0.169,2.521-0.256v-7.511c-0.478-0.207-1.139-0.493-1.913-0.828    c-0.479,0.636-0.852,1.266-1.354,1.76c-1.334,1.319-1.919,2.966-2.578,4.68c-0.839,2.184-2.165,4.179-3.312,6.316    c-1.679-1.753-1.86-2.858-0.751-4.78c1.058-1.828,2.156-3.634,3.341-5.382c0.442-0.659,1.084-1.294,1.779-1.652    c1.325-0.688,1.686-1.781,1.921-3.354c-0.749,0.465-1.262,0.784-1.882,1.167c-0.482-0.37-0.977-0.755-1.641-1.27    c0.696-1.048-0.075-2.71,1.682-3.457c0.681,0.429,1.364,0.863,2.22,1.405c1.174-1.694,2.676-3.017,2.088-5.565    c-0.522-2.276,1.896-4.255,4.581-4.133c0.722-2.928,2.359-5.251,4.724-7.133c2.662-2.116,5.239-4.338,7.864-6.504    c1.396-1.149,2.74-2.391,4.253-3.365c0.701-0.45,1.756-0.498,2.64-0.468c0.879,0.025,1.48-0.11,2.222-0.701    c1.479-1.173,3.156-2.104,4.802-3.049c0.313-0.18,1.057-0.142,1.262,0.092c2.333,2.693,5.435,1.633,8.284,1.779    c0.177,0.011,0.35,0.039,0.734,0.082c-0.033,0.679-0.07,1.368-0.107,2.037c1.922,2.223,3.39-0.423,5.387-0.642    c-0.286,0.679-0.465,1.105-0.712,1.684c1.92,0.466,2.903-0.684,3.889-1.928c-0.539-0.575-1.025-1.096-1.669-1.784    c0.684-0.622,1.192-1.312,1.874-1.676c2.471-1.327,5.029-2.485,7.331-4.115c0.3-0.211,0.889-0.107,1.32-0.022    c1.805,0.363,3.627,0.682,5.395,1.188c1.953,0.557,3.275-0.823,4.852-1.389c0.652-0.232,3.859-1.705,4.589-1.87    c0.245-0.058,0.545-0.155,0.687-0.339c1.734-2.205,3.877-2.424,6.364-1.474c0.438,0.167,1.057-0.119,1.822-0.228    c0.202-2.273,0.402-4.479,0.616-6.856c1.754,0.328,0.896,3.579,3.375,3.508c0.124-0.369,0.286-0.831,0.498-1.453    c0.336,0.188,0.705,0.289,0.908,0.527c0.804,0.941,1.213,2.35,3.092,2.305c0.133-0.732,0.271-1.472,0.42-2.281    c0.239,0.048,0.556,0.024,0.728,0.168c0.57,0.469,1.087,1.003,1.634,1.502c0.338,0.311,0.693,0.865,1.044,0.87    c2.686,0.03,4.906,1.527,7.53,2.587v-2.355c1.146,0.313,2.148,0.583,3.068,0.834c1.619-1.575,0.469-3.463,0.833-5.424    c0.861,0.566,1.498,0.987,2.312,1.521c0.534-0.308,1.415-0.511,1.722-1.043c0.774-1.349,1.771-1.792,3.221-1.409    c1.58,0.421,3.008,1.007,3.239,2.936c0.041,0.35,0.257,0.676,0.462,1.189c0.521-0.055,1.029-0.201,1.518-0.147    c1.344,0.151,1.981,0.95,2.38,2.279c0.845,2.816,1.949,5.556,2.903,8.342c0.82,2.397,3.158,2.954,4.996,3.984    c1.819,1.021,2.655,2.343,2.261,4.261c-0.363,1.776-1.055,3.487-1.618,5.22c-0.479,1.474-1.494,2.976-1.39,4.4    c0.391,5.229-3.352,8.257-7.085,9.82c-1.853,0.774-3.769,1.075-5.679,0.38c-1.619-0.588-2.873-0.155-4.042,0.96    c-0.732,0.703-1.596,1.284-2.266,2.04c-2.387,2.683-5.463,3.674-8.924,3.699c-6.66,0.05-13.316,0.07-19.974,0.076    c-4.736,0.003-9.109,1.407-13.325,3.409c-1.836,0.874-3.644,1.811-5.464,2.719c-1.665,0.828-3.049,1.909-4.339,3.327    c-1.326,1.467-3.205,2.458-4.919,3.536c-1.575,0.991-2.574,2.068-2.708,4.151c-0.108,1.659,0.212,3.858-2.044,4.749    c-0.124,0.048-0.241,0.327-0.222,0.485c0.293,2.319-1.292,4.255-1.398,6.401c-0.098,1.95,0.136,4.211,1.066,5.86    c1.556,2.765,2.998,5.45,2.979,8.73c1.263,0.14,2.358,0.185,3.426,0.395c2.71,0.537,2.777,0.505,2.603-2.398    c0.468,0.289,0.967,0.426,1.157,0.744c1.799,3.025,5.096,3.452,7.958,4.615c0.338,0.136,0.989,0.012,1.249-0.244    c1.519-1.507,3.299-1.45,5.183-1.075c0.247,0.05,0.531-0.086,0.958-0.166v-2.35c0.096-0.09,0.209-0.289,0.363-0.323    c2.949-0.687,5.906-1.351,8.857-2.026c6.214-1.417,12.403-2.967,18.653-4.213c3.713-0.743,7.474-0.247,11.661,0.421    c-0.872,1.042-1.417,1.69-2.036,2.429c0.596,0.707,1.163,1.384,1.942,2.317c-1.51,0.38-2.729,0.771-3.975,0.984    c-2.786,0.471-4.727,2.403-6.944,3.865c-0.144,0.095-0.284,0.279-0.31,0.445c-0.531,2.916-2.837,4.099-5.069,5.477    c-1.221,0.757-2.154,1.986-3.169,3.045c-3.135,3.253-6.848,6.156-9.19,9.908c-2.146,3.423-5.389,5.371-7.961,8.144    c-3.052,3.284-6.377,6.33-9.725,9.323c-1.052,0.939-2.494,1.672-3.871,1.971c-1.879,0.406-3.049,1.572-4.328,3.06    c-0.459-0.596-0.825-1.065-1.362-1.757c-1.041,0.729-2.1,1.492-3.186,2.21c-0.229,0.151-0.564,0.16-0.855,0.19    c-1.692,0.165-3.39,0.321-5.085,0.479c-1.913,0.177-3.794,0.789-5.761,0.129c-0.749-0.25-1.649-0.018-2.469-0.1    c-0.975-0.098-1.944-0.299-3.319-0.52c1.575-1.582,3.345-0.557,4.87-1.502c-1.222-0.545-2.293-1.026-3.365-1.504    c0.04-0.136,0.083-0.27,0.125-0.406c3.71,0.283,7.422,0.564,11.131,0.847c0.021-0.197,0.041-0.395,0.061-0.589    c-1.191-0.11-2.388-0.185-3.573-0.332c-3.743-0.466-7.474-1.05-11.229-1.416c-2.603-0.25-4.513-1.952-6.778-2.889    c-4.538-1.882-7.748-5.572-11.134-8.896c-1.844-1.811-2.946-4.396-4.317-6.676C497.229,301.197,497.034,300.377,496.89,300"
         id="path4264" /><path
         clip-path="url(#SVGID_2_)"
         fill="#009A93"
         d="M479.172,269.926c-0.843-0.447-1.54-0.818-2.225-1.181    c-0.052-2.842,0.325-3.257,3.201-3.122c-0.29-2.382-0.575-4.725-0.856-7.062c1.3-0.224,1.465,0.49,1.657,1.227    c0.28,1.081,0.604,2.147,0.991,3.505C481.143,265.207,480.18,267.51,479.172,269.926"
         id="path4266" /><path
         clip-path="url(#SVGID_2_)"
         fill="#009A93"
         d="M786.031,254.774c2.774-0.335,3.968,0.61,4.227,3.258    c0.065,0.674,0.114,1.348,0.18,2.146c-1.801,0.244-1.5-1.668-2.257-2.477C787.372,256.834,786.759,255.782,786.031,254.774"
         id="path4268" /><path
         clip-path="url(#SVGID_2_)"
         fill="#009A93"
         d="M483.629,245.59c-0.386,1.893-2.013,4.431-3.625,5.84    C480.325,248.913,481.333,247.174,483.629,245.59"
         id="path4270" /><path
         clip-path="url(#SVGID_2_)"
         fill="#009A93"
         d="M470.819,249.529c2.994,1.096,2.994,1.096,1.956,3.709    C471.117,252.656,471.4,251.152,470.819,249.529"
         id="path4272" /><path
         clip-path="url(#SVGID_2_)"
         fill="#009A93"
         d="M801.027,263.127c-0.719-1.62-1.28-2.88-2.078-4.677    c2.097,0.738,2.804,1.941,3.295,3.246C802.324,261.913,801.653,262.414,801.027,263.127"
         id="path4274" /><path
         clip-path="url(#SVGID_2_)"
         fill="#009A93"
         d="M774.774,245.816c2.117-0.426,2.608,1.721,3.946,2.588    c-1.315-0.329-2.635-0.655-3.954-0.986l0.077,0.075c0.003-0.584,0.008-1.171,0.008-1.757L774.774,245.816z"
         id="path4276" /><path
         clip-path="url(#SVGID_2_)"
         fill="#009A93"
         d="M544.351,196.329c1.673-1.434,2.677-0.849,3.875,0.009    C546.897,197.352,545.85,196.924,544.351,196.329"
         id="path4278" /><path
         clip-path="url(#SVGID_2_)"
         fill="#009A93"
         d="M476.776,252.281c-0.687,1.211-1.373,2.42-2.154,3.811    C474.39,254.158,474.489,253.951,476.776,252.281"
         id="path4280" /><path
         clip-path="url(#SVGID_2_)"
         fill="#009A93"
         d="M769.136,255.294c-1.084,0.856-1.895,1.399-2.586,0.28    c-0.201-0.32-0.058-1.248,0.199-1.387C767.839,253.603,768.303,254.576,769.136,255.294"
         id="path4282" /><path
         clip-path="url(#SVGID_2_)"
         fill="#009A93"
         d="M407.895,259.329c0.87-0.366,1.741-0.738,2.717-1.151    c0.321,1.299-0.007,2.009-1.449,1.746c-0.424-0.077-0.796-0.426-1.206-0.646C407.95,259.287,407.895,259.329,407.895,259.329"
         id="path4284" /><path
         clip-path="url(#SVGID_2_)"
         fill="#009A93"
         d="M774.832,236.076c1.014,0.158,1.595,0.248,2.381,0.37    c-0.271,0.47-0.369,0.901-0.615,1.012C775.839,237.807,775.817,237.756,774.832,236.076"
         id="path4286" /><path
         clip-path="url(#SVGID_2_)"
         fill="#009A93"
         d="M773.072,226.614c0.868,0.464,1.734,0.926,2.605,1.391    c-0.079,0.169-0.156,0.344-0.233,0.514c-0.93-0.338-1.855-0.679-2.781-1.017C772.8,227.205,772.937,226.909,773.072,226.614"
         id="path4288" /><path
         clip-path="url(#SVGID_2_)"
         fill="#009A93"
         d="M535.851,194.749c0.868-0.153,1.739-0.307,2.608-0.46    c0.026,0.241,0.058,0.482,0.086,0.722c-0.884,0.041-1.769,0.079-2.652,0.121C535.877,195.003,535.862,194.874,535.851,194.749"
         id="path4290" /><path
         clip-path="url(#SVGID_2_)"
         fill="#009A93"
         d="M151.125,202.146c-0.203,0.167-0.38,0.347-0.593,0.466    c-0.045,0.024-0.22-0.189-0.331-0.292c0.169-0.182,0.332-0.376,0.525-0.531C150.745,201.773,150.948,201.986,151.125,202.146"
         id="path4292" /><path
         clip-path="url(#SVGID_2_)"
         fill="#009A93"
         d="M806.064,258.43c0.249,0.321,0.496,0.645,0.74,0.965    c-0.104,0.088-0.212,0.173-0.314,0.261c-0.262-0.314-0.522-0.627-0.781-0.939C805.826,258.62,805.943,258.526,806.064,258.43"
         id="path4294" /><path
         clip-path="url(#SVGID_2_)"
         fill="#009A93"
         d="M563.024,192.21c0.15,0.171,0.357,0.325,0.33,0.396    c-0.083,0.238-0.25,0.45-0.384,0.673c-0.145-0.164-0.431-0.354-0.403-0.473C562.618,192.587,562.857,192.413,563.024,192.21"
         id="path4296" /><path
         clip-path="url(#SVGID_2_)"
         fill="#009A93"
         d="M554.864,197.022c-0.161,0.006-0.32,0.012-0.479,0.023    c0.023-0.14,0.039-0.289,0.091-0.419c0.015-0.031,0.218-0.041,0.239-0.006C554.793,196.741,554.818,196.887,554.864,197.022"
         id="path4298" /><path
         clip-path="url(#SVGID_2_)"
         fill="#009A93"
         d="M118.904,230.72c-0.206,0.122-0.418,0.253-0.634,0.384    c-0.085-0.196-0.171-0.39-0.258-0.588c0.234-0.1,0.467-0.2,0.699-0.301C118.767,230.361,118.823,230.509,118.904,230.72"
         id="path4300" /><path
         clip-path="url(#SVGID_2_)"
         fill="#009A93"
         d="M382.41,247.624c-0.629-0.688-1.258-1.379-1.915-2.097    c3.604-2.626,4.123-2.611,7.172,0.235c-2.183-0.099-4.084,0.093-5.309,1.909C382.35,247.676,382.41,247.624,382.41,247.624"
         id="path4302" /></g></g></svg>