<?xml version="1.0" encoding="UTF-8" standalone="no"?>
<!-- Generator: Adobe Illustrator 16.0.0, SVG Export Plug-In . SVG Version: 6.00 Build 0)  -->

<svg
   xmlns:dc="http://purl.org/dc/elements/1.1/"
   xmlns:cc="http://creativecommons.org/ns#"
   xmlns:rdf="http://www.w3.org/1999/02/22-rdf-syntax-ns#"
   xmlns:svg="http://www.w3.org/2000/svg"
   xmlns="http://www.w3.org/2000/svg"
   xmlns:sodipodi="http://sodipodi.sourceforge.net/DTD/sodipodi-0.dtd"
   xmlns:inkscape="http://www.inkscape.org/namespaces/inkscape"
   version="1.1"
   x="0px"
   y="0px"
   width="841.89px"
   height="595.28px"
   viewBox="0 0 841.89 595.28"
   enable-background="new 0 0 841.89 595.28"
   xml:space="preserve"
   id="svg5207"
   inkscape:version="0.91 r13725"
   sodipodi:docname="Wurst_Claim.svg"><metadata
     id="metadata5227"><rdf:RDF><cc:Work
         rdf:about=""><dc:format>image/svg+xml</dc:format><dc:type
           rdf:resource="http://purl.org/dc/dcmitype/StillImage" /><dc:title></dc:title></cc:Work></rdf:RDF></metadata><defs
     id="defs5225" /><sodipodi:namedview
     pagecolor="#ffffff"
     bordercolor="#666666"
     borderopacity="1"
     objecttolerance="10"
     gridtolerance="10"
     guidetolerance="10"
     inkscape:pageopacity="0"
     inkscape:pageshadow="2"
     inkscape:window-width="1366"
     inkscape:window-height="704"
     id="namedview5223"
     showgrid="false"
     inkscape:zoom="0.77919917"
     inkscape:cx="362.82292"
     inkscape:cy="267.56881"
     inkscape:window-x="0"
     inkscape:window-y="27"
     inkscape:window-maximized="1"
     inkscape:current-layer="svg5207" /><g
     id="Ebene_1"><rect
       stroke="#000000"
       stroke-miterlimit="10"
       width="846"
       height="595.28"
       id="rect5210" /></g><g
     id="Ebene_2" /><g
     transform="matrix(-1.0422051,0.00101341,0.00101341,1.0422051,-51.704713,-148.24899)"
     style="font-style:normal;font-variant:normal;font-weight:bold;font-stretch:normal;font-size:96.25px;line-height:125%;font-family:'Avenir LT Std';-inkscape-font-specification:'Avenir LT Std Bold';text-align:start;letter-spacing:0px;word-spacing:0px;writing-mode:lr-tb;text-anchor:start;opacity:1;fill:#ffffff;fill-opacity:1;stroke:none;stroke-width:1px;stroke-linecap:butt;stroke-linejoin:miter;stroke-opacity:1"
     id="text4314"><path
       inkscape:connector-curvature="0"
       d="m -831.22071,463.91061 48.02875,0 0,-13.86 -33.01375,0 0,-13.86 29.54875,0 0,-13.86 -29.54875,0 0,-12.705 31.28125,0 0,-13.86 -46.29625,0 0,68.145 z"
       style="font-style:normal;font-variant:normal;font-weight:800;font-stretch:normal;font-size:96.25px;line-height:125%;font-family:'Avenir LT Std';-inkscape-font-specification:'Avenir LT Std, Ultra-Bold';text-align:start;letter-spacing:1.25px;writing-mode:lr-tb;text-anchor:start;fill:#ffffff;fill-opacity:1"
       id="path4311" /><path
       inkscape:connector-curvature="0"
       d="m -769.828,463.91061 15.015,0 0,-52.26375 0.1925,0 17.22875,52.26375 11.45375,0 17.9025,-52.26375 0.1925,0 0,52.26375 15.015,0 0,-68.145 -22.61875,0 -15.785,44.4675 -0.1925,0 -15.68875,-44.4675 -22.715,0 0,68.145 z"
       style="font-style:normal;font-variant:normal;font-weight:800;font-stretch:normal;font-size:96.25px;line-height:125%;font-family:'Avenir LT Std';-inkscape-font-specification:'Avenir LT Std, Ultra-Bold';text-align:start;letter-spacing:1.25px;writing-mode:lr-tb;text-anchor:start;fill:#ffffff;fill-opacity:1"
       id="path4313" /><path
       inkscape:connector-curvature="0"
       d="m -647.95544,463.91061 15.015,0 0,-27.23875 7.41125,0 14.245,27.23875 17.99875,0 -17.325,-28.77875 c 9.625,-1.7325 14.72625,-9.14375 14.72625,-18.6725 0,-15.88125 -11.7425,-20.69375 -25.69875,-20.69375 l -26.3725,0 0,68.145 z m 15.015,-55.44 9.8175,0 c 5.48625,0 11.64625,1.05875 11.64625,7.8925 0,7.41125 -7.1225,7.60375 -12.60875,7.60375 l -8.855,0 0,-15.49625 z"
       style="font-style:normal;font-variant:normal;font-weight:800;font-stretch:normal;font-size:96.25px;line-height:125%;font-family:'Avenir LT Std';-inkscape-font-specification:'Avenir LT Std, Ultra-Bold';text-align:start;letter-spacing:1.25px;writing-mode:lr-tb;text-anchor:start;fill:#ffffff;fill-opacity:1"
       id="path4315" /><path
       inkscape:connector-curvature="0"
       d="m -587.95083,429.83811 c 0,21.84875 15.49625,35.805 36.7675,35.805 21.27125,0 36.7675,-13.95625 36.7675,-35.805 0,-21.84875 -15.49625,-35.805 -36.7675,-35.805 -21.27125,0 -36.7675,13.95625 -36.7675,35.805 z m 15.5925,0 c 0,-12.705 8.37375,-21.945 21.175,-21.945 12.80125,0 21.175,9.24 21.175,21.945 0,12.705 -8.37375,21.945 -21.175,21.945 -12.80125,0 -21.175,-9.24 -21.175,-21.945 z"
       style="font-style:normal;font-variant:normal;font-weight:800;font-stretch:normal;font-size:96.25px;line-height:125%;font-family:'Avenir LT Std';-inkscape-font-specification:'Avenir LT Std, Ultra-Bold';text-align:start;letter-spacing:1.25px;writing-mode:lr-tb;text-anchor:start;fill:#ffffff;fill-opacity:1"
       id="path4317" /><path
       inkscape:connector-curvature="0"
       d="m -502.38282,463.91061 15.015,0 0,-26.565 28.39375,0 0,-13.86 -28.39375,0 0,-13.86 30.70375,0 0,-13.86 -45.71875,0 0,68.145 z"
       style="font-style:normal;font-variant:normal;font-weight:800;font-stretch:normal;font-size:96.25px;line-height:125%;font-family:'Avenir LT Std';-inkscape-font-specification:'Avenir LT Std, Ultra-Bold';text-align:start;letter-spacing:1.25px;writing-mode:lr-tb;text-anchor:start;fill:#ffffff;fill-opacity:1"
       id="path4319" /><path
       inkscape:connector-curvature="0"
       d="m -401.55141,463.91061 15.015,0 0,-54.8625 19.4425,0 0,-13.2825 -53.9,0 0,13.2825 19.4425,0 0,54.8625 z"
       style="font-style:normal;font-variant:normal;font-weight:800;font-stretch:normal;font-size:96.25px;line-height:125%;font-family:'Avenir LT Std';-inkscape-font-specification:'Avenir LT Std, Ultra-Bold';text-align:start;letter-spacing:1.25px;writing-mode:lr-tb;text-anchor:start;fill:#ffffff;fill-opacity:1"
       id="path4321" /><path
       inkscape:connector-curvature="0"
       d="m -314.23286,401.15561 c -5.775,-5.10125 -13.18625,-7.1225 -20.88625,-7.1225 -13.37875,0 -25.9875,7.60375 -25.9875,22.1375 0,22.715 31.955,15.9775 31.955,28.49 0,4.8125 -5.48625,7.1225 -10.395,7.1225 -5.005,0 -10.01,-2.40625 -13.09,-6.44875 l -10.68375,11.7425 c 6.44875,5.9675 14.14875,8.56625 22.9075,8.56625 14.0525,0 26.27625,-7.21875 26.27625,-22.42625 0,-23.87 -31.3775,-15.88125 -31.3775,-28.2975 0,-5.10125 5.87125,-7.02625 10.10625,-7.02625 3.6575,0 8.47,1.44375 10.87625,4.52375 l 10.29875,-11.26125 z"
       style="font-style:normal;font-variant:normal;font-weight:800;font-stretch:normal;font-size:96.25px;line-height:125%;font-family:'Avenir LT Std';-inkscape-font-specification:'Avenir LT Std, Ultra-Bold';text-align:start;letter-spacing:1.25px;writing-mode:lr-tb;text-anchor:start;fill:#ffffff;fill-opacity:1"
       id="path4323" /><path
       inkscape:connector-curvature="0"
       d="m -301.70055,463.91061 15.015,0 0,-27.23875 7.41125,0 14.245,27.23875 17.99875,0 -17.325,-28.77875 c 9.625,-1.7325 14.72625,-9.14375 14.72625,-18.6725 0,-15.88125 -11.7425,-20.69375 -25.69875,-20.69375 l -26.3725,0 0,68.145 z m 15.015,-55.44 9.8175,0 c 5.48625,0 11.64625,1.05875 11.64625,7.8925 0,7.41125 -7.1225,7.60375 -12.60875,7.60375 l -8.855,0 0,-15.49625 z"
       style="font-style:normal;font-variant:normal;font-weight:800;font-stretch:normal;font-size:96.25px;line-height:125%;font-family:'Avenir LT Std';-inkscape-font-specification:'Avenir LT Std, Ultra-Bold';text-align:start;letter-spacing:1.25px;writing-mode:lr-tb;text-anchor:start;fill:#ffffff;fill-opacity:1"
       id="path4325" /><path
       inkscape:connector-curvature="0"
       d="m -180.57719,395.76561 -15.015,0 0,41.29125 c 0,8.37375 -5.775,14.72625 -13.6675,14.72625 -7.98875,0 -13.76375,-6.3525 -13.76375,-14.72625 l 0,-41.29125 -15.015,0 0,41.86875 c 0,16.07375 9.8175,28.00875 28.77875,28.00875 18.865,0 28.6825,-11.935 28.6825,-28.00875 l 0,-41.86875 z"
       style="font-style:normal;font-variant:normal;font-weight:800;font-stretch:normal;font-size:96.25px;line-height:125%;font-family:'Avenir LT Std';-inkscape-font-specification:'Avenir LT Std, Ultra-Bold';text-align:start;letter-spacing:1.25px;writing-mode:lr-tb;text-anchor:start;fill:#ffffff;fill-opacity:1"
       id="path4327" /><path
       inkscape:connector-curvature="0"
       d="m -152.45089,463.91061 12.8975,0 15.015,-47.1625 0.1925,0 15.015,47.1625 13.378754,0 19.92375,-68.145 -15.2075,0 -11.453754,44.8525 -0.1925,0 -14.14875,-44.8525 -13.95625,0 -14.245,43.6975 -0.1925,0 -10.87625,-43.6975 -16.3625,0 20.2125,68.145 z"
       style="font-style:normal;font-variant:normal;font-weight:800;font-stretch:normal;font-size:96.25px;line-height:125%;font-family:'Avenir LT Std';-inkscape-font-specification:'Avenir LT Std, Ultra-Bold';text-align:start;letter-spacing:1.25px;writing-mode:lr-tb;text-anchor:start;fill:#ffffff;fill-opacity:1"
       id="path4329" /></g></svg>